<?xml version="1.0" encoding="utf-8" standalone="no"?>
<!DOCTYPE svg PUBLIC "-//W3C//DTD SVG 1.1//EN"
  "http://www.w3.org/Graphics/SVG/1.1/DTD/svg11.dtd">
<svg xmlns:xlink="http://www.w3.org/1999/xlink" width="1152pt" height="720pt" viewBox="0 0 1152 720" xmlns="http://www.w3.org/2000/svg" version="1.1">
 <metadata>
  <rdf:RDF xmlns:dc="http://purl.org/dc/elements/1.1/" xmlns:cc="http://creativecommons.org/ns#" xmlns:rdf="http://www.w3.org/1999/02/22-rdf-syntax-ns#">
   <cc:Work>
    <dc:type rdf:resource="http://purl.org/dc/dcmitype/StillImage"/>
    <dc:date>2021-12-12T18:39:09.427215</dc:date>
    <dc:format>image/svg+xml</dc:format>
    <dc:creator>
     <cc:Agent>
      <dc:title>Matplotlib v3.5.0, https://matplotlib.org/</dc:title>
     </cc:Agent>
    </dc:creator>
   </cc:Work>
  </rdf:RDF>
 </metadata>
 <defs>
  <style type="text/css">*{stroke-linejoin: round; stroke-linecap: butt}</style>
 </defs>
 <g id="figure_1">
  <g id="patch_1">
   <path d="M 0 720 
L 1152 720 
L 1152 0 
L 0 0 
z
" style="fill: #ffffff"/>
  </g>
  <g id="axes_1">
   <g id="patch_2">
    <path d="M 42.073649 674.758348 
L 1141.2 674.758348 
L 1141.2 10.8 
L 42.073649 10.8 
z
" style="fill: #ffffff"/>
   </g>
   <g id="matplotlib.axis_1">
    <g id="xtick_1">
     <g id="line2d_1">
      <path d="M 74.953498 674.758348 
L 74.953498 10.8 
" clip-path="url(#p8c92dc2295)" style="fill: none; stroke: #b0b0b0; stroke-width: 0.8; stroke-linecap: square"/>
     </g>
     <g id="line2d_2">
      <defs>
       <path id="m0d255110d7" d="M 0 0 
L 0 3.5 
" style="stroke: #000000; stroke-width: 0.8"/>
      </defs>
      <g>
       <use xlink:href="#m0d255110d7" x="74.953498" y="674.758348" style="stroke: #000000; stroke-width: 0.8"/>
      </g>
     </g>
     <g id="text_1">
      <!-- 2021-08-15 -->
      <g transform="translate(19.039595 706.943608)rotate(-18)scale(0.1 -0.1)">
       <defs>
        <path id="DejaVuSans-32" d="M 1228 531 
L 3431 531 
L 3431 0 
L 469 0 
L 469 531 
Q 828 903 1448 1529 
Q 2069 2156 2228 2338 
Q 2531 2678 2651 2914 
Q 2772 3150 2772 3378 
Q 2772 3750 2511 3984 
Q 2250 4219 1831 4219 
Q 1534 4219 1204 4116 
Q 875 4013 500 3803 
L 500 4441 
Q 881 4594 1212 4672 
Q 1544 4750 1819 4750 
Q 2544 4750 2975 4387 
Q 3406 4025 3406 3419 
Q 3406 3131 3298 2873 
Q 3191 2616 2906 2266 
Q 2828 2175 2409 1742 
Q 1991 1309 1228 531 
z
" transform="scale(0.015625)"/>
        <path id="DejaVuSans-30" d="M 2034 4250 
Q 1547 4250 1301 3770 
Q 1056 3291 1056 2328 
Q 1056 1369 1301 889 
Q 1547 409 2034 409 
Q 2525 409 2770 889 
Q 3016 1369 3016 2328 
Q 3016 3291 2770 3770 
Q 2525 4250 2034 4250 
z
M 2034 4750 
Q 2819 4750 3233 4129 
Q 3647 3509 3647 2328 
Q 3647 1150 3233 529 
Q 2819 -91 2034 -91 
Q 1250 -91 836 529 
Q 422 1150 422 2328 
Q 422 3509 836 4129 
Q 1250 4750 2034 4750 
z
" transform="scale(0.015625)"/>
        <path id="DejaVuSans-31" d="M 794 531 
L 1825 531 
L 1825 4091 
L 703 3866 
L 703 4441 
L 1819 4666 
L 2450 4666 
L 2450 531 
L 3481 531 
L 3481 0 
L 794 0 
L 794 531 
z
" transform="scale(0.015625)"/>
        <path id="DejaVuSans-2d" d="M 313 2009 
L 1997 2009 
L 1997 1497 
L 313 1497 
L 313 2009 
z
" transform="scale(0.015625)"/>
        <path id="DejaVuSans-38" d="M 2034 2216 
Q 1584 2216 1326 1975 
Q 1069 1734 1069 1313 
Q 1069 891 1326 650 
Q 1584 409 2034 409 
Q 2484 409 2743 651 
Q 3003 894 3003 1313 
Q 3003 1734 2745 1975 
Q 2488 2216 2034 2216 
z
M 1403 2484 
Q 997 2584 770 2862 
Q 544 3141 544 3541 
Q 544 4100 942 4425 
Q 1341 4750 2034 4750 
Q 2731 4750 3128 4425 
Q 3525 4100 3525 3541 
Q 3525 3141 3298 2862 
Q 3072 2584 2669 2484 
Q 3125 2378 3379 2068 
Q 3634 1759 3634 1313 
Q 3634 634 3220 271 
Q 2806 -91 2034 -91 
Q 1263 -91 848 271 
Q 434 634 434 1313 
Q 434 1759 690 2068 
Q 947 2378 1403 2484 
z
M 1172 3481 
Q 1172 3119 1398 2916 
Q 1625 2713 2034 2713 
Q 2441 2713 2670 2916 
Q 2900 3119 2900 3481 
Q 2900 3844 2670 4047 
Q 2441 4250 2034 4250 
Q 1625 4250 1398 4047 
Q 1172 3844 1172 3481 
z
" transform="scale(0.015625)"/>
        <path id="DejaVuSans-35" d="M 691 4666 
L 3169 4666 
L 3169 4134 
L 1269 4134 
L 1269 2991 
Q 1406 3038 1543 3061 
Q 1681 3084 1819 3084 
Q 2600 3084 3056 2656 
Q 3513 2228 3513 1497 
Q 3513 744 3044 326 
Q 2575 -91 1722 -91 
Q 1428 -91 1123 -41 
Q 819 9 494 109 
L 494 744 
Q 775 591 1075 516 
Q 1375 441 1709 441 
Q 2250 441 2565 725 
Q 2881 1009 2881 1497 
Q 2881 1984 2565 2268 
Q 2250 2553 1709 2553 
Q 1456 2553 1204 2497 
Q 953 2441 691 2322 
L 691 4666 
z
" transform="scale(0.015625)"/>
       </defs>
       <use xlink:href="#DejaVuSans-32"/>
       <use xlink:href="#DejaVuSans-30" x="63.623047"/>
       <use xlink:href="#DejaVuSans-32" x="127.246094"/>
       <use xlink:href="#DejaVuSans-31" x="190.869141"/>
       <use xlink:href="#DejaVuSans-2d" x="254.492188"/>
       <use xlink:href="#DejaVuSans-30" x="290.576172"/>
       <use xlink:href="#DejaVuSans-38" x="354.199219"/>
       <use xlink:href="#DejaVuSans-2d" x="417.822266"/>
       <use xlink:href="#DejaVuSans-31" x="453.90625"/>
       <use xlink:href="#DejaVuSans-35" x="517.529297"/>
      </g>
     </g>
    </g>
    <g id="xtick_2">
     <g id="line2d_3">
      <path d="M 220.137242 674.758348 
L 220.137242 10.8 
" clip-path="url(#p8c92dc2295)" style="fill: none; stroke: #b0b0b0; stroke-width: 0.8; stroke-linecap: square"/>
     </g>
     <g id="line2d_4">
      <g>
       <use xlink:href="#m0d255110d7" x="220.137242" y="674.758348" style="stroke: #000000; stroke-width: 0.8"/>
      </g>
     </g>
     <g id="text_2">
      <!-- 2021-09-01 -->
      <g transform="translate(164.22334 706.943608)rotate(-18)scale(0.1 -0.1)">
       <defs>
        <path id="DejaVuSans-39" d="M 703 97 
L 703 672 
Q 941 559 1184 500 
Q 1428 441 1663 441 
Q 2288 441 2617 861 
Q 2947 1281 2994 2138 
Q 2813 1869 2534 1725 
Q 2256 1581 1919 1581 
Q 1219 1581 811 2004 
Q 403 2428 403 3163 
Q 403 3881 828 4315 
Q 1253 4750 1959 4750 
Q 2769 4750 3195 4129 
Q 3622 3509 3622 2328 
Q 3622 1225 3098 567 
Q 2575 -91 1691 -91 
Q 1453 -91 1209 -44 
Q 966 3 703 97 
z
M 1959 2075 
Q 2384 2075 2632 2365 
Q 2881 2656 2881 3163 
Q 2881 3666 2632 3958 
Q 2384 4250 1959 4250 
Q 1534 4250 1286 3958 
Q 1038 3666 1038 3163 
Q 1038 2656 1286 2365 
Q 1534 2075 1959 2075 
z
" transform="scale(0.015625)"/>
       </defs>
       <use xlink:href="#DejaVuSans-32"/>
       <use xlink:href="#DejaVuSans-30" x="63.623047"/>
       <use xlink:href="#DejaVuSans-32" x="127.246094"/>
       <use xlink:href="#DejaVuSans-31" x="190.869141"/>
       <use xlink:href="#DejaVuSans-2d" x="254.492188"/>
       <use xlink:href="#DejaVuSans-30" x="290.576172"/>
       <use xlink:href="#DejaVuSans-39" x="354.199219"/>
       <use xlink:href="#DejaVuSans-2d" x="417.822266"/>
       <use xlink:href="#DejaVuSans-30" x="453.90625"/>
       <use xlink:href="#DejaVuSans-31" x="517.529297"/>
      </g>
     </g>
    </g>
    <g id="xtick_3">
     <g id="line2d_5">
      <path d="M 339.700326 674.758348 
L 339.700326 10.8 
" clip-path="url(#p8c92dc2295)" style="fill: none; stroke: #b0b0b0; stroke-width: 0.8; stroke-linecap: square"/>
     </g>
     <g id="line2d_6">
      <g>
       <use xlink:href="#m0d255110d7" x="339.700326" y="674.758348" style="stroke: #000000; stroke-width: 0.8"/>
      </g>
     </g>
     <g id="text_3">
      <!-- 2021-09-15 -->
      <g transform="translate(283.786424 706.943608)rotate(-18)scale(0.1 -0.1)">
       <use xlink:href="#DejaVuSans-32"/>
       <use xlink:href="#DejaVuSans-30" x="63.623047"/>
       <use xlink:href="#DejaVuSans-32" x="127.246094"/>
       <use xlink:href="#DejaVuSans-31" x="190.869141"/>
       <use xlink:href="#DejaVuSans-2d" x="254.492188"/>
       <use xlink:href="#DejaVuSans-30" x="290.576172"/>
       <use xlink:href="#DejaVuSans-39" x="354.199219"/>
       <use xlink:href="#DejaVuSans-2d" x="417.822266"/>
       <use xlink:href="#DejaVuSans-31" x="453.90625"/>
       <use xlink:href="#DejaVuSans-35" x="517.529297"/>
      </g>
     </g>
    </g>
    <g id="xtick_4">
     <g id="line2d_7">
      <path d="M 476.343851 674.758348 
L 476.343851 10.8 
" clip-path="url(#p8c92dc2295)" style="fill: none; stroke: #b0b0b0; stroke-width: 0.8; stroke-linecap: square"/>
     </g>
     <g id="line2d_8">
      <g>
       <use xlink:href="#m0d255110d7" x="476.343851" y="674.758348" style="stroke: #000000; stroke-width: 0.8"/>
      </g>
     </g>
     <g id="text_4">
      <!-- 2021-10-01 -->
      <g transform="translate(420.429948 706.943608)rotate(-18)scale(0.1 -0.1)">
       <use xlink:href="#DejaVuSans-32"/>
       <use xlink:href="#DejaVuSans-30" x="63.623047"/>
       <use xlink:href="#DejaVuSans-32" x="127.246094"/>
       <use xlink:href="#DejaVuSans-31" x="190.869141"/>
       <use xlink:href="#DejaVuSans-2d" x="254.492188"/>
       <use xlink:href="#DejaVuSans-31" x="290.576172"/>
       <use xlink:href="#DejaVuSans-30" x="354.199219"/>
       <use xlink:href="#DejaVuSans-2d" x="417.822266"/>
       <use xlink:href="#DejaVuSans-30" x="453.90625"/>
       <use xlink:href="#DejaVuSans-31" x="517.529297"/>
      </g>
     </g>
    </g>
    <g id="xtick_5">
     <g id="line2d_9">
      <path d="M 595.906935 674.758348 
L 595.906935 10.8 
" clip-path="url(#p8c92dc2295)" style="fill: none; stroke: #b0b0b0; stroke-width: 0.8; stroke-linecap: square"/>
     </g>
     <g id="line2d_10">
      <g>
       <use xlink:href="#m0d255110d7" x="595.906935" y="674.758348" style="stroke: #000000; stroke-width: 0.8"/>
      </g>
     </g>
     <g id="text_5">
      <!-- 2021-10-15 -->
      <g transform="translate(539.993032 706.943608)rotate(-18)scale(0.1 -0.1)">
       <use xlink:href="#DejaVuSans-32"/>
       <use xlink:href="#DejaVuSans-30" x="63.623047"/>
       <use xlink:href="#DejaVuSans-32" x="127.246094"/>
       <use xlink:href="#DejaVuSans-31" x="190.869141"/>
       <use xlink:href="#DejaVuSans-2d" x="254.492188"/>
       <use xlink:href="#DejaVuSans-31" x="290.576172"/>
       <use xlink:href="#DejaVuSans-30" x="354.199219"/>
       <use xlink:href="#DejaVuSans-2d" x="417.822266"/>
       <use xlink:href="#DejaVuSans-31" x="453.90625"/>
       <use xlink:href="#DejaVuSans-35" x="517.529297"/>
      </g>
     </g>
    </g>
    <g id="xtick_6">
     <g id="line2d_11">
      <path d="M 741.09068 674.758348 
L 741.09068 10.8 
" clip-path="url(#p8c92dc2295)" style="fill: none; stroke: #b0b0b0; stroke-width: 0.8; stroke-linecap: square"/>
     </g>
     <g id="line2d_12">
      <g>
       <use xlink:href="#m0d255110d7" x="741.09068" y="674.758348" style="stroke: #000000; stroke-width: 0.8"/>
      </g>
     </g>
     <g id="text_6">
      <!-- 2021-11-01 -->
      <g transform="translate(685.176777 706.943608)rotate(-18)scale(0.1 -0.1)">
       <use xlink:href="#DejaVuSans-32"/>
       <use xlink:href="#DejaVuSans-30" x="63.623047"/>
       <use xlink:href="#DejaVuSans-32" x="127.246094"/>
       <use xlink:href="#DejaVuSans-31" x="190.869141"/>
       <use xlink:href="#DejaVuSans-2d" x="254.492188"/>
       <use xlink:href="#DejaVuSans-31" x="290.576172"/>
       <use xlink:href="#DejaVuSans-31" x="354.199219"/>
       <use xlink:href="#DejaVuSans-2d" x="417.822266"/>
       <use xlink:href="#DejaVuSans-30" x="453.90625"/>
       <use xlink:href="#DejaVuSans-31" x="517.529297"/>
      </g>
     </g>
    </g>
    <g id="xtick_7">
     <g id="line2d_13">
      <path d="M 860.653764 674.758348 
L 860.653764 10.8 
" clip-path="url(#p8c92dc2295)" style="fill: none; stroke: #b0b0b0; stroke-width: 0.8; stroke-linecap: square"/>
     </g>
     <g id="line2d_14">
      <g>
       <use xlink:href="#m0d255110d7" x="860.653764" y="674.758348" style="stroke: #000000; stroke-width: 0.8"/>
      </g>
     </g>
     <g id="text_7">
      <!-- 2021-11-15 -->
      <g transform="translate(804.739861 706.943608)rotate(-18)scale(0.1 -0.1)">
       <use xlink:href="#DejaVuSans-32"/>
       <use xlink:href="#DejaVuSans-30" x="63.623047"/>
       <use xlink:href="#DejaVuSans-32" x="127.246094"/>
       <use xlink:href="#DejaVuSans-31" x="190.869141"/>
       <use xlink:href="#DejaVuSans-2d" x="254.492188"/>
       <use xlink:href="#DejaVuSans-31" x="290.576172"/>
       <use xlink:href="#DejaVuSans-31" x="354.199219"/>
       <use xlink:href="#DejaVuSans-2d" x="417.822266"/>
       <use xlink:href="#DejaVuSans-31" x="453.90625"/>
       <use xlink:href="#DejaVuSans-35" x="517.529297"/>
      </g>
     </g>
    </g>
    <g id="xtick_8">
     <g id="line2d_15">
      <path d="M 997.297288 674.758348 
L 997.297288 10.8 
" clip-path="url(#p8c92dc2295)" style="fill: none; stroke: #b0b0b0; stroke-width: 0.8; stroke-linecap: square"/>
     </g>
     <g id="line2d_16">
      <g>
       <use xlink:href="#m0d255110d7" x="997.297288" y="674.758348" style="stroke: #000000; stroke-width: 0.8"/>
      </g>
     </g>
     <g id="text_8">
      <!-- 2021-12-01 -->
      <g transform="translate(941.383386 706.943608)rotate(-18)scale(0.1 -0.1)">
       <use xlink:href="#DejaVuSans-32"/>
       <use xlink:href="#DejaVuSans-30" x="63.623047"/>
       <use xlink:href="#DejaVuSans-32" x="127.246094"/>
       <use xlink:href="#DejaVuSans-31" x="190.869141"/>
       <use xlink:href="#DejaVuSans-2d" x="254.492188"/>
       <use xlink:href="#DejaVuSans-31" x="290.576172"/>
       <use xlink:href="#DejaVuSans-32" x="354.199219"/>
       <use xlink:href="#DejaVuSans-2d" x="417.822266"/>
       <use xlink:href="#DejaVuSans-30" x="453.90625"/>
       <use xlink:href="#DejaVuSans-31" x="517.529297"/>
      </g>
     </g>
    </g>
    <g id="xtick_9">
     <g id="line2d_17">
      <path d="M 1116.860372 674.758348 
L 1116.860372 10.8 
" clip-path="url(#p8c92dc2295)" style="fill: none; stroke: #b0b0b0; stroke-width: 0.8; stroke-linecap: square"/>
     </g>
     <g id="line2d_18">
      <g>
       <use xlink:href="#m0d255110d7" x="1116.860372" y="674.758348" style="stroke: #000000; stroke-width: 0.8"/>
      </g>
     </g>
     <g id="text_9">
      <!-- 2021-12-15 -->
      <g transform="translate(1060.94647 706.943608)rotate(-18)scale(0.1 -0.1)">
       <use xlink:href="#DejaVuSans-32"/>
       <use xlink:href="#DejaVuSans-30" x="63.623047"/>
       <use xlink:href="#DejaVuSans-32" x="127.246094"/>
       <use xlink:href="#DejaVuSans-31" x="190.869141"/>
       <use xlink:href="#DejaVuSans-2d" x="254.492188"/>
       <use xlink:href="#DejaVuSans-31" x="290.576172"/>
       <use xlink:href="#DejaVuSans-32" x="354.199219"/>
       <use xlink:href="#DejaVuSans-2d" x="417.822266"/>
       <use xlink:href="#DejaVuSans-31" x="453.90625"/>
       <use xlink:href="#DejaVuSans-35" x="517.529297"/>
      </g>
     </g>
    </g>
   </g>
   <g id="matplotlib.axis_2">
    <g id="ytick_1">
     <g id="line2d_19">
      <path d="M 42.073649 645.334813 
L 1141.2 645.334813 
" clip-path="url(#p8c92dc2295)" style="fill: none; stroke: #b0b0b0; stroke-width: 0.8; stroke-linecap: square"/>
     </g>
     <g id="line2d_20">
      <defs>
       <path id="mc335197119" d="M 0 0 
L -3.5 0 
" style="stroke: #000000; stroke-width: 0.8"/>
      </defs>
      <g>
       <use xlink:href="#mc335197119" x="42.073649" y="645.334813" style="stroke: #000000; stroke-width: 0.8"/>
      </g>
     </g>
     <g id="text_10">
      <!-- 0 -->
      <g transform="translate(28.711149 649.134031)scale(0.1 -0.1)">
       <use xlink:href="#DejaVuSans-30"/>
      </g>
     </g>
    </g>
    <g id="ytick_2">
     <g id="line2d_21">
      <path d="M 42.073649 569.695903 
L 1141.2 569.695903 
" clip-path="url(#p8c92dc2295)" style="fill: none; stroke: #b0b0b0; stroke-width: 0.8; stroke-linecap: square"/>
     </g>
     <g id="line2d_22">
      <g>
       <use xlink:href="#mc335197119" x="42.073649" y="569.695903" style="stroke: #000000; stroke-width: 0.8"/>
      </g>
     </g>
     <g id="text_11">
      <!-- 100 -->
      <g transform="translate(15.986149 573.495122)scale(0.1 -0.1)">
       <use xlink:href="#DejaVuSans-31"/>
       <use xlink:href="#DejaVuSans-30" x="63.623047"/>
       <use xlink:href="#DejaVuSans-30" x="127.246094"/>
      </g>
     </g>
    </g>
    <g id="ytick_3">
     <g id="line2d_23">
      <path d="M 42.073649 494.056993 
L 1141.2 494.056993 
" clip-path="url(#p8c92dc2295)" style="fill: none; stroke: #b0b0b0; stroke-width: 0.8; stroke-linecap: square"/>
     </g>
     <g id="line2d_24">
      <g>
       <use xlink:href="#mc335197119" x="42.073649" y="494.056993" style="stroke: #000000; stroke-width: 0.8"/>
      </g>
     </g>
     <g id="text_12">
      <!-- 200 -->
      <g transform="translate(15.986149 497.856212)scale(0.1 -0.1)">
       <use xlink:href="#DejaVuSans-32"/>
       <use xlink:href="#DejaVuSans-30" x="63.623047"/>
       <use xlink:href="#DejaVuSans-30" x="127.246094"/>
      </g>
     </g>
    </g>
    <g id="ytick_4">
     <g id="line2d_25">
      <path d="M 42.073649 418.418084 
L 1141.2 418.418084 
" clip-path="url(#p8c92dc2295)" style="fill: none; stroke: #b0b0b0; stroke-width: 0.8; stroke-linecap: square"/>
     </g>
     <g id="line2d_26">
      <g>
       <use xlink:href="#mc335197119" x="42.073649" y="418.418084" style="stroke: #000000; stroke-width: 0.8"/>
      </g>
     </g>
     <g id="text_13">
      <!-- 300 -->
      <g transform="translate(15.986149 422.217303)scale(0.1 -0.1)">
       <defs>
        <path id="DejaVuSans-33" d="M 2597 2516 
Q 3050 2419 3304 2112 
Q 3559 1806 3559 1356 
Q 3559 666 3084 287 
Q 2609 -91 1734 -91 
Q 1441 -91 1130 -33 
Q 819 25 488 141 
L 488 750 
Q 750 597 1062 519 
Q 1375 441 1716 441 
Q 2309 441 2620 675 
Q 2931 909 2931 1356 
Q 2931 1769 2642 2001 
Q 2353 2234 1838 2234 
L 1294 2234 
L 1294 2753 
L 1863 2753 
Q 2328 2753 2575 2939 
Q 2822 3125 2822 3475 
Q 2822 3834 2567 4026 
Q 2313 4219 1838 4219 
Q 1578 4219 1281 4162 
Q 984 4106 628 3988 
L 628 4550 
Q 988 4650 1302 4700 
Q 1616 4750 1894 4750 
Q 2613 4750 3031 4423 
Q 3450 4097 3450 3541 
Q 3450 3153 3228 2886 
Q 3006 2619 2597 2516 
z
" transform="scale(0.015625)"/>
       </defs>
       <use xlink:href="#DejaVuSans-33"/>
       <use xlink:href="#DejaVuSans-30" x="63.623047"/>
       <use xlink:href="#DejaVuSans-30" x="127.246094"/>
      </g>
     </g>
    </g>
    <g id="ytick_5">
     <g id="line2d_27">
      <path d="M 42.073649 342.779174 
L 1141.2 342.779174 
" clip-path="url(#p8c92dc2295)" style="fill: none; stroke: #b0b0b0; stroke-width: 0.8; stroke-linecap: square"/>
     </g>
     <g id="line2d_28">
      <g>
       <use xlink:href="#mc335197119" x="42.073649" y="342.779174" style="stroke: #000000; stroke-width: 0.8"/>
      </g>
     </g>
     <g id="text_14">
      <!-- 400 -->
      <g transform="translate(15.986149 346.578393)scale(0.1 -0.1)">
       <defs>
        <path id="DejaVuSans-34" d="M 2419 4116 
L 825 1625 
L 2419 1625 
L 2419 4116 
z
M 2253 4666 
L 3047 4666 
L 3047 1625 
L 3713 1625 
L 3713 1100 
L 3047 1100 
L 3047 0 
L 2419 0 
L 2419 1100 
L 313 1100 
L 313 1709 
L 2253 4666 
z
" transform="scale(0.015625)"/>
       </defs>
       <use xlink:href="#DejaVuSans-34"/>
       <use xlink:href="#DejaVuSans-30" x="63.623047"/>
       <use xlink:href="#DejaVuSans-30" x="127.246094"/>
      </g>
     </g>
    </g>
    <g id="ytick_6">
     <g id="line2d_29">
      <path d="M 42.073649 267.140265 
L 1141.2 267.140265 
" clip-path="url(#p8c92dc2295)" style="fill: none; stroke: #b0b0b0; stroke-width: 0.8; stroke-linecap: square"/>
     </g>
     <g id="line2d_30">
      <g>
       <use xlink:href="#mc335197119" x="42.073649" y="267.140265" style="stroke: #000000; stroke-width: 0.8"/>
      </g>
     </g>
     <g id="text_15">
      <!-- 500 -->
      <g transform="translate(15.986149 270.939483)scale(0.1 -0.1)">
       <use xlink:href="#DejaVuSans-35"/>
       <use xlink:href="#DejaVuSans-30" x="63.623047"/>
       <use xlink:href="#DejaVuSans-30" x="127.246094"/>
      </g>
     </g>
    </g>
    <g id="ytick_7">
     <g id="line2d_31">
      <path d="M 42.073649 191.501355 
L 1141.2 191.501355 
" clip-path="url(#p8c92dc2295)" style="fill: none; stroke: #b0b0b0; stroke-width: 0.8; stroke-linecap: square"/>
     </g>
     <g id="line2d_32">
      <g>
       <use xlink:href="#mc335197119" x="42.073649" y="191.501355" style="stroke: #000000; stroke-width: 0.8"/>
      </g>
     </g>
     <g id="text_16">
      <!-- 600 -->
      <g transform="translate(15.986149 195.300574)scale(0.1 -0.1)">
       <defs>
        <path id="DejaVuSans-36" d="M 2113 2584 
Q 1688 2584 1439 2293 
Q 1191 2003 1191 1497 
Q 1191 994 1439 701 
Q 1688 409 2113 409 
Q 2538 409 2786 701 
Q 3034 994 3034 1497 
Q 3034 2003 2786 2293 
Q 2538 2584 2113 2584 
z
M 3366 4563 
L 3366 3988 
Q 3128 4100 2886 4159 
Q 2644 4219 2406 4219 
Q 1781 4219 1451 3797 
Q 1122 3375 1075 2522 
Q 1259 2794 1537 2939 
Q 1816 3084 2150 3084 
Q 2853 3084 3261 2657 
Q 3669 2231 3669 1497 
Q 3669 778 3244 343 
Q 2819 -91 2113 -91 
Q 1303 -91 875 529 
Q 447 1150 447 2328 
Q 447 3434 972 4092 
Q 1497 4750 2381 4750 
Q 2619 4750 2861 4703 
Q 3103 4656 3366 4563 
z
" transform="scale(0.015625)"/>
       </defs>
       <use xlink:href="#DejaVuSans-36"/>
       <use xlink:href="#DejaVuSans-30" x="63.623047"/>
       <use xlink:href="#DejaVuSans-30" x="127.246094"/>
      </g>
     </g>
    </g>
    <g id="ytick_8">
     <g id="line2d_33">
      <path d="M 42.073649 115.862445 
L 1141.2 115.862445 
" clip-path="url(#p8c92dc2295)" style="fill: none; stroke: #b0b0b0; stroke-width: 0.8; stroke-linecap: square"/>
     </g>
     <g id="line2d_34">
      <g>
       <use xlink:href="#mc335197119" x="42.073649" y="115.862445" style="stroke: #000000; stroke-width: 0.8"/>
      </g>
     </g>
     <g id="text_17">
      <!-- 700 -->
      <g transform="translate(15.986149 119.661664)scale(0.1 -0.1)">
       <defs>
        <path id="DejaVuSans-37" d="M 525 4666 
L 3525 4666 
L 3525 4397 
L 1831 0 
L 1172 0 
L 2766 4134 
L 525 4134 
L 525 4666 
z
" transform="scale(0.015625)"/>
       </defs>
       <use xlink:href="#DejaVuSans-37"/>
       <use xlink:href="#DejaVuSans-30" x="63.623047"/>
       <use xlink:href="#DejaVuSans-30" x="127.246094"/>
      </g>
     </g>
    </g>
    <g id="ytick_9">
     <g id="line2d_35">
      <path d="M 42.073649 40.223536 
L 1141.2 40.223536 
" clip-path="url(#p8c92dc2295)" style="fill: none; stroke: #b0b0b0; stroke-width: 0.8; stroke-linecap: square"/>
     </g>
     <g id="line2d_36">
      <g>
       <use xlink:href="#mc335197119" x="42.073649" y="40.223536" style="stroke: #000000; stroke-width: 0.8"/>
      </g>
     </g>
     <g id="text_18">
      <!-- 800 -->
      <g transform="translate(15.986149 44.022755)scale(0.1 -0.1)">
       <use xlink:href="#DejaVuSans-38"/>
       <use xlink:href="#DejaVuSans-30" x="63.623047"/>
       <use xlink:href="#DejaVuSans-30" x="127.246094"/>
      </g>
     </g>
    </g>
   </g>
   <g id="line2d_37">
    <path d="M 92.033938 106.029387 
L 100.574158 106.029387 
L 109.114379 118.888002 
L 117.654599 121.913558 
L 126.194819 123.426336 
L 134.73504 125.695504 
L 143.27526 125.695504 
L 151.81548 126.451893 
L 160.3557 127.964671 
L 168.895921 129.477449 
L 177.436141 130.233838 
L 185.976361 130.233838 
L 194.516581 131.746616 
L 203.056802 134.015784 
L 211.597022 135.528562 
L 220.137242 136.284951 
L 228.677463 137.797729 
L 237.217683 140.823286 
L 245.757903 140.823286 
L 254.298123 40.979925 
L 262.838344 41.736314 
L 271.378564 44.005481 
L 279.918784 44.005481 
L 288.459005 44.76187 
L 296.999225 44.76187 
L 305.539445 47.787427 
L 314.079665 50.056594 
L 322.619886 50.056594 
L 331.160106 52.325761 
L 339.700326 54.594929 
L 348.240547 54.594929 
L 356.780767 62.915209 
L 365.320987 66.697154 
L 373.861207 68.209932 
L 382.401428 71.235489 
L 390.941648 73.504656 
L 399.481868 73.504656 
L 408.022089 73.504656 
L 416.562309 73.504656 
L 425.102529 73.504656 
L 433.642749 74.261045 
L 442.18297 74.261045 
L 450.72319 74.261045 
L 459.26341 75.017434 
L 467.803631 78.042991 
L 476.343851 81.824936 
L 484.884071 82.581325 
L 493.424291 84.094103 
L 501.964512 85.606882 
L 510.504732 85.606882 
L 519.044952 85.606882 
L 527.585173 85.606882 
L 536.125393 85.606882 
L 544.665613 85.606882 
L 553.205833 85.606882 
L 561.746054 85.606882 
L 570.286274 85.606882 
L 578.826494 106.785776 
L 587.366715 108.298554 
L 595.906935 108.298554 
L 604.447155 110.567722 
L 612.987375 110.567722 
L 621.527596 110.567722 
L 630.067816 112.836889 
L 638.608036 114.349667 
L 647.148257 115.862445 
L 672.768917 122.669947 
L 681.309138 124.939115 
L 689.849358 127.208282 
L 698.389578 127.964671 
L 706.929799 129.477449 
L 715.470019 130.233838 
L 724.010239 130.233838 
L 732.550459 132.503006 
L 741.09068 133.259395 
L 749.6309 134.015784 
L 758.17112 134.772173 
L 766.711341 137.04134 
L 775.251561 137.04134 
L 783.791781 140.066896 
L 792.332001 143.092453 
L 800.872222 146.874398 
L 809.412442 147.630787 
L 817.952662 150.656344 
L 826.492883 151.412733 
L 835.033103 155.194678 
L 843.573323 155.194678 
L 852.113543 155.194678 
L 860.653764 155.194678 
L 869.193984 155.194678 
L 877.734204 160.489402 
L 886.274425 160.489402 
L 894.814645 160.489402 
L 903.354865 164.271348 
L 911.895085 165.784126 
L 920.435306 166.540515 
L 928.975526 166.540515 
L 937.515746 166.540515 
L 946.055967 167.296904 
L 954.596187 170.32246 
L 963.136407 170.32246 
L 971.676627 172.591628 
L 980.216848 177.886351 
L 988.757068 180.155519 
L 997.297288 181.668297 
L 1005.837508 183.181075 
L 1014.377729 183.937464 
L 1022.917949 183.937464 
L 1031.458169 186.206631 
L 1039.99839 194.526911 
L 1048.53861 199.065246 
L 1057.07883 199.065246 
L 1065.61905 199.065246 
L 1074.159271 199.065246 
L 1082.699491 199.065246 
L 1091.239711 199.065246 
" clip-path="url(#p8c92dc2295)" style="fill: none; stroke: #1f77b4; stroke-width: 1.5; stroke-linecap: square"/>
   </g>
   <g id="line2d_38">
    <path d="M 92.033938 598.438689 
L 100.574158 598.438689 
L 109.114379 598.438689 
L 117.654599 598.438689 
L 126.194819 598.438689 
L 134.73504 599.195078 
L 143.27526 599.195078 
L 151.81548 599.195078 
L 160.3557 599.195078 
L 168.895921 599.195078 
L 177.436141 599.195078 
L 185.976361 599.195078 
L 194.516581 599.195078 
L 203.056802 599.195078 
L 211.597022 599.195078 
L 220.137242 599.195078 
L 228.677463 599.195078 
L 237.217683 599.195078 
L 245.757903 599.195078 
L 254.298123 584.067296 
L 262.838344 584.067296 
L 271.378564 584.067296 
L 279.918784 584.823685 
L 288.459005 590.118409 
L 296.999225 590.118409 
L 305.539445 590.118409 
L 314.079665 590.118409 
L 322.619886 590.118409 
L 331.160106 590.118409 
L 339.700326 602.977023 
L 348.240547 616.592027 
L 356.780767 626.425085 
L 365.320987 626.425085 
L 373.861207 627.181474 
L 382.401428 627.181474 
L 390.941648 627.181474 
L 399.481868 627.181474 
L 408.022089 627.181474 
L 416.562309 627.181474 
L 425.102529 627.181474 
L 433.642749 627.181474 
L 442.18297 627.181474 
L 450.72319 627.937863 
L 459.26341 627.937863 
L 467.803631 627.937863 
L 476.343851 627.937863 
L 484.884071 627.937863 
L 493.424291 627.937863 
L 501.964512 627.937863 
L 510.504732 627.937863 
L 519.044952 627.937863 
L 527.585173 627.937863 
L 536.125393 627.937863 
L 544.665613 627.937863 
L 553.205833 627.937863 
L 561.746054 627.937863 
L 570.286274 627.937863 
L 578.826494 629.450642 
L 587.366715 629.450642 
L 595.906935 629.450642 
L 604.447155 629.450642 
L 612.987375 629.450642 
L 621.527596 629.450642 
L 630.067816 629.450642 
L 638.608036 629.450642 
L 647.148257 629.450642 
L 672.768917 629.450642 
L 681.309138 629.450642 
L 689.849358 629.450642 
L 698.389578 629.450642 
L 706.929799 629.450642 
L 715.470019 630.207031 
L 724.010239 630.207031 
L 732.550459 630.207031 
L 741.09068 630.207031 
L 749.6309 630.207031 
L 758.17112 631.719809 
L 766.711341 631.719809 
L 775.251561 631.719809 
L 783.791781 631.719809 
L 792.332001 631.719809 
L 800.872222 631.719809 
L 809.412442 631.719809 
L 817.952662 631.719809 
L 826.492883 631.719809 
L 835.033103 631.719809 
L 843.573323 631.719809 
L 852.113543 631.719809 
L 860.653764 631.719809 
L 869.193984 631.719809 
L 877.734204 631.719809 
L 886.274425 631.719809 
L 894.814645 631.719809 
L 903.354865 631.719809 
L 911.895085 631.719809 
L 920.435306 631.719809 
L 928.975526 631.719809 
L 937.515746 631.719809 
L 946.055967 631.719809 
L 954.596187 631.719809 
L 963.136407 631.719809 
L 971.676627 631.719809 
L 980.216848 631.719809 
L 988.757068 631.719809 
L 997.297288 631.719809 
L 1005.837508 631.719809 
L 1014.377729 631.719809 
L 1022.917949 631.719809 
L 1031.458169 631.719809 
L 1039.99839 632.476198 
L 1048.53861 632.476198 
L 1057.07883 632.476198 
L 1065.61905 632.476198 
L 1074.159271 632.476198 
L 1082.699491 632.476198 
L 1091.239711 632.476198 
" clip-path="url(#p8c92dc2295)" style="fill: none; stroke: #ff7f0e; stroke-width: 1.5; stroke-linecap: square"/>
   </g>
   <g id="line2d_39">
    <path d="M 92.033938 644.578423 
L 100.574158 644.578423 
L 109.114379 644.578423 
L 117.654599 644.578423 
L 126.194819 644.578423 
" clip-path="url(#p8c92dc2295)" style="fill: none; stroke: #2ca02c; stroke-width: 1.5; stroke-linecap: square"/>
   </g>
   <g id="line2d_40">
    <path d="M 92.033938 644.578423 
L 100.574158 644.578423 
L 109.114379 644.578423 
L 117.654599 644.578423 
L 126.194819 644.578423 
" clip-path="url(#p8c92dc2295)" style="fill: none; stroke: #d62728; stroke-width: 1.5; stroke-linecap: square"/>
   </g>
   <g id="line2d_41">
    <path d="M 92.033938 633.988976 
L 100.574158 633.988976 
L 109.114379 633.988976 
L 117.654599 633.988976 
L 126.194819 633.988976 
L 134.73504 633.988976 
L 143.27526 633.988976 
L 151.81548 633.988976 
L 160.3557 638.527311 
L 168.895921 638.527311 
L 177.436141 638.527311 
L 185.976361 638.527311 
L 194.516581 638.527311 
L 203.056802 638.527311 
L 211.597022 643.822034 
L 220.137242 643.822034 
L 228.677463 643.822034 
L 237.217683 643.822034 
L 245.757903 643.822034 
L 254.298123 643.822034 
L 262.838344 643.822034 
L 271.378564 643.822034 
L 279.918784 643.822034 
L 288.459005 643.822034 
L 296.999225 643.822034 
L 305.539445 643.822034 
L 314.079665 644.578423 
L 322.619886 644.578423 
L 331.160106 644.578423 
L 339.700326 644.578423 
L 348.240547 644.578423 
L 356.780767 644.578423 
L 365.320987 644.578423 
L 373.861207 644.578423 
L 382.401428 644.578423 
L 390.941648 644.578423 
L 399.481868 644.578423 
L 408.022089 644.578423 
L 416.562309 644.578423 
L 425.102529 644.578423 
L 433.642749 644.578423 
L 442.18297 644.578423 
L 450.72319 644.578423 
L 459.26341 644.578423 
L 467.803631 644.578423 
L 476.343851 644.578423 
L 484.884071 644.578423 
L 493.424291 644.578423 
L 501.964512 644.578423 
L 510.504732 644.578423 
L 519.044952 644.578423 
L 527.585173 644.578423 
L 536.125393 644.578423 
L 544.665613 644.578423 
L 553.205833 644.578423 
L 561.746054 644.578423 
L 570.286274 644.578423 
L 578.826494 644.578423 
L 587.366715 644.578423 
L 595.906935 644.578423 
" clip-path="url(#p8c92dc2295)" style="fill: none; stroke: #9467bd; stroke-width: 1.5; stroke-linecap: square"/>
   </g>
   <g id="line2d_42">
    <path d="M 92.033938 638.527311 
L 100.574158 638.527311 
L 109.114379 638.527311 
L 117.654599 638.527311 
L 126.194819 638.527311 
L 134.73504 638.527311 
L 143.27526 640.796478 
L 151.81548 643.822034 
" clip-path="url(#p8c92dc2295)" style="fill: none; stroke: #8c564b; stroke-width: 1.5; stroke-linecap: square"/>
   </g>
   <g id="line2d_43">
    <path d="M 254.298123 674.758348 
L 254.298123 10.8 
" clip-path="url(#p8c92dc2295)" style="fill: none; stroke-dasharray: 5.55,2.4; stroke-dashoffset: 0; stroke: #ff0000; stroke-width: 1.5"/>
   </g>
   <g id="patch_3">
    <path d="M 42.073649 674.758348 
L 42.073649 10.8 
" style="fill: none; stroke: #000000; stroke-width: 0.8; stroke-linejoin: miter; stroke-linecap: square"/>
   </g>
   <g id="patch_4">
    <path d="M 1141.2 674.758348 
L 1141.2 10.8 
" style="fill: none; stroke: #000000; stroke-width: 0.8; stroke-linejoin: miter; stroke-linecap: square"/>
   </g>
   <g id="patch_5">
    <path d="M 42.073649 674.758348 
L 1141.2 674.758348 
" style="fill: none; stroke: #000000; stroke-width: 0.8; stroke-linejoin: miter; stroke-linecap: square"/>
   </g>
   <g id="patch_6">
    <path d="M 42.073649 10.8 
L 1141.2 10.8 
" style="fill: none; stroke: #000000; stroke-width: 0.8; stroke-linejoin: miter; stroke-linecap: square"/>
   </g>
   <g id="patch_7">
    <path d="M 272.749208 485.050296 
Q 264.335962 457.762837 255.922716 430.475378 
L 252.100274 431.653911 
Q 253.199199 425.035997 254.298123 418.418084 
Q 258.932861 423.268199 263.567599 428.118314 
L 259.745157 429.296846 
Q 268.158404 456.584305 276.57165 483.871764 
L 272.749208 485.050296 
z
" style="fill: #ff0000; stroke: #000000; stroke-linecap: round"/>
   </g>
   <g id="text_19">
    <!-- Added uploaders data -->
    <g style="fill: #ff0000" transform="translate(220.137242 494.056993)scale(0.1 -0.1)">
     <defs>
      <path id="DejaVuSans-41" d="M 2188 4044 
L 1331 1722 
L 3047 1722 
L 2188 4044 
z
M 1831 4666 
L 2547 4666 
L 4325 0 
L 3669 0 
L 3244 1197 
L 1141 1197 
L 716 0 
L 50 0 
L 1831 4666 
z
" transform="scale(0.015625)"/>
      <path id="DejaVuSans-64" d="M 2906 2969 
L 2906 4863 
L 3481 4863 
L 3481 0 
L 2906 0 
L 2906 525 
Q 2725 213 2448 61 
Q 2172 -91 1784 -91 
Q 1150 -91 751 415 
Q 353 922 353 1747 
Q 353 2572 751 3078 
Q 1150 3584 1784 3584 
Q 2172 3584 2448 3432 
Q 2725 3281 2906 2969 
z
M 947 1747 
Q 947 1113 1208 752 
Q 1469 391 1925 391 
Q 2381 391 2643 752 
Q 2906 1113 2906 1747 
Q 2906 2381 2643 2742 
Q 2381 3103 1925 3103 
Q 1469 3103 1208 2742 
Q 947 2381 947 1747 
z
" transform="scale(0.015625)"/>
      <path id="DejaVuSans-65" d="M 3597 1894 
L 3597 1613 
L 953 1613 
Q 991 1019 1311 708 
Q 1631 397 2203 397 
Q 2534 397 2845 478 
Q 3156 559 3463 722 
L 3463 178 
Q 3153 47 2828 -22 
Q 2503 -91 2169 -91 
Q 1331 -91 842 396 
Q 353 884 353 1716 
Q 353 2575 817 3079 
Q 1281 3584 2069 3584 
Q 2775 3584 3186 3129 
Q 3597 2675 3597 1894 
z
M 3022 2063 
Q 3016 2534 2758 2815 
Q 2500 3097 2075 3097 
Q 1594 3097 1305 2825 
Q 1016 2553 972 2059 
L 3022 2063 
z
" transform="scale(0.015625)"/>
      <path id="DejaVuSans-20" transform="scale(0.015625)"/>
      <path id="DejaVuSans-75" d="M 544 1381 
L 544 3500 
L 1119 3500 
L 1119 1403 
Q 1119 906 1312 657 
Q 1506 409 1894 409 
Q 2359 409 2629 706 
Q 2900 1003 2900 1516 
L 2900 3500 
L 3475 3500 
L 3475 0 
L 2900 0 
L 2900 538 
Q 2691 219 2414 64 
Q 2138 -91 1772 -91 
Q 1169 -91 856 284 
Q 544 659 544 1381 
z
M 1991 3584 
L 1991 3584 
z
" transform="scale(0.015625)"/>
      <path id="DejaVuSans-70" d="M 1159 525 
L 1159 -1331 
L 581 -1331 
L 581 3500 
L 1159 3500 
L 1159 2969 
Q 1341 3281 1617 3432 
Q 1894 3584 2278 3584 
Q 2916 3584 3314 3078 
Q 3713 2572 3713 1747 
Q 3713 922 3314 415 
Q 2916 -91 2278 -91 
Q 1894 -91 1617 61 
Q 1341 213 1159 525 
z
M 3116 1747 
Q 3116 2381 2855 2742 
Q 2594 3103 2138 3103 
Q 1681 3103 1420 2742 
Q 1159 2381 1159 1747 
Q 1159 1113 1420 752 
Q 1681 391 2138 391 
Q 2594 391 2855 752 
Q 3116 1113 3116 1747 
z
" transform="scale(0.015625)"/>
      <path id="DejaVuSans-6c" d="M 603 4863 
L 1178 4863 
L 1178 0 
L 603 0 
L 603 4863 
z
" transform="scale(0.015625)"/>
      <path id="DejaVuSans-6f" d="M 1959 3097 
Q 1497 3097 1228 2736 
Q 959 2375 959 1747 
Q 959 1119 1226 758 
Q 1494 397 1959 397 
Q 2419 397 2687 759 
Q 2956 1122 2956 1747 
Q 2956 2369 2687 2733 
Q 2419 3097 1959 3097 
z
M 1959 3584 
Q 2709 3584 3137 3096 
Q 3566 2609 3566 1747 
Q 3566 888 3137 398 
Q 2709 -91 1959 -91 
Q 1206 -91 779 398 
Q 353 888 353 1747 
Q 353 2609 779 3096 
Q 1206 3584 1959 3584 
z
" transform="scale(0.015625)"/>
      <path id="DejaVuSans-61" d="M 2194 1759 
Q 1497 1759 1228 1600 
Q 959 1441 959 1056 
Q 959 750 1161 570 
Q 1363 391 1709 391 
Q 2188 391 2477 730 
Q 2766 1069 2766 1631 
L 2766 1759 
L 2194 1759 
z
M 3341 1997 
L 3341 0 
L 2766 0 
L 2766 531 
Q 2569 213 2275 61 
Q 1981 -91 1556 -91 
Q 1019 -91 701 211 
Q 384 513 384 1019 
Q 384 1609 779 1909 
Q 1175 2209 1959 2209 
L 2766 2209 
L 2766 2266 
Q 2766 2663 2505 2880 
Q 2244 3097 1772 3097 
Q 1472 3097 1187 3025 
Q 903 2953 641 2809 
L 641 3341 
Q 956 3463 1253 3523 
Q 1550 3584 1831 3584 
Q 2591 3584 2966 3190 
Q 3341 2797 3341 1997 
z
" transform="scale(0.015625)"/>
      <path id="DejaVuSans-72" d="M 2631 2963 
Q 2534 3019 2420 3045 
Q 2306 3072 2169 3072 
Q 1681 3072 1420 2755 
Q 1159 2438 1159 1844 
L 1159 0 
L 581 0 
L 581 3500 
L 1159 3500 
L 1159 2956 
Q 1341 3275 1631 3429 
Q 1922 3584 2338 3584 
Q 2397 3584 2469 3576 
Q 2541 3569 2628 3553 
L 2631 2963 
z
" transform="scale(0.015625)"/>
      <path id="DejaVuSans-73" d="M 2834 3397 
L 2834 2853 
Q 2591 2978 2328 3040 
Q 2066 3103 1784 3103 
Q 1356 3103 1142 2972 
Q 928 2841 928 2578 
Q 928 2378 1081 2264 
Q 1234 2150 1697 2047 
L 1894 2003 
Q 2506 1872 2764 1633 
Q 3022 1394 3022 966 
Q 3022 478 2636 193 
Q 2250 -91 1575 -91 
Q 1294 -91 989 -36 
Q 684 19 347 128 
L 347 722 
Q 666 556 975 473 
Q 1284 391 1588 391 
Q 1994 391 2212 530 
Q 2431 669 2431 922 
Q 2431 1156 2273 1281 
Q 2116 1406 1581 1522 
L 1381 1569 
Q 847 1681 609 1914 
Q 372 2147 372 2553 
Q 372 3047 722 3315 
Q 1072 3584 1716 3584 
Q 2034 3584 2315 3537 
Q 2597 3491 2834 3397 
z
" transform="scale(0.015625)"/>
      <path id="DejaVuSans-74" d="M 1172 4494 
L 1172 3500 
L 2356 3500 
L 2356 3053 
L 1172 3053 
L 1172 1153 
Q 1172 725 1289 603 
Q 1406 481 1766 481 
L 2356 481 
L 2356 0 
L 1766 0 
Q 1100 0 847 248 
Q 594 497 594 1153 
L 594 3053 
L 172 3053 
L 172 3500 
L 594 3500 
L 594 4494 
L 1172 4494 
z
" transform="scale(0.015625)"/>
     </defs>
     <use xlink:href="#DejaVuSans-41"/>
     <use xlink:href="#DejaVuSans-64" x="66.658203"/>
     <use xlink:href="#DejaVuSans-64" x="130.134766"/>
     <use xlink:href="#DejaVuSans-65" x="193.611328"/>
     <use xlink:href="#DejaVuSans-64" x="255.134766"/>
     <use xlink:href="#DejaVuSans-20" x="318.611328"/>
     <use xlink:href="#DejaVuSans-75" x="350.398438"/>
     <use xlink:href="#DejaVuSans-70" x="413.777344"/>
     <use xlink:href="#DejaVuSans-6c" x="477.253906"/>
     <use xlink:href="#DejaVuSans-6f" x="505.037109"/>
     <use xlink:href="#DejaVuSans-61" x="566.21875"/>
     <use xlink:href="#DejaVuSans-64" x="627.498047"/>
     <use xlink:href="#DejaVuSans-65" x="690.974609"/>
     <use xlink:href="#DejaVuSans-72" x="752.498047"/>
     <use xlink:href="#DejaVuSans-73" x="793.611328"/>
     <use xlink:href="#DejaVuSans-20" x="845.710938"/>
     <use xlink:href="#DejaVuSans-64" x="877.498047"/>
     <use xlink:href="#DejaVuSans-61" x="940.974609"/>
     <use xlink:href="#DejaVuSans-74" x="1002.253906"/>
     <use xlink:href="#DejaVuSans-61" x="1041.462891"/>
    </g>
   </g>
   <g id="legend_1">
    <g id="patch_8">
     <path d="M 49.073649 395.652612 
L 339.954899 395.652612 
Q 341.954899 395.652612 341.954899 393.652612 
L 341.954899 291.905737 
Q 341.954899 289.905737 339.954899 289.905737 
L 49.073649 289.905737 
Q 47.073649 289.905737 47.073649 291.905737 
L 47.073649 393.652612 
Q 47.073649 395.652612 49.073649 395.652612 
z
" style="fill: #ffffff; opacity: 0.8; stroke: #cccccc; stroke-linejoin: miter"/>
    </g>
    <g id="patch_9">
     <path d="M 51.073649 301.504174 
L 71.073649 301.504174 
L 71.073649 294.504174 
L 51.073649 294.504174 
L 51.073649 301.504174 
z
" style="fill: none; opacity: 0"/>
    </g>
    <g id="text_20">
     <!-- team+python@tracker.debian.org (1251) -->
     <g transform="translate(79.073649 301.504174)scale(0.1 -0.1)">
      <defs>
       <path id="DejaVuSans-6d" d="M 3328 2828 
Q 3544 3216 3844 3400 
Q 4144 3584 4550 3584 
Q 5097 3584 5394 3201 
Q 5691 2819 5691 2113 
L 5691 0 
L 5113 0 
L 5113 2094 
Q 5113 2597 4934 2840 
Q 4756 3084 4391 3084 
Q 3944 3084 3684 2787 
Q 3425 2491 3425 1978 
L 3425 0 
L 2847 0 
L 2847 2094 
Q 2847 2600 2669 2842 
Q 2491 3084 2119 3084 
Q 1678 3084 1418 2786 
Q 1159 2488 1159 1978 
L 1159 0 
L 581 0 
L 581 3500 
L 1159 3500 
L 1159 2956 
Q 1356 3278 1631 3431 
Q 1906 3584 2284 3584 
Q 2666 3584 2933 3390 
Q 3200 3197 3328 2828 
z
" transform="scale(0.015625)"/>
       <path id="DejaVuSans-2b" d="M 2944 4013 
L 2944 2272 
L 4684 2272 
L 4684 1741 
L 2944 1741 
L 2944 0 
L 2419 0 
L 2419 1741 
L 678 1741 
L 678 2272 
L 2419 2272 
L 2419 4013 
L 2944 4013 
z
" transform="scale(0.015625)"/>
       <path id="DejaVuSans-79" d="M 2059 -325 
Q 1816 -950 1584 -1140 
Q 1353 -1331 966 -1331 
L 506 -1331 
L 506 -850 
L 844 -850 
Q 1081 -850 1212 -737 
Q 1344 -625 1503 -206 
L 1606 56 
L 191 3500 
L 800 3500 
L 1894 763 
L 2988 3500 
L 3597 3500 
L 2059 -325 
z
" transform="scale(0.015625)"/>
       <path id="DejaVuSans-68" d="M 3513 2113 
L 3513 0 
L 2938 0 
L 2938 2094 
Q 2938 2591 2744 2837 
Q 2550 3084 2163 3084 
Q 1697 3084 1428 2787 
Q 1159 2491 1159 1978 
L 1159 0 
L 581 0 
L 581 4863 
L 1159 4863 
L 1159 2956 
Q 1366 3272 1645 3428 
Q 1925 3584 2291 3584 
Q 2894 3584 3203 3211 
Q 3513 2838 3513 2113 
z
" transform="scale(0.015625)"/>
       <path id="DejaVuSans-6e" d="M 3513 2113 
L 3513 0 
L 2938 0 
L 2938 2094 
Q 2938 2591 2744 2837 
Q 2550 3084 2163 3084 
Q 1697 3084 1428 2787 
Q 1159 2491 1159 1978 
L 1159 0 
L 581 0 
L 581 3500 
L 1159 3500 
L 1159 2956 
Q 1366 3272 1645 3428 
Q 1925 3584 2291 3584 
Q 2894 3584 3203 3211 
Q 3513 2838 3513 2113 
z
" transform="scale(0.015625)"/>
       <path id="DejaVuSans-40" d="M 2381 1678 
Q 2381 1231 2603 976 
Q 2825 722 3213 722 
Q 3597 722 3817 978 
Q 4038 1234 4038 1678 
Q 4038 2116 3813 2373 
Q 3588 2631 3206 2631 
Q 2828 2631 2604 2375 
Q 2381 2119 2381 1678 
z
M 4084 744 
Q 3897 503 3655 389 
Q 3413 275 3091 275 
Q 2553 275 2217 664 
Q 1881 1053 1881 1678 
Q 1881 2303 2218 2693 
Q 2556 3084 3091 3084 
Q 3413 3084 3656 2967 
Q 3900 2850 4084 2613 
L 4084 3022 
L 4531 3022 
L 4531 722 
Q 4988 791 5245 1139 
Q 5503 1488 5503 2041 
Q 5503 2375 5404 2669 
Q 5306 2963 5106 3213 
Q 4781 3622 4314 3839 
Q 3847 4056 3297 4056 
Q 2913 4056 2559 3954 
Q 2206 3853 1906 3653 
Q 1416 3334 1139 2817 
Q 863 2300 863 1697 
Q 863 1200 1042 765 
Q 1222 331 1563 0 
Q 1891 -325 2322 -495 
Q 2753 -666 3244 -666 
Q 3647 -666 4036 -530 
Q 4425 -394 4750 -141 
L 5031 -488 
Q 4641 -791 4180 -952 
Q 3719 -1113 3244 -1113 
Q 2666 -1113 2153 -908 
Q 1641 -703 1241 -313 
Q 841 78 631 592 
Q 422 1106 422 1697 
Q 422 2266 634 2781 
Q 847 3297 1241 3688 
Q 1644 4084 2172 4295 
Q 2700 4506 3291 4506 
Q 3953 4506 4520 4234 
Q 5088 3963 5472 3463 
Q 5706 3156 5829 2797 
Q 5953 2438 5953 2053 
Q 5953 1231 5456 756 
Q 4959 281 4084 263 
L 4084 744 
z
" transform="scale(0.015625)"/>
       <path id="DejaVuSans-63" d="M 3122 3366 
L 3122 2828 
Q 2878 2963 2633 3030 
Q 2388 3097 2138 3097 
Q 1578 3097 1268 2742 
Q 959 2388 959 1747 
Q 959 1106 1268 751 
Q 1578 397 2138 397 
Q 2388 397 2633 464 
Q 2878 531 3122 666 
L 3122 134 
Q 2881 22 2623 -34 
Q 2366 -91 2075 -91 
Q 1284 -91 818 406 
Q 353 903 353 1747 
Q 353 2603 823 3093 
Q 1294 3584 2113 3584 
Q 2378 3584 2631 3529 
Q 2884 3475 3122 3366 
z
" transform="scale(0.015625)"/>
       <path id="DejaVuSans-6b" d="M 581 4863 
L 1159 4863 
L 1159 1991 
L 2875 3500 
L 3609 3500 
L 1753 1863 
L 3688 0 
L 2938 0 
L 1159 1709 
L 1159 0 
L 581 0 
L 581 4863 
z
" transform="scale(0.015625)"/>
       <path id="DejaVuSans-2e" d="M 684 794 
L 1344 794 
L 1344 0 
L 684 0 
L 684 794 
z
" transform="scale(0.015625)"/>
       <path id="DejaVuSans-62" d="M 3116 1747 
Q 3116 2381 2855 2742 
Q 2594 3103 2138 3103 
Q 1681 3103 1420 2742 
Q 1159 2381 1159 1747 
Q 1159 1113 1420 752 
Q 1681 391 2138 391 
Q 2594 391 2855 752 
Q 3116 1113 3116 1747 
z
M 1159 2969 
Q 1341 3281 1617 3432 
Q 1894 3584 2278 3584 
Q 2916 3584 3314 3078 
Q 3713 2572 3713 1747 
Q 3713 922 3314 415 
Q 2916 -91 2278 -91 
Q 1894 -91 1617 61 
Q 1341 213 1159 525 
L 1159 0 
L 581 0 
L 581 4863 
L 1159 4863 
L 1159 2969 
z
" transform="scale(0.015625)"/>
       <path id="DejaVuSans-69" d="M 603 3500 
L 1178 3500 
L 1178 0 
L 603 0 
L 603 3500 
z
M 603 4863 
L 1178 4863 
L 1178 4134 
L 603 4134 
L 603 4863 
z
" transform="scale(0.015625)"/>
       <path id="DejaVuSans-67" d="M 2906 1791 
Q 2906 2416 2648 2759 
Q 2391 3103 1925 3103 
Q 1463 3103 1205 2759 
Q 947 2416 947 1791 
Q 947 1169 1205 825 
Q 1463 481 1925 481 
Q 2391 481 2648 825 
Q 2906 1169 2906 1791 
z
M 3481 434 
Q 3481 -459 3084 -895 
Q 2688 -1331 1869 -1331 
Q 1566 -1331 1297 -1286 
Q 1028 -1241 775 -1147 
L 775 -588 
Q 1028 -725 1275 -790 
Q 1522 -856 1778 -856 
Q 2344 -856 2625 -561 
Q 2906 -266 2906 331 
L 2906 616 
Q 2728 306 2450 153 
Q 2172 0 1784 0 
Q 1141 0 747 490 
Q 353 981 353 1791 
Q 353 2603 747 3093 
Q 1141 3584 1784 3584 
Q 2172 3584 2450 3431 
Q 2728 3278 2906 2969 
L 2906 3500 
L 3481 3500 
L 3481 434 
z
" transform="scale(0.015625)"/>
       <path id="DejaVuSans-28" d="M 1984 4856 
Q 1566 4138 1362 3434 
Q 1159 2731 1159 2009 
Q 1159 1288 1364 580 
Q 1569 -128 1984 -844 
L 1484 -844 
Q 1016 -109 783 600 
Q 550 1309 550 2009 
Q 550 2706 781 3412 
Q 1013 4119 1484 4856 
L 1984 4856 
z
" transform="scale(0.015625)"/>
       <path id="DejaVuSans-29" d="M 513 4856 
L 1013 4856 
Q 1481 4119 1714 3412 
Q 1947 2706 1947 2009 
Q 1947 1309 1714 600 
Q 1481 -109 1013 -844 
L 513 -844 
Q 928 -128 1133 580 
Q 1338 1288 1338 2009 
Q 1338 2731 1133 3434 
Q 928 4138 513 4856 
z
" transform="scale(0.015625)"/>
      </defs>
      <use xlink:href="#DejaVuSans-74"/>
      <use xlink:href="#DejaVuSans-65" x="39.208984"/>
      <use xlink:href="#DejaVuSans-61" x="100.732422"/>
      <use xlink:href="#DejaVuSans-6d" x="162.011719"/>
      <use xlink:href="#DejaVuSans-2b" x="259.423828"/>
      <use xlink:href="#DejaVuSans-70" x="343.212891"/>
      <use xlink:href="#DejaVuSans-79" x="406.689453"/>
      <use xlink:href="#DejaVuSans-74" x="465.869141"/>
      <use xlink:href="#DejaVuSans-68" x="505.078125"/>
      <use xlink:href="#DejaVuSans-6f" x="568.457031"/>
      <use xlink:href="#DejaVuSans-6e" x="629.638672"/>
      <use xlink:href="#DejaVuSans-40" x="693.017578"/>
      <use xlink:href="#DejaVuSans-74" x="793.017578"/>
      <use xlink:href="#DejaVuSans-72" x="832.226562"/>
      <use xlink:href="#DejaVuSans-61" x="873.339844"/>
      <use xlink:href="#DejaVuSans-63" x="934.619141"/>
      <use xlink:href="#DejaVuSans-6b" x="989.599609"/>
      <use xlink:href="#DejaVuSans-65" x="1043.884766"/>
      <use xlink:href="#DejaVuSans-72" x="1105.408203"/>
      <use xlink:href="#DejaVuSans-2e" x="1137.396484"/>
      <use xlink:href="#DejaVuSans-64" x="1169.183594"/>
      <use xlink:href="#DejaVuSans-65" x="1232.660156"/>
      <use xlink:href="#DejaVuSans-62" x="1294.183594"/>
      <use xlink:href="#DejaVuSans-69" x="1357.660156"/>
      <use xlink:href="#DejaVuSans-61" x="1385.443359"/>
      <use xlink:href="#DejaVuSans-6e" x="1446.722656"/>
      <use xlink:href="#DejaVuSans-2e" x="1510.101562"/>
      <use xlink:href="#DejaVuSans-6f" x="1541.888672"/>
      <use xlink:href="#DejaVuSans-72" x="1603.070312"/>
      <use xlink:href="#DejaVuSans-67" x="1642.433594"/>
      <use xlink:href="#DejaVuSans-20" x="1705.910156"/>
      <use xlink:href="#DejaVuSans-28" x="1737.697266"/>
      <use xlink:href="#DejaVuSans-31" x="1776.710938"/>
      <use xlink:href="#DejaVuSans-32" x="1840.333984"/>
      <use xlink:href="#DejaVuSans-35" x="1903.957031"/>
      <use xlink:href="#DejaVuSans-31" x="1967.580078"/>
      <use xlink:href="#DejaVuSans-29" x="2031.203125"/>
     </g>
    </g>
    <g id="line2d_44">
     <path d="M 51.073649 312.682299 
L 61.073649 312.682299 
L 71.073649 312.682299 
" style="fill: none; stroke: #1f77b4; stroke-width: 1.5; stroke-linecap: square"/>
    </g>
    <g id="text_21">
     <!-- python-modules-team@lists.alioth.debian.org (590) -->
     <g transform="translate(79.073649 316.182299)scale(0.1 -0.1)">
      <use xlink:href="#DejaVuSans-70"/>
      <use xlink:href="#DejaVuSans-79" x="63.476562"/>
      <use xlink:href="#DejaVuSans-74" x="122.65625"/>
      <use xlink:href="#DejaVuSans-68" x="161.865234"/>
      <use xlink:href="#DejaVuSans-6f" x="225.244141"/>
      <use xlink:href="#DejaVuSans-6e" x="286.425781"/>
      <use xlink:href="#DejaVuSans-2d" x="349.804688"/>
      <use xlink:href="#DejaVuSans-6d" x="385.888672"/>
      <use xlink:href="#DejaVuSans-6f" x="483.300781"/>
      <use xlink:href="#DejaVuSans-64" x="544.482422"/>
      <use xlink:href="#DejaVuSans-75" x="607.958984"/>
      <use xlink:href="#DejaVuSans-6c" x="671.337891"/>
      <use xlink:href="#DejaVuSans-65" x="699.121094"/>
      <use xlink:href="#DejaVuSans-73" x="760.644531"/>
      <use xlink:href="#DejaVuSans-2d" x="812.744141"/>
      <use xlink:href="#DejaVuSans-74" x="848.828125"/>
      <use xlink:href="#DejaVuSans-65" x="888.037109"/>
      <use xlink:href="#DejaVuSans-61" x="949.560547"/>
      <use xlink:href="#DejaVuSans-6d" x="1010.839844"/>
      <use xlink:href="#DejaVuSans-40" x="1108.251953"/>
      <use xlink:href="#DejaVuSans-6c" x="1208.251953"/>
      <use xlink:href="#DejaVuSans-69" x="1236.035156"/>
      <use xlink:href="#DejaVuSans-73" x="1263.818359"/>
      <use xlink:href="#DejaVuSans-74" x="1315.917969"/>
      <use xlink:href="#DejaVuSans-73" x="1355.126953"/>
      <use xlink:href="#DejaVuSans-2e" x="1407.226562"/>
      <use xlink:href="#DejaVuSans-61" x="1439.013672"/>
      <use xlink:href="#DejaVuSans-6c" x="1500.292969"/>
      <use xlink:href="#DejaVuSans-69" x="1528.076172"/>
      <use xlink:href="#DejaVuSans-6f" x="1555.859375"/>
      <use xlink:href="#DejaVuSans-74" x="1617.041016"/>
      <use xlink:href="#DejaVuSans-68" x="1656.25"/>
      <use xlink:href="#DejaVuSans-2e" x="1719.628906"/>
      <use xlink:href="#DejaVuSans-64" x="1751.416016"/>
      <use xlink:href="#DejaVuSans-65" x="1814.892578"/>
      <use xlink:href="#DejaVuSans-62" x="1876.416016"/>
      <use xlink:href="#DejaVuSans-69" x="1939.892578"/>
      <use xlink:href="#DejaVuSans-61" x="1967.675781"/>
      <use xlink:href="#DejaVuSans-6e" x="2028.955078"/>
      <use xlink:href="#DejaVuSans-2e" x="2092.333984"/>
      <use xlink:href="#DejaVuSans-6f" x="2124.121094"/>
      <use xlink:href="#DejaVuSans-72" x="2185.302734"/>
      <use xlink:href="#DejaVuSans-67" x="2224.666016"/>
      <use xlink:href="#DejaVuSans-20" x="2288.142578"/>
      <use xlink:href="#DejaVuSans-28" x="2319.929688"/>
      <use xlink:href="#DejaVuSans-35" x="2358.943359"/>
      <use xlink:href="#DejaVuSans-39" x="2422.566406"/>
      <use xlink:href="#DejaVuSans-30" x="2486.189453"/>
      <use xlink:href="#DejaVuSans-29" x="2549.8125"/>
     </g>
    </g>
    <g id="line2d_45">
     <path d="M 51.073649 327.360424 
L 61.073649 327.360424 
L 71.073649 327.360424 
" style="fill: none; stroke: #ff7f0e; stroke-width: 1.5; stroke-linecap: square"/>
    </g>
    <g id="text_22">
     <!-- python-apps-team@lists.alioth.debian.org (17) -->
     <g transform="translate(79.073649 330.860424)scale(0.1 -0.1)">
      <use xlink:href="#DejaVuSans-70"/>
      <use xlink:href="#DejaVuSans-79" x="63.476562"/>
      <use xlink:href="#DejaVuSans-74" x="122.65625"/>
      <use xlink:href="#DejaVuSans-68" x="161.865234"/>
      <use xlink:href="#DejaVuSans-6f" x="225.244141"/>
      <use xlink:href="#DejaVuSans-6e" x="286.425781"/>
      <use xlink:href="#DejaVuSans-2d" x="349.804688"/>
      <use xlink:href="#DejaVuSans-61" x="385.888672"/>
      <use xlink:href="#DejaVuSans-70" x="447.167969"/>
      <use xlink:href="#DejaVuSans-70" x="510.644531"/>
      <use xlink:href="#DejaVuSans-73" x="574.121094"/>
      <use xlink:href="#DejaVuSans-2d" x="626.220703"/>
      <use xlink:href="#DejaVuSans-74" x="662.304688"/>
      <use xlink:href="#DejaVuSans-65" x="701.513672"/>
      <use xlink:href="#DejaVuSans-61" x="763.037109"/>
      <use xlink:href="#DejaVuSans-6d" x="824.316406"/>
      <use xlink:href="#DejaVuSans-40" x="921.728516"/>
      <use xlink:href="#DejaVuSans-6c" x="1021.728516"/>
      <use xlink:href="#DejaVuSans-69" x="1049.511719"/>
      <use xlink:href="#DejaVuSans-73" x="1077.294922"/>
      <use xlink:href="#DejaVuSans-74" x="1129.394531"/>
      <use xlink:href="#DejaVuSans-73" x="1168.603516"/>
      <use xlink:href="#DejaVuSans-2e" x="1220.703125"/>
      <use xlink:href="#DejaVuSans-61" x="1252.490234"/>
      <use xlink:href="#DejaVuSans-6c" x="1313.769531"/>
      <use xlink:href="#DejaVuSans-69" x="1341.552734"/>
      <use xlink:href="#DejaVuSans-6f" x="1369.335938"/>
      <use xlink:href="#DejaVuSans-74" x="1430.517578"/>
      <use xlink:href="#DejaVuSans-68" x="1469.726562"/>
      <use xlink:href="#DejaVuSans-2e" x="1533.105469"/>
      <use xlink:href="#DejaVuSans-64" x="1564.892578"/>
      <use xlink:href="#DejaVuSans-65" x="1628.369141"/>
      <use xlink:href="#DejaVuSans-62" x="1689.892578"/>
      <use xlink:href="#DejaVuSans-69" x="1753.369141"/>
      <use xlink:href="#DejaVuSans-61" x="1781.152344"/>
      <use xlink:href="#DejaVuSans-6e" x="1842.431641"/>
      <use xlink:href="#DejaVuSans-2e" x="1905.810547"/>
      <use xlink:href="#DejaVuSans-6f" x="1937.597656"/>
      <use xlink:href="#DejaVuSans-72" x="1998.779297"/>
      <use xlink:href="#DejaVuSans-67" x="2038.142578"/>
      <use xlink:href="#DejaVuSans-20" x="2101.619141"/>
      <use xlink:href="#DejaVuSans-28" x="2133.40625"/>
      <use xlink:href="#DejaVuSans-31" x="2172.419922"/>
      <use xlink:href="#DejaVuSans-37" x="2236.042969"/>
      <use xlink:href="#DejaVuSans-29" x="2299.666016"/>
     </g>
    </g>
    <g id="line2d_46">
     <path d="M 51.073649 342.038549 
L 61.073649 342.038549 
L 71.073649 342.038549 
" style="fill: none; stroke: #2ca02c; stroke-width: 1.5; stroke-linecap: square"/>
    </g>
    <g id="text_23">
     <!-- python-apps-team@alioth-lists.debian.net (0) -->
     <g transform="translate(79.073649 345.538549)scale(0.1 -0.1)">
      <use xlink:href="#DejaVuSans-70"/>
      <use xlink:href="#DejaVuSans-79" x="63.476562"/>
      <use xlink:href="#DejaVuSans-74" x="122.65625"/>
      <use xlink:href="#DejaVuSans-68" x="161.865234"/>
      <use xlink:href="#DejaVuSans-6f" x="225.244141"/>
      <use xlink:href="#DejaVuSans-6e" x="286.425781"/>
      <use xlink:href="#DejaVuSans-2d" x="349.804688"/>
      <use xlink:href="#DejaVuSans-61" x="385.888672"/>
      <use xlink:href="#DejaVuSans-70" x="447.167969"/>
      <use xlink:href="#DejaVuSans-70" x="510.644531"/>
      <use xlink:href="#DejaVuSans-73" x="574.121094"/>
      <use xlink:href="#DejaVuSans-2d" x="626.220703"/>
      <use xlink:href="#DejaVuSans-74" x="662.304688"/>
      <use xlink:href="#DejaVuSans-65" x="701.513672"/>
      <use xlink:href="#DejaVuSans-61" x="763.037109"/>
      <use xlink:href="#DejaVuSans-6d" x="824.316406"/>
      <use xlink:href="#DejaVuSans-40" x="921.728516"/>
      <use xlink:href="#DejaVuSans-61" x="1021.728516"/>
      <use xlink:href="#DejaVuSans-6c" x="1083.007812"/>
      <use xlink:href="#DejaVuSans-69" x="1110.791016"/>
      <use xlink:href="#DejaVuSans-6f" x="1138.574219"/>
      <use xlink:href="#DejaVuSans-74" x="1199.755859"/>
      <use xlink:href="#DejaVuSans-68" x="1238.964844"/>
      <use xlink:href="#DejaVuSans-2d" x="1302.34375"/>
      <use xlink:href="#DejaVuSans-6c" x="1338.427734"/>
      <use xlink:href="#DejaVuSans-69" x="1366.210938"/>
      <use xlink:href="#DejaVuSans-73" x="1393.994141"/>
      <use xlink:href="#DejaVuSans-74" x="1446.09375"/>
      <use xlink:href="#DejaVuSans-73" x="1485.302734"/>
      <use xlink:href="#DejaVuSans-2e" x="1537.402344"/>
      <use xlink:href="#DejaVuSans-64" x="1569.189453"/>
      <use xlink:href="#DejaVuSans-65" x="1632.666016"/>
      <use xlink:href="#DejaVuSans-62" x="1694.189453"/>
      <use xlink:href="#DejaVuSans-69" x="1757.666016"/>
      <use xlink:href="#DejaVuSans-61" x="1785.449219"/>
      <use xlink:href="#DejaVuSans-6e" x="1846.728516"/>
      <use xlink:href="#DejaVuSans-2e" x="1910.107422"/>
      <use xlink:href="#DejaVuSans-6e" x="1941.894531"/>
      <use xlink:href="#DejaVuSans-65" x="2005.273438"/>
      <use xlink:href="#DejaVuSans-74" x="2066.796875"/>
      <use xlink:href="#DejaVuSans-20" x="2106.005859"/>
      <use xlink:href="#DejaVuSans-28" x="2137.792969"/>
      <use xlink:href="#DejaVuSans-30" x="2176.806641"/>
      <use xlink:href="#DejaVuSans-29" x="2240.429688"/>
     </g>
    </g>
    <g id="line2d_47">
     <path d="M 51.073649 356.716674 
L 61.073649 356.716674 
L 71.073649 356.716674 
" style="fill: none; stroke: #d62728; stroke-width: 1.5; stroke-linecap: square"/>
    </g>
    <g id="text_24">
     <!-- python-apps-team@lists.alioth.debian.net (0) -->
     <g transform="translate(79.073649 360.216674)scale(0.1 -0.1)">
      <use xlink:href="#DejaVuSans-70"/>
      <use xlink:href="#DejaVuSans-79" x="63.476562"/>
      <use xlink:href="#DejaVuSans-74" x="122.65625"/>
      <use xlink:href="#DejaVuSans-68" x="161.865234"/>
      <use xlink:href="#DejaVuSans-6f" x="225.244141"/>
      <use xlink:href="#DejaVuSans-6e" x="286.425781"/>
      <use xlink:href="#DejaVuSans-2d" x="349.804688"/>
      <use xlink:href="#DejaVuSans-61" x="385.888672"/>
      <use xlink:href="#DejaVuSans-70" x="447.167969"/>
      <use xlink:href="#DejaVuSans-70" x="510.644531"/>
      <use xlink:href="#DejaVuSans-73" x="574.121094"/>
      <use xlink:href="#DejaVuSans-2d" x="626.220703"/>
      <use xlink:href="#DejaVuSans-74" x="662.304688"/>
      <use xlink:href="#DejaVuSans-65" x="701.513672"/>
      <use xlink:href="#DejaVuSans-61" x="763.037109"/>
      <use xlink:href="#DejaVuSans-6d" x="824.316406"/>
      <use xlink:href="#DejaVuSans-40" x="921.728516"/>
      <use xlink:href="#DejaVuSans-6c" x="1021.728516"/>
      <use xlink:href="#DejaVuSans-69" x="1049.511719"/>
      <use xlink:href="#DejaVuSans-73" x="1077.294922"/>
      <use xlink:href="#DejaVuSans-74" x="1129.394531"/>
      <use xlink:href="#DejaVuSans-73" x="1168.603516"/>
      <use xlink:href="#DejaVuSans-2e" x="1220.703125"/>
      <use xlink:href="#DejaVuSans-61" x="1252.490234"/>
      <use xlink:href="#DejaVuSans-6c" x="1313.769531"/>
      <use xlink:href="#DejaVuSans-69" x="1341.552734"/>
      <use xlink:href="#DejaVuSans-6f" x="1369.335938"/>
      <use xlink:href="#DejaVuSans-74" x="1430.517578"/>
      <use xlink:href="#DejaVuSans-68" x="1469.726562"/>
      <use xlink:href="#DejaVuSans-2e" x="1533.105469"/>
      <use xlink:href="#DejaVuSans-64" x="1564.892578"/>
      <use xlink:href="#DejaVuSans-65" x="1628.369141"/>
      <use xlink:href="#DejaVuSans-62" x="1689.892578"/>
      <use xlink:href="#DejaVuSans-69" x="1753.369141"/>
      <use xlink:href="#DejaVuSans-61" x="1781.152344"/>
      <use xlink:href="#DejaVuSans-6e" x="1842.431641"/>
      <use xlink:href="#DejaVuSans-2e" x="1905.810547"/>
      <use xlink:href="#DejaVuSans-6e" x="1937.597656"/>
      <use xlink:href="#DejaVuSans-65" x="2000.976562"/>
      <use xlink:href="#DejaVuSans-74" x="2062.5"/>
      <use xlink:href="#DejaVuSans-20" x="2101.708984"/>
      <use xlink:href="#DejaVuSans-28" x="2133.496094"/>
      <use xlink:href="#DejaVuSans-30" x="2172.509766"/>
      <use xlink:href="#DejaVuSans-29" x="2236.132812"/>
     </g>
    </g>
    <g id="line2d_48">
     <path d="M 51.073649 371.394799 
L 61.073649 371.394799 
L 71.073649 371.394799 
" style="fill: none; stroke: #9467bd; stroke-width: 1.5; stroke-linecap: square"/>
    </g>
    <g id="text_25">
     <!-- python-modules-team@alioth-lists.debian.net (0) -->
     <g transform="translate(79.073649 374.894799)scale(0.1 -0.1)">
      <use xlink:href="#DejaVuSans-70"/>
      <use xlink:href="#DejaVuSans-79" x="63.476562"/>
      <use xlink:href="#DejaVuSans-74" x="122.65625"/>
      <use xlink:href="#DejaVuSans-68" x="161.865234"/>
      <use xlink:href="#DejaVuSans-6f" x="225.244141"/>
      <use xlink:href="#DejaVuSans-6e" x="286.425781"/>
      <use xlink:href="#DejaVuSans-2d" x="349.804688"/>
      <use xlink:href="#DejaVuSans-6d" x="385.888672"/>
      <use xlink:href="#DejaVuSans-6f" x="483.300781"/>
      <use xlink:href="#DejaVuSans-64" x="544.482422"/>
      <use xlink:href="#DejaVuSans-75" x="607.958984"/>
      <use xlink:href="#DejaVuSans-6c" x="671.337891"/>
      <use xlink:href="#DejaVuSans-65" x="699.121094"/>
      <use xlink:href="#DejaVuSans-73" x="760.644531"/>
      <use xlink:href="#DejaVuSans-2d" x="812.744141"/>
      <use xlink:href="#DejaVuSans-74" x="848.828125"/>
      <use xlink:href="#DejaVuSans-65" x="888.037109"/>
      <use xlink:href="#DejaVuSans-61" x="949.560547"/>
      <use xlink:href="#DejaVuSans-6d" x="1010.839844"/>
      <use xlink:href="#DejaVuSans-40" x="1108.251953"/>
      <use xlink:href="#DejaVuSans-61" x="1208.251953"/>
      <use xlink:href="#DejaVuSans-6c" x="1269.53125"/>
      <use xlink:href="#DejaVuSans-69" x="1297.314453"/>
      <use xlink:href="#DejaVuSans-6f" x="1325.097656"/>
      <use xlink:href="#DejaVuSans-74" x="1386.279297"/>
      <use xlink:href="#DejaVuSans-68" x="1425.488281"/>
      <use xlink:href="#DejaVuSans-2d" x="1488.867188"/>
      <use xlink:href="#DejaVuSans-6c" x="1524.951172"/>
      <use xlink:href="#DejaVuSans-69" x="1552.734375"/>
      <use xlink:href="#DejaVuSans-73" x="1580.517578"/>
      <use xlink:href="#DejaVuSans-74" x="1632.617188"/>
      <use xlink:href="#DejaVuSans-73" x="1671.826172"/>
      <use xlink:href="#DejaVuSans-2e" x="1723.925781"/>
      <use xlink:href="#DejaVuSans-64" x="1755.712891"/>
      <use xlink:href="#DejaVuSans-65" x="1819.189453"/>
      <use xlink:href="#DejaVuSans-62" x="1880.712891"/>
      <use xlink:href="#DejaVuSans-69" x="1944.189453"/>
      <use xlink:href="#DejaVuSans-61" x="1971.972656"/>
      <use xlink:href="#DejaVuSans-6e" x="2033.251953"/>
      <use xlink:href="#DejaVuSans-2e" x="2096.630859"/>
      <use xlink:href="#DejaVuSans-6e" x="2128.417969"/>
      <use xlink:href="#DejaVuSans-65" x="2191.796875"/>
      <use xlink:href="#DejaVuSans-74" x="2253.320312"/>
      <use xlink:href="#DejaVuSans-20" x="2292.529297"/>
      <use xlink:href="#DejaVuSans-28" x="2324.316406"/>
      <use xlink:href="#DejaVuSans-30" x="2363.330078"/>
      <use xlink:href="#DejaVuSans-29" x="2426.953125"/>
     </g>
    </g>
    <g id="line2d_49">
     <path d="M 51.073649 386.072924 
L 61.073649 386.072924 
L 71.073649 386.072924 
" style="fill: none; stroke: #8c564b; stroke-width: 1.5; stroke-linecap: square"/>
    </g>
    <g id="text_26">
     <!-- team+python-modules@tracker.debian.org (0) -->
     <g transform="translate(79.073649 389.572924)scale(0.1 -0.1)">
      <use xlink:href="#DejaVuSans-74"/>
      <use xlink:href="#DejaVuSans-65" x="39.208984"/>
      <use xlink:href="#DejaVuSans-61" x="100.732422"/>
      <use xlink:href="#DejaVuSans-6d" x="162.011719"/>
      <use xlink:href="#DejaVuSans-2b" x="259.423828"/>
      <use xlink:href="#DejaVuSans-70" x="343.212891"/>
      <use xlink:href="#DejaVuSans-79" x="406.689453"/>
      <use xlink:href="#DejaVuSans-74" x="465.869141"/>
      <use xlink:href="#DejaVuSans-68" x="505.078125"/>
      <use xlink:href="#DejaVuSans-6f" x="568.457031"/>
      <use xlink:href="#DejaVuSans-6e" x="629.638672"/>
      <use xlink:href="#DejaVuSans-2d" x="693.017578"/>
      <use xlink:href="#DejaVuSans-6d" x="729.101562"/>
      <use xlink:href="#DejaVuSans-6f" x="826.513672"/>
      <use xlink:href="#DejaVuSans-64" x="887.695312"/>
      <use xlink:href="#DejaVuSans-75" x="951.171875"/>
      <use xlink:href="#DejaVuSans-6c" x="1014.550781"/>
      <use xlink:href="#DejaVuSans-65" x="1042.333984"/>
      <use xlink:href="#DejaVuSans-73" x="1103.857422"/>
      <use xlink:href="#DejaVuSans-40" x="1155.957031"/>
      <use xlink:href="#DejaVuSans-74" x="1255.957031"/>
      <use xlink:href="#DejaVuSans-72" x="1295.166016"/>
      <use xlink:href="#DejaVuSans-61" x="1336.279297"/>
      <use xlink:href="#DejaVuSans-63" x="1397.558594"/>
      <use xlink:href="#DejaVuSans-6b" x="1452.539062"/>
      <use xlink:href="#DejaVuSans-65" x="1506.824219"/>
      <use xlink:href="#DejaVuSans-72" x="1568.347656"/>
      <use xlink:href="#DejaVuSans-2e" x="1600.335938"/>
      <use xlink:href="#DejaVuSans-64" x="1632.123047"/>
      <use xlink:href="#DejaVuSans-65" x="1695.599609"/>
      <use xlink:href="#DejaVuSans-62" x="1757.123047"/>
      <use xlink:href="#DejaVuSans-69" x="1820.599609"/>
      <use xlink:href="#DejaVuSans-61" x="1848.382812"/>
      <use xlink:href="#DejaVuSans-6e" x="1909.662109"/>
      <use xlink:href="#DejaVuSans-2e" x="1973.041016"/>
      <use xlink:href="#DejaVuSans-6f" x="2004.828125"/>
      <use xlink:href="#DejaVuSans-72" x="2066.009766"/>
      <use xlink:href="#DejaVuSans-67" x="2105.373047"/>
      <use xlink:href="#DejaVuSans-20" x="2168.849609"/>
      <use xlink:href="#DejaVuSans-28" x="2200.636719"/>
      <use xlink:href="#DejaVuSans-30" x="2239.650391"/>
      <use xlink:href="#DejaVuSans-29" x="2303.273438"/>
     </g>
    </g>
   </g>
  </g>
 </g>
 <defs>
  <clipPath id="p8c92dc2295">
   <rect x="42.073649" y="10.8" width="1099.126351" height="663.958348"/>
  </clipPath>
 </defs>
</svg>
