<?xml version="1.0" encoding="utf-8" standalone="no"?>
<!DOCTYPE svg PUBLIC "-//W3C//DTD SVG 1.1//EN"
  "http://www.w3.org/Graphics/SVG/1.1/DTD/svg11.dtd">
<svg xmlns:xlink="http://www.w3.org/1999/xlink" width="1152pt" height="720pt" viewBox="0 0 1152 720" xmlns="http://www.w3.org/2000/svg" version="1.1">
 <metadata>
  <rdf:RDF xmlns:dc="http://purl.org/dc/elements/1.1/" xmlns:cc="http://creativecommons.org/ns#" xmlns:rdf="http://www.w3.org/1999/02/22-rdf-syntax-ns#">
   <cc:Work>
    <dc:type rdf:resource="http://purl.org/dc/dcmitype/StillImage"/>
    <dc:date>2022-03-06T06:39:34.288311</dc:date>
    <dc:format>image/svg+xml</dc:format>
    <dc:creator>
     <cc:Agent>
      <dc:title>Matplotlib v3.5.1, https://matplotlib.org/</dc:title>
     </cc:Agent>
    </dc:creator>
   </cc:Work>
  </rdf:RDF>
 </metadata>
 <defs>
  <style type="text/css">*{stroke-linejoin: round; stroke-linecap: butt}</style>
 </defs>
 <g id="figure_1">
  <g id="patch_1">
   <path d="M 0 720 
L 1152 720 
L 1152 0 
L 0 0 
z
" style="fill: #ffffff"/>
  </g>
  <g id="axes_1">
   <g id="patch_2">
    <path d="M 36.79 679.764424 
L 1141.2 679.764424 
L 1141.2 10.8 
L 36.79 10.8 
z
" style="fill: #ffffff"/>
   </g>
   <g id="matplotlib.axis_1">
    <g id="xtick_1">
     <g id="line2d_1">
      <path d="M 161.916506 679.764424 
L 161.916506 10.8 
" clip-path="url(#pdaa7f174d9)" style="fill: none; stroke: #b0b0b0; stroke-width: 0.8; stroke-linecap: square"/>
     </g>
     <g id="line2d_2">
      <defs>
       <path id="m8f259ea4f6" d="M 0 0 
L 0 3.5 
" style="stroke: #000000; stroke-width: 0.8"/>
      </defs>
      <g>
       <use xlink:href="#m8f259ea4f6" x="161.916506" y="679.764424" style="stroke: #000000; stroke-width: 0.8"/>
      </g>
     </g>
     <g id="text_1">
      <!-- 2021-09 -->
      <g transform="translate(121.536031 706.902566)rotate(-18)scale(0.1 -0.1)">
       <defs>
        <path id="DejaVuSans-32" d="M 1228 531 
L 3431 531 
L 3431 0 
L 469 0 
L 469 531 
Q 828 903 1448 1529 
Q 2069 2156 2228 2338 
Q 2531 2678 2651 2914 
Q 2772 3150 2772 3378 
Q 2772 3750 2511 3984 
Q 2250 4219 1831 4219 
Q 1534 4219 1204 4116 
Q 875 4013 500 3803 
L 500 4441 
Q 881 4594 1212 4672 
Q 1544 4750 1819 4750 
Q 2544 4750 2975 4387 
Q 3406 4025 3406 3419 
Q 3406 3131 3298 2873 
Q 3191 2616 2906 2266 
Q 2828 2175 2409 1742 
Q 1991 1309 1228 531 
z
" transform="scale(0.015625)"/>
        <path id="DejaVuSans-30" d="M 2034 4250 
Q 1547 4250 1301 3770 
Q 1056 3291 1056 2328 
Q 1056 1369 1301 889 
Q 1547 409 2034 409 
Q 2525 409 2770 889 
Q 3016 1369 3016 2328 
Q 3016 3291 2770 3770 
Q 2525 4250 2034 4250 
z
M 2034 4750 
Q 2819 4750 3233 4129 
Q 3647 3509 3647 2328 
Q 3647 1150 3233 529 
Q 2819 -91 2034 -91 
Q 1250 -91 836 529 
Q 422 1150 422 2328 
Q 422 3509 836 4129 
Q 1250 4750 2034 4750 
z
" transform="scale(0.015625)"/>
        <path id="DejaVuSans-31" d="M 794 531 
L 1825 531 
L 1825 4091 
L 703 3866 
L 703 4441 
L 1819 4666 
L 2450 4666 
L 2450 531 
L 3481 531 
L 3481 0 
L 794 0 
L 794 531 
z
" transform="scale(0.015625)"/>
        <path id="DejaVuSans-2d" d="M 313 2009 
L 1997 2009 
L 1997 1497 
L 313 1497 
L 313 2009 
z
" transform="scale(0.015625)"/>
        <path id="DejaVuSans-39" d="M 703 97 
L 703 672 
Q 941 559 1184 500 
Q 1428 441 1663 441 
Q 2288 441 2617 861 
Q 2947 1281 2994 2138 
Q 2813 1869 2534 1725 
Q 2256 1581 1919 1581 
Q 1219 1581 811 2004 
Q 403 2428 403 3163 
Q 403 3881 828 4315 
Q 1253 4750 1959 4750 
Q 2769 4750 3195 4129 
Q 3622 3509 3622 2328 
Q 3622 1225 3098 567 
Q 2575 -91 1691 -91 
Q 1453 -91 1209 -44 
Q 966 3 703 97 
z
M 1959 2075 
Q 2384 2075 2632 2365 
Q 2881 2656 2881 3163 
Q 2881 3666 2632 3958 
Q 2384 4250 1959 4250 
Q 1534 4250 1286 3958 
Q 1038 3666 1038 3163 
Q 1038 2656 1286 2365 
Q 1534 2075 1959 2075 
z
" transform="scale(0.015625)"/>
       </defs>
       <use xlink:href="#DejaVuSans-32"/>
       <use xlink:href="#DejaVuSans-30" x="63.623047"/>
       <use xlink:href="#DejaVuSans-32" x="127.246094"/>
       <use xlink:href="#DejaVuSans-31" x="190.869141"/>
       <use xlink:href="#DejaVuSans-2d" x="254.492188"/>
       <use xlink:href="#DejaVuSans-30" x="290.576172"/>
       <use xlink:href="#DejaVuSans-39" x="354.199219"/>
      </g>
     </g>
    </g>
    <g id="xtick_2">
     <g id="line2d_3">
      <path d="M 311.768609 679.764424 
L 311.768609 10.8 
" clip-path="url(#pdaa7f174d9)" style="fill: none; stroke: #b0b0b0; stroke-width: 0.8; stroke-linecap: square"/>
     </g>
     <g id="line2d_4">
      <g>
       <use xlink:href="#m8f259ea4f6" x="311.768609" y="679.764424" style="stroke: #000000; stroke-width: 0.8"/>
      </g>
     </g>
     <g id="text_2">
      <!-- 2021-10 -->
      <g transform="translate(271.388134 706.902566)rotate(-18)scale(0.1 -0.1)">
       <use xlink:href="#DejaVuSans-32"/>
       <use xlink:href="#DejaVuSans-30" x="63.623047"/>
       <use xlink:href="#DejaVuSans-32" x="127.246094"/>
       <use xlink:href="#DejaVuSans-31" x="190.869141"/>
       <use xlink:href="#DejaVuSans-2d" x="254.492188"/>
       <use xlink:href="#DejaVuSans-31" x="290.576172"/>
       <use xlink:href="#DejaVuSans-30" x="354.199219"/>
      </g>
     </g>
    </g>
    <g id="xtick_3">
     <g id="line2d_5">
      <path d="M 466.615782 679.764424 
L 466.615782 10.8 
" clip-path="url(#pdaa7f174d9)" style="fill: none; stroke: #b0b0b0; stroke-width: 0.8; stroke-linecap: square"/>
     </g>
     <g id="line2d_6">
      <g>
       <use xlink:href="#m8f259ea4f6" x="466.615782" y="679.764424" style="stroke: #000000; stroke-width: 0.8"/>
      </g>
     </g>
     <g id="text_3">
      <!-- 2021-11 -->
      <g transform="translate(426.235308 706.902566)rotate(-18)scale(0.1 -0.1)">
       <use xlink:href="#DejaVuSans-32"/>
       <use xlink:href="#DejaVuSans-30" x="63.623047"/>
       <use xlink:href="#DejaVuSans-32" x="127.246094"/>
       <use xlink:href="#DejaVuSans-31" x="190.869141"/>
       <use xlink:href="#DejaVuSans-2d" x="254.492188"/>
       <use xlink:href="#DejaVuSans-31" x="290.576172"/>
       <use xlink:href="#DejaVuSans-31" x="354.199219"/>
      </g>
     </g>
    </g>
    <g id="xtick_4">
     <g id="line2d_7">
      <path d="M 616.467886 679.764424 
L 616.467886 10.8 
" clip-path="url(#pdaa7f174d9)" style="fill: none; stroke: #b0b0b0; stroke-width: 0.8; stroke-linecap: square"/>
     </g>
     <g id="line2d_8">
      <g>
       <use xlink:href="#m8f259ea4f6" x="616.467886" y="679.764424" style="stroke: #000000; stroke-width: 0.8"/>
      </g>
     </g>
     <g id="text_4">
      <!-- 2021-12 -->
      <g transform="translate(576.087411 706.902566)rotate(-18)scale(0.1 -0.1)">
       <use xlink:href="#DejaVuSans-32"/>
       <use xlink:href="#DejaVuSans-30" x="63.623047"/>
       <use xlink:href="#DejaVuSans-32" x="127.246094"/>
       <use xlink:href="#DejaVuSans-31" x="190.869141"/>
       <use xlink:href="#DejaVuSans-2d" x="254.492188"/>
       <use xlink:href="#DejaVuSans-31" x="290.576172"/>
       <use xlink:href="#DejaVuSans-32" x="354.199219"/>
      </g>
     </g>
    </g>
    <g id="xtick_5">
     <g id="line2d_9">
      <path d="M 771.315059 679.764424 
L 771.315059 10.8 
" clip-path="url(#pdaa7f174d9)" style="fill: none; stroke: #b0b0b0; stroke-width: 0.8; stroke-linecap: square"/>
     </g>
     <g id="line2d_10">
      <g>
       <use xlink:href="#m8f259ea4f6" x="771.315059" y="679.764424" style="stroke: #000000; stroke-width: 0.8"/>
      </g>
     </g>
     <g id="text_5">
      <!-- 2022-01 -->
      <g transform="translate(730.934584 706.902566)rotate(-18)scale(0.1 -0.1)">
       <use xlink:href="#DejaVuSans-32"/>
       <use xlink:href="#DejaVuSans-30" x="63.623047"/>
       <use xlink:href="#DejaVuSans-32" x="127.246094"/>
       <use xlink:href="#DejaVuSans-32" x="190.869141"/>
       <use xlink:href="#DejaVuSans-2d" x="254.492188"/>
       <use xlink:href="#DejaVuSans-30" x="290.576172"/>
       <use xlink:href="#DejaVuSans-31" x="354.199219"/>
      </g>
     </g>
    </g>
    <g id="xtick_6">
     <g id="line2d_11">
      <path d="M 926.162232 679.764424 
L 926.162232 10.8 
" clip-path="url(#pdaa7f174d9)" style="fill: none; stroke: #b0b0b0; stroke-width: 0.8; stroke-linecap: square"/>
     </g>
     <g id="line2d_12">
      <g>
       <use xlink:href="#m8f259ea4f6" x="926.162232" y="679.764424" style="stroke: #000000; stroke-width: 0.8"/>
      </g>
     </g>
     <g id="text_6">
      <!-- 2022-02 -->
      <g transform="translate(885.781757 706.902566)rotate(-18)scale(0.1 -0.1)">
       <use xlink:href="#DejaVuSans-32"/>
       <use xlink:href="#DejaVuSans-30" x="63.623047"/>
       <use xlink:href="#DejaVuSans-32" x="127.246094"/>
       <use xlink:href="#DejaVuSans-32" x="190.869141"/>
       <use xlink:href="#DejaVuSans-2d" x="254.492188"/>
       <use xlink:href="#DejaVuSans-30" x="290.576172"/>
       <use xlink:href="#DejaVuSans-32" x="354.199219"/>
      </g>
     </g>
    </g>
    <g id="xtick_7">
     <g id="line2d_13">
      <path d="M 1066.024195 679.764424 
L 1066.024195 10.8 
" clip-path="url(#pdaa7f174d9)" style="fill: none; stroke: #b0b0b0; stroke-width: 0.8; stroke-linecap: square"/>
     </g>
     <g id="line2d_14">
      <g>
       <use xlink:href="#m8f259ea4f6" x="1066.024195" y="679.764424" style="stroke: #000000; stroke-width: 0.8"/>
      </g>
     </g>
     <g id="text_7">
      <!-- 2022-03 -->
      <g transform="translate(1025.64372 706.902566)rotate(-18)scale(0.1 -0.1)">
       <defs>
        <path id="DejaVuSans-33" d="M 2597 2516 
Q 3050 2419 3304 2112 
Q 3559 1806 3559 1356 
Q 3559 666 3084 287 
Q 2609 -91 1734 -91 
Q 1441 -91 1130 -33 
Q 819 25 488 141 
L 488 750 
Q 750 597 1062 519 
Q 1375 441 1716 441 
Q 2309 441 2620 675 
Q 2931 909 2931 1356 
Q 2931 1769 2642 2001 
Q 2353 2234 1838 2234 
L 1294 2234 
L 1294 2753 
L 1863 2753 
Q 2328 2753 2575 2939 
Q 2822 3125 2822 3475 
Q 2822 3834 2567 4026 
Q 2313 4219 1838 4219 
Q 1578 4219 1281 4162 
Q 984 4106 628 3988 
L 628 4550 
Q 988 4650 1302 4700 
Q 1616 4750 1894 4750 
Q 2613 4750 3031 4423 
Q 3450 4097 3450 3541 
Q 3450 3153 3228 2886 
Q 3006 2619 2597 2516 
z
" transform="scale(0.015625)"/>
       </defs>
       <use xlink:href="#DejaVuSans-32"/>
       <use xlink:href="#DejaVuSans-30" x="63.623047"/>
       <use xlink:href="#DejaVuSans-32" x="127.246094"/>
       <use xlink:href="#DejaVuSans-32" x="190.869141"/>
       <use xlink:href="#DejaVuSans-2d" x="254.492188"/>
       <use xlink:href="#DejaVuSans-30" x="290.576172"/>
       <use xlink:href="#DejaVuSans-33" x="354.199219"/>
      </g>
     </g>
    </g>
   </g>
   <g id="matplotlib.axis_2">
    <g id="ytick_1">
     <g id="line2d_15">
      <path d="M 36.79 650.119042 
L 1141.2 650.119042 
" clip-path="url(#pdaa7f174d9)" style="fill: none; stroke: #b0b0b0; stroke-width: 0.8; stroke-linecap: square"/>
     </g>
     <g id="line2d_16">
      <defs>
       <path id="m47e5ae5b5c" d="M 0 0 
L -3.5 0 
" style="stroke: #000000; stroke-width: 0.8"/>
      </defs>
      <g>
       <use xlink:href="#m47e5ae5b5c" x="36.79" y="650.119042" style="stroke: #000000; stroke-width: 0.8"/>
      </g>
     </g>
     <g id="text_8">
      <!-- 0 -->
      <g transform="translate(23.4275 653.918261)scale(0.1 -0.1)">
       <use xlink:href="#DejaVuSans-30"/>
      </g>
     </g>
    </g>
    <g id="ytick_2">
     <g id="line2d_17">
      <path d="M 36.79 573.909834 
L 1141.2 573.909834 
" clip-path="url(#pdaa7f174d9)" style="fill: none; stroke: #b0b0b0; stroke-width: 0.8; stroke-linecap: square"/>
     </g>
     <g id="line2d_18">
      <g>
       <use xlink:href="#m47e5ae5b5c" x="36.79" y="573.909834" style="stroke: #000000; stroke-width: 0.8"/>
      </g>
     </g>
     <g id="text_9">
      <!-- 100 -->
      <g transform="translate(10.7025 577.709053)scale(0.1 -0.1)">
       <use xlink:href="#DejaVuSans-31"/>
       <use xlink:href="#DejaVuSans-30" x="63.623047"/>
       <use xlink:href="#DejaVuSans-30" x="127.246094"/>
      </g>
     </g>
    </g>
    <g id="ytick_3">
     <g id="line2d_19">
      <path d="M 36.79 497.700627 
L 1141.2 497.700627 
" clip-path="url(#pdaa7f174d9)" style="fill: none; stroke: #b0b0b0; stroke-width: 0.8; stroke-linecap: square"/>
     </g>
     <g id="line2d_20">
      <g>
       <use xlink:href="#m47e5ae5b5c" x="36.79" y="497.700627" style="stroke: #000000; stroke-width: 0.8"/>
      </g>
     </g>
     <g id="text_10">
      <!-- 200 -->
      <g transform="translate(10.7025 501.499846)scale(0.1 -0.1)">
       <use xlink:href="#DejaVuSans-32"/>
       <use xlink:href="#DejaVuSans-30" x="63.623047"/>
       <use xlink:href="#DejaVuSans-30" x="127.246094"/>
      </g>
     </g>
    </g>
    <g id="ytick_4">
     <g id="line2d_21">
      <path d="M 36.79 421.491419 
L 1141.2 421.491419 
" clip-path="url(#pdaa7f174d9)" style="fill: none; stroke: #b0b0b0; stroke-width: 0.8; stroke-linecap: square"/>
     </g>
     <g id="line2d_22">
      <g>
       <use xlink:href="#m47e5ae5b5c" x="36.79" y="421.491419" style="stroke: #000000; stroke-width: 0.8"/>
      </g>
     </g>
     <g id="text_11">
      <!-- 300 -->
      <g transform="translate(10.7025 425.290638)scale(0.1 -0.1)">
       <use xlink:href="#DejaVuSans-33"/>
       <use xlink:href="#DejaVuSans-30" x="63.623047"/>
       <use xlink:href="#DejaVuSans-30" x="127.246094"/>
      </g>
     </g>
    </g>
    <g id="ytick_5">
     <g id="line2d_23">
      <path d="M 36.79 345.282212 
L 1141.2 345.282212 
" clip-path="url(#pdaa7f174d9)" style="fill: none; stroke: #b0b0b0; stroke-width: 0.8; stroke-linecap: square"/>
     </g>
     <g id="line2d_24">
      <g>
       <use xlink:href="#m47e5ae5b5c" x="36.79" y="345.282212" style="stroke: #000000; stroke-width: 0.8"/>
      </g>
     </g>
     <g id="text_12">
      <!-- 400 -->
      <g transform="translate(10.7025 349.081431)scale(0.1 -0.1)">
       <defs>
        <path id="DejaVuSans-34" d="M 2419 4116 
L 825 1625 
L 2419 1625 
L 2419 4116 
z
M 2253 4666 
L 3047 4666 
L 3047 1625 
L 3713 1625 
L 3713 1100 
L 3047 1100 
L 3047 0 
L 2419 0 
L 2419 1100 
L 313 1100 
L 313 1709 
L 2253 4666 
z
" transform="scale(0.015625)"/>
       </defs>
       <use xlink:href="#DejaVuSans-34"/>
       <use xlink:href="#DejaVuSans-30" x="63.623047"/>
       <use xlink:href="#DejaVuSans-30" x="127.246094"/>
      </g>
     </g>
    </g>
    <g id="ytick_6">
     <g id="line2d_25">
      <path d="M 36.79 269.073004 
L 1141.2 269.073004 
" clip-path="url(#pdaa7f174d9)" style="fill: none; stroke: #b0b0b0; stroke-width: 0.8; stroke-linecap: square"/>
     </g>
     <g id="line2d_26">
      <g>
       <use xlink:href="#m47e5ae5b5c" x="36.79" y="269.073004" style="stroke: #000000; stroke-width: 0.8"/>
      </g>
     </g>
     <g id="text_13">
      <!-- 500 -->
      <g transform="translate(10.7025 272.872223)scale(0.1 -0.1)">
       <defs>
        <path id="DejaVuSans-35" d="M 691 4666 
L 3169 4666 
L 3169 4134 
L 1269 4134 
L 1269 2991 
Q 1406 3038 1543 3061 
Q 1681 3084 1819 3084 
Q 2600 3084 3056 2656 
Q 3513 2228 3513 1497 
Q 3513 744 3044 326 
Q 2575 -91 1722 -91 
Q 1428 -91 1123 -41 
Q 819 9 494 109 
L 494 744 
Q 775 591 1075 516 
Q 1375 441 1709 441 
Q 2250 441 2565 725 
Q 2881 1009 2881 1497 
Q 2881 1984 2565 2268 
Q 2250 2553 1709 2553 
Q 1456 2553 1204 2497 
Q 953 2441 691 2322 
L 691 4666 
z
" transform="scale(0.015625)"/>
       </defs>
       <use xlink:href="#DejaVuSans-35"/>
       <use xlink:href="#DejaVuSans-30" x="63.623047"/>
       <use xlink:href="#DejaVuSans-30" x="127.246094"/>
      </g>
     </g>
    </g>
    <g id="ytick_7">
     <g id="line2d_27">
      <path d="M 36.79 192.863797 
L 1141.2 192.863797 
" clip-path="url(#pdaa7f174d9)" style="fill: none; stroke: #b0b0b0; stroke-width: 0.8; stroke-linecap: square"/>
     </g>
     <g id="line2d_28">
      <g>
       <use xlink:href="#m47e5ae5b5c" x="36.79" y="192.863797" style="stroke: #000000; stroke-width: 0.8"/>
      </g>
     </g>
     <g id="text_14">
      <!-- 600 -->
      <g transform="translate(10.7025 196.663016)scale(0.1 -0.1)">
       <defs>
        <path id="DejaVuSans-36" d="M 2113 2584 
Q 1688 2584 1439 2293 
Q 1191 2003 1191 1497 
Q 1191 994 1439 701 
Q 1688 409 2113 409 
Q 2538 409 2786 701 
Q 3034 994 3034 1497 
Q 3034 2003 2786 2293 
Q 2538 2584 2113 2584 
z
M 3366 4563 
L 3366 3988 
Q 3128 4100 2886 4159 
Q 2644 4219 2406 4219 
Q 1781 4219 1451 3797 
Q 1122 3375 1075 2522 
Q 1259 2794 1537 2939 
Q 1816 3084 2150 3084 
Q 2853 3084 3261 2657 
Q 3669 2231 3669 1497 
Q 3669 778 3244 343 
Q 2819 -91 2113 -91 
Q 1303 -91 875 529 
Q 447 1150 447 2328 
Q 447 3434 972 4092 
Q 1497 4750 2381 4750 
Q 2619 4750 2861 4703 
Q 3103 4656 3366 4563 
z
" transform="scale(0.015625)"/>
       </defs>
       <use xlink:href="#DejaVuSans-36"/>
       <use xlink:href="#DejaVuSans-30" x="63.623047"/>
       <use xlink:href="#DejaVuSans-30" x="127.246094"/>
      </g>
     </g>
    </g>
    <g id="ytick_8">
     <g id="line2d_29">
      <path d="M 36.79 116.654589 
L 1141.2 116.654589 
" clip-path="url(#pdaa7f174d9)" style="fill: none; stroke: #b0b0b0; stroke-width: 0.8; stroke-linecap: square"/>
     </g>
     <g id="line2d_30">
      <g>
       <use xlink:href="#m47e5ae5b5c" x="36.79" y="116.654589" style="stroke: #000000; stroke-width: 0.8"/>
      </g>
     </g>
     <g id="text_15">
      <!-- 700 -->
      <g transform="translate(10.7025 120.453808)scale(0.1 -0.1)">
       <defs>
        <path id="DejaVuSans-37" d="M 525 4666 
L 3525 4666 
L 3525 4397 
L 1831 0 
L 1172 0 
L 2766 4134 
L 525 4134 
L 525 4666 
z
" transform="scale(0.015625)"/>
       </defs>
       <use xlink:href="#DejaVuSans-37"/>
       <use xlink:href="#DejaVuSans-30" x="63.623047"/>
       <use xlink:href="#DejaVuSans-30" x="127.246094"/>
      </g>
     </g>
    </g>
    <g id="ytick_9">
     <g id="line2d_31">
      <path d="M 36.79 40.445382 
L 1141.2 40.445382 
" clip-path="url(#pdaa7f174d9)" style="fill: none; stroke: #b0b0b0; stroke-width: 0.8; stroke-linecap: square"/>
     </g>
     <g id="line2d_32">
      <g>
       <use xlink:href="#m47e5ae5b5c" x="36.79" y="40.445382" style="stroke: #000000; stroke-width: 0.8"/>
      </g>
     </g>
     <g id="text_16">
      <!-- 800 -->
      <g transform="translate(10.7025 44.2446)scale(0.1 -0.1)">
       <defs>
        <path id="DejaVuSans-38" d="M 2034 2216 
Q 1584 2216 1326 1975 
Q 1069 1734 1069 1313 
Q 1069 891 1326 650 
Q 1584 409 2034 409 
Q 2484 409 2743 651 
Q 3003 894 3003 1313 
Q 3003 1734 2745 1975 
Q 2488 2216 2034 2216 
z
M 1403 2484 
Q 997 2584 770 2862 
Q 544 3141 544 3541 
Q 544 4100 942 4425 
Q 1341 4750 2034 4750 
Q 2731 4750 3128 4425 
Q 3525 4100 3525 3541 
Q 3525 3141 3298 2862 
Q 3072 2584 2669 2484 
Q 3125 2378 3379 2068 
Q 3634 1759 3634 1313 
Q 3634 634 3220 271 
Q 2806 -91 2034 -91 
Q 1263 -91 848 271 
Q 434 634 434 1313 
Q 434 1759 690 2068 
Q 947 2378 1403 2484 
z
M 1172 3481 
Q 1172 3119 1398 2916 
Q 1625 2713 2034 2713 
Q 2441 2713 2670 2916 
Q 2900 3119 2900 3481 
Q 2900 3844 2670 4047 
Q 2441 4250 2034 4250 
Q 1625 4250 1398 4047 
Q 1172 3844 1172 3481 
z
" transform="scale(0.015625)"/>
       </defs>
       <use xlink:href="#DejaVuSans-38"/>
       <use xlink:href="#DejaVuSans-30" x="63.623047"/>
       <use xlink:href="#DejaVuSans-30" x="127.246094"/>
      </g>
     </g>
    </g>
   </g>
   <g id="line2d_33">
    <path d="M 86.990455 106.747392 
L 91.985525 106.747392 
L 96.980595 119.702958 
L 101.975665 122.751326 
L 106.970735 124.27551 
L 111.965805 126.561786 
L 116.960875 126.561786 
L 121.955945 127.323878 
L 131.946085 130.372247 
L 136.941156 131.134339 
L 141.936226 131.134339 
L 146.931296 132.658523 
L 151.926366 134.944799 
L 156.921436 136.468983 
L 161.916506 137.231075 
L 166.911576 138.755259 
L 171.906646 141.803628 
L 176.901716 141.803628 
L 181.896787 41.207474 
L 186.891857 41.969566 
L 191.886927 44.255842 
L 196.881997 44.255842 
L 201.877067 45.017934 
L 206.872137 45.017934 
L 211.867207 48.066302 
L 216.862277 50.352579 
L 221.857347 50.352579 
L 231.847488 54.925131 
L 236.842558 54.925131 
L 241.837628 63.308144 
L 246.832698 67.118604 
L 251.827768 68.642789 
L 256.822838 71.691157 
L 261.817908 73.977433 
L 281.798189 73.977433 
L 286.793259 74.739525 
L 296.783399 74.739525 
L 301.778469 75.501617 
L 306.773539 78.549985 
L 311.768609 82.360446 
L 316.763679 83.122538 
L 326.75382 86.170906 
L 366.71438 86.170906 
L 371.70945 107.509484 
L 376.704521 109.033669 
L 381.699591 109.033669 
L 386.694661 111.319945 
L 396.684801 111.319945 
L 401.679871 113.606221 
L 411.670011 116.654589 
L 436.645362 128.08597 
L 441.640432 128.848062 
L 446.635502 130.372247 
L 451.630572 131.134339 
L 456.625642 131.134339 
L 461.620712 133.420615 
L 476.605923 135.706891 
L 481.600993 137.993167 
L 486.596063 137.993167 
L 496.586203 144.089904 
L 501.581273 147.900364 
L 506.576343 148.662456 
L 511.571413 151.710825 
L 516.566483 152.472917 
L 521.561554 156.283377 
L 541.541834 156.283377 
L 546.536904 161.618022 
L 556.527044 161.618022 
L 561.522114 165.428482 
L 566.517185 166.952666 
L 571.512255 167.714758 
L 581.502395 167.714758 
L 586.497465 168.47685 
L 591.492535 171.525219 
L 596.487605 171.525219 
L 601.482675 173.811495 
L 606.477745 179.146139 
L 611.472815 181.432416 
L 621.462956 184.480784 
L 626.458026 185.242876 
L 631.453096 185.242876 
L 636.448166 187.529152 
L 641.443236 195.912165 
L 646.438306 200.484718 
L 671.413657 200.484718 
L 676.408727 205.819362 
L 681.403797 205.819362 
L 691.393937 207.343546 
L 696.389007 209.629822 
L 701.384077 210.391915 
L 706.379147 216.488651 
L 766.319989 236.303045 
L 771.315059 236.303045 
L 776.310129 237.827229 
L 781.305199 237.827229 
L 786.300269 240.113505 
L 791.295339 240.875598 
L 796.290409 242.399782 
L 801.285479 246.972334 
L 806.28055 246.972334 
L 811.27562 250.782795 
L 816.27069 250.782795 
L 826.26083 253.831163 
L 831.2559 254.593255 
L 841.24604 254.593255 
L 846.24111 255.355347 
L 851.23618 255.355347 
L 856.231251 257.641623 
L 861.226321 260.689991 
L 866.221391 262.214176 
L 871.216461 262.214176 
L 876.211531 264.500452 
L 881.206601 266.024636 
L 901.186882 266.024636 
L 906.181952 268.310912 
L 911.177022 268.310912 
L 916.172092 269.835096 
L 936.152372 272.883465 
L 961.127723 272.883465 
L 966.122793 275.931833 
L 971.117863 276.693925 
L 991.098143 276.693925 
L 996.093213 277.456017 
L 1001.088284 277.456017 
L 1011.078424 278.980201 
L 1016.073494 280.504385 
L 1021.068564 281.266478 
L 1026.063634 282.790662 
L 1031.058704 285.076938 
L 1036.053774 285.076938 
L 1041.048844 285.83903 
L 1090.999545 285.83903 
L 1090.999545 285.83903 
" clip-path="url(#pdaa7f174d9)" style="fill: none; stroke: #1f77b4; stroke-width: 1.5; stroke-linecap: square"/>
   </g>
   <g id="line2d_34">
    <path d="M 86.990455 602.869333 
L 106.970735 602.869333 
L 111.965805 603.631425 
L 176.901716 603.631425 
L 181.896787 588.389584 
L 191.886927 588.389584 
L 196.881997 589.151676 
L 201.877067 594.48632 
L 226.852417 594.48632 
L 231.847488 607.441886 
L 236.842558 621.159543 
L 241.837628 631.06674 
L 246.832698 631.06674 
L 251.827768 631.828832 
L 291.788329 631.828832 
L 296.783399 632.590924 
L 366.71438 632.590924 
L 371.70945 634.115108 
L 446.635502 634.115108 
L 451.630572 634.8772 
L 471.610853 634.8772 
L 476.605923 636.401385 
L 636.448166 636.401385 
L 641.443236 637.163477 
L 676.408727 637.163477 
L 681.403797 637.925569 
L 686.398867 637.925569 
L 691.393937 638.687661 
L 956.132653 638.687661 
L 961.127723 639.449753 
L 996.093213 639.449753 
L 1001.088284 640.211845 
L 1090.999545 640.211845 
L 1090.999545 640.211845 
" clip-path="url(#pdaa7f174d9)" style="fill: none; stroke: #ff7f0e; stroke-width: 1.5; stroke-linecap: square"/>
   </g>
   <g id="line2d_35">
    <path d="M 86.990455 649.35695 
L 91.985525 649.35695 
L 96.980595 649.35695 
L 101.975665 649.35695 
L 106.970735 649.35695 
" clip-path="url(#pdaa7f174d9)" style="fill: none; stroke: #2ca02c; stroke-width: 1.5; stroke-linecap: square"/>
   </g>
   <g id="line2d_36">
    <path d="M 86.990455 649.35695 
L 91.985525 649.35695 
L 96.980595 649.35695 
L 101.975665 649.35695 
L 106.970735 649.35695 
" clip-path="url(#pdaa7f174d9)" style="fill: none; stroke: #d62728; stroke-width: 1.5; stroke-linecap: square"/>
   </g>
   <g id="line2d_37">
    <path d="M 86.990455 638.687661 
L 91.985525 638.687661 
L 96.980595 638.687661 
L 101.975665 638.687661 
L 106.970735 638.687661 
L 111.965805 638.687661 
L 116.960875 638.687661 
L 121.955945 638.687661 
L 126.951015 643.260213 
L 131.946085 643.260213 
L 136.941156 643.260213 
L 141.936226 643.260213 
L 146.931296 643.260213 
L 151.926366 643.260213 
L 156.921436 648.594858 
L 161.916506 648.594858 
L 166.911576 648.594858 
L 171.906646 648.594858 
L 176.901716 648.594858 
L 181.896787 648.594858 
L 186.891857 648.594858 
L 191.886927 648.594858 
L 196.881997 648.594858 
L 201.877067 648.594858 
L 206.872137 648.594858 
L 211.867207 648.594858 
L 216.862277 649.35695 
L 221.857347 649.35695 
L 226.852417 649.35695 
L 231.847488 649.35695 
L 236.842558 649.35695 
L 241.837628 649.35695 
L 246.832698 649.35695 
L 251.827768 649.35695 
L 256.822838 649.35695 
L 261.817908 649.35695 
L 266.812978 649.35695 
L 271.808048 649.35695 
L 276.803118 649.35695 
L 281.798189 649.35695 
L 286.793259 649.35695 
L 291.788329 649.35695 
L 296.783399 649.35695 
L 301.778469 649.35695 
L 306.773539 649.35695 
L 311.768609 649.35695 
L 316.763679 649.35695 
L 321.758749 649.35695 
L 326.75382 649.35695 
L 331.74889 649.35695 
L 336.74396 649.35695 
L 341.73903 649.35695 
L 346.7341 649.35695 
L 351.72917 649.35695 
L 356.72424 649.35695 
L 361.71931 649.35695 
L 366.71438 649.35695 
L 371.70945 649.35695 
L 376.704521 649.35695 
L 381.699591 649.35695 
" clip-path="url(#pdaa7f174d9)" style="fill: none; stroke: #9467bd; stroke-width: 1.5; stroke-linecap: square"/>
   </g>
   <g id="line2d_38">
    <path d="M 86.990455 643.260213 
L 91.985525 643.260213 
L 96.980595 643.260213 
L 101.975665 643.260213 
L 106.970735 643.260213 
L 111.965805 643.260213 
L 116.960875 645.54649 
L 121.955945 648.594858 
" clip-path="url(#pdaa7f174d9)" style="fill: none; stroke: #8c564b; stroke-width: 1.5; stroke-linecap: square"/>
   </g>
   <g id="line2d_39">
    <path d="M 946.142512 649.35695 
L 951.137583 649.35695 
L 956.132653 649.35695 
" clip-path="url(#pdaa7f174d9)" style="fill: none; stroke: #e377c2; stroke-width: 1.5; stroke-linecap: square"/>
   </g>
   <g id="line2d_40">
    <path d="M 181.896787 679.764424 
L 181.896787 10.8 
" clip-path="url(#pdaa7f174d9)" style="fill: none; stroke-dasharray: 5.55,2.4; stroke-dashoffset: 0; stroke: #ff0000; stroke-width: 1.5"/>
   </g>
   <g id="patch_3">
    <path d="M 36.79 679.764424 
L 36.79 10.8 
" style="fill: none; stroke: #000000; stroke-width: 0.8; stroke-linejoin: miter; stroke-linecap: square"/>
   </g>
   <g id="patch_4">
    <path d="M 1141.2 679.764424 
L 1141.2 10.8 
" style="fill: none; stroke: #000000; stroke-width: 0.8; stroke-linejoin: miter; stroke-linecap: square"/>
   </g>
   <g id="patch_5">
    <path d="M 36.79 679.764424 
L 1141.2 679.764424 
" style="fill: none; stroke: #000000; stroke-width: 0.8; stroke-linejoin: miter; stroke-linecap: square"/>
   </g>
   <g id="patch_6">
    <path d="M 36.79 10.8 
L 1141.2 10.8 
" style="fill: none; stroke: #000000; stroke-width: 0.8; stroke-linejoin: miter; stroke-linecap: square"/>
   </g>
   <g id="patch_7">
    <path d="M 160.577973 487.545476 
Q 168.600133 459.997985 176.622293 432.450494 
L 172.781824 431.332104 
Q 177.339305 426.411762 181.896787 421.491419 
Q 183.100009 428.089348 184.303231 434.687276 
L 180.462762 433.568885 
Q 172.440602 461.116376 164.418442 488.663867 
L 160.577973 487.545476 
z
" style="fill: #ff0000; stroke: #000000; stroke-linecap: round"/>
   </g>
   <g id="text_17">
    <!-- Added uploaders data -->
    <g style="fill: #ff0000" transform="translate(161.916506 497.700627)scale(0.1 -0.1)">
     <defs>
      <path id="DejaVuSans-41" d="M 2188 4044 
L 1331 1722 
L 3047 1722 
L 2188 4044 
z
M 1831 4666 
L 2547 4666 
L 4325 0 
L 3669 0 
L 3244 1197 
L 1141 1197 
L 716 0 
L 50 0 
L 1831 4666 
z
" transform="scale(0.015625)"/>
      <path id="DejaVuSans-64" d="M 2906 2969 
L 2906 4863 
L 3481 4863 
L 3481 0 
L 2906 0 
L 2906 525 
Q 2725 213 2448 61 
Q 2172 -91 1784 -91 
Q 1150 -91 751 415 
Q 353 922 353 1747 
Q 353 2572 751 3078 
Q 1150 3584 1784 3584 
Q 2172 3584 2448 3432 
Q 2725 3281 2906 2969 
z
M 947 1747 
Q 947 1113 1208 752 
Q 1469 391 1925 391 
Q 2381 391 2643 752 
Q 2906 1113 2906 1747 
Q 2906 2381 2643 2742 
Q 2381 3103 1925 3103 
Q 1469 3103 1208 2742 
Q 947 2381 947 1747 
z
" transform="scale(0.015625)"/>
      <path id="DejaVuSans-65" d="M 3597 1894 
L 3597 1613 
L 953 1613 
Q 991 1019 1311 708 
Q 1631 397 2203 397 
Q 2534 397 2845 478 
Q 3156 559 3463 722 
L 3463 178 
Q 3153 47 2828 -22 
Q 2503 -91 2169 -91 
Q 1331 -91 842 396 
Q 353 884 353 1716 
Q 353 2575 817 3079 
Q 1281 3584 2069 3584 
Q 2775 3584 3186 3129 
Q 3597 2675 3597 1894 
z
M 3022 2063 
Q 3016 2534 2758 2815 
Q 2500 3097 2075 3097 
Q 1594 3097 1305 2825 
Q 1016 2553 972 2059 
L 3022 2063 
z
" transform="scale(0.015625)"/>
      <path id="DejaVuSans-20" transform="scale(0.015625)"/>
      <path id="DejaVuSans-75" d="M 544 1381 
L 544 3500 
L 1119 3500 
L 1119 1403 
Q 1119 906 1312 657 
Q 1506 409 1894 409 
Q 2359 409 2629 706 
Q 2900 1003 2900 1516 
L 2900 3500 
L 3475 3500 
L 3475 0 
L 2900 0 
L 2900 538 
Q 2691 219 2414 64 
Q 2138 -91 1772 -91 
Q 1169 -91 856 284 
Q 544 659 544 1381 
z
M 1991 3584 
L 1991 3584 
z
" transform="scale(0.015625)"/>
      <path id="DejaVuSans-70" d="M 1159 525 
L 1159 -1331 
L 581 -1331 
L 581 3500 
L 1159 3500 
L 1159 2969 
Q 1341 3281 1617 3432 
Q 1894 3584 2278 3584 
Q 2916 3584 3314 3078 
Q 3713 2572 3713 1747 
Q 3713 922 3314 415 
Q 2916 -91 2278 -91 
Q 1894 -91 1617 61 
Q 1341 213 1159 525 
z
M 3116 1747 
Q 3116 2381 2855 2742 
Q 2594 3103 2138 3103 
Q 1681 3103 1420 2742 
Q 1159 2381 1159 1747 
Q 1159 1113 1420 752 
Q 1681 391 2138 391 
Q 2594 391 2855 752 
Q 3116 1113 3116 1747 
z
" transform="scale(0.015625)"/>
      <path id="DejaVuSans-6c" d="M 603 4863 
L 1178 4863 
L 1178 0 
L 603 0 
L 603 4863 
z
" transform="scale(0.015625)"/>
      <path id="DejaVuSans-6f" d="M 1959 3097 
Q 1497 3097 1228 2736 
Q 959 2375 959 1747 
Q 959 1119 1226 758 
Q 1494 397 1959 397 
Q 2419 397 2687 759 
Q 2956 1122 2956 1747 
Q 2956 2369 2687 2733 
Q 2419 3097 1959 3097 
z
M 1959 3584 
Q 2709 3584 3137 3096 
Q 3566 2609 3566 1747 
Q 3566 888 3137 398 
Q 2709 -91 1959 -91 
Q 1206 -91 779 398 
Q 353 888 353 1747 
Q 353 2609 779 3096 
Q 1206 3584 1959 3584 
z
" transform="scale(0.015625)"/>
      <path id="DejaVuSans-61" d="M 2194 1759 
Q 1497 1759 1228 1600 
Q 959 1441 959 1056 
Q 959 750 1161 570 
Q 1363 391 1709 391 
Q 2188 391 2477 730 
Q 2766 1069 2766 1631 
L 2766 1759 
L 2194 1759 
z
M 3341 1997 
L 3341 0 
L 2766 0 
L 2766 531 
Q 2569 213 2275 61 
Q 1981 -91 1556 -91 
Q 1019 -91 701 211 
Q 384 513 384 1019 
Q 384 1609 779 1909 
Q 1175 2209 1959 2209 
L 2766 2209 
L 2766 2266 
Q 2766 2663 2505 2880 
Q 2244 3097 1772 3097 
Q 1472 3097 1187 3025 
Q 903 2953 641 2809 
L 641 3341 
Q 956 3463 1253 3523 
Q 1550 3584 1831 3584 
Q 2591 3584 2966 3190 
Q 3341 2797 3341 1997 
z
" transform="scale(0.015625)"/>
      <path id="DejaVuSans-72" d="M 2631 2963 
Q 2534 3019 2420 3045 
Q 2306 3072 2169 3072 
Q 1681 3072 1420 2755 
Q 1159 2438 1159 1844 
L 1159 0 
L 581 0 
L 581 3500 
L 1159 3500 
L 1159 2956 
Q 1341 3275 1631 3429 
Q 1922 3584 2338 3584 
Q 2397 3584 2469 3576 
Q 2541 3569 2628 3553 
L 2631 2963 
z
" transform="scale(0.015625)"/>
      <path id="DejaVuSans-73" d="M 2834 3397 
L 2834 2853 
Q 2591 2978 2328 3040 
Q 2066 3103 1784 3103 
Q 1356 3103 1142 2972 
Q 928 2841 928 2578 
Q 928 2378 1081 2264 
Q 1234 2150 1697 2047 
L 1894 2003 
Q 2506 1872 2764 1633 
Q 3022 1394 3022 966 
Q 3022 478 2636 193 
Q 2250 -91 1575 -91 
Q 1294 -91 989 -36 
Q 684 19 347 128 
L 347 722 
Q 666 556 975 473 
Q 1284 391 1588 391 
Q 1994 391 2212 530 
Q 2431 669 2431 922 
Q 2431 1156 2273 1281 
Q 2116 1406 1581 1522 
L 1381 1569 
Q 847 1681 609 1914 
Q 372 2147 372 2553 
Q 372 3047 722 3315 
Q 1072 3584 1716 3584 
Q 2034 3584 2315 3537 
Q 2597 3491 2834 3397 
z
" transform="scale(0.015625)"/>
      <path id="DejaVuSans-74" d="M 1172 4494 
L 1172 3500 
L 2356 3500 
L 2356 3053 
L 1172 3053 
L 1172 1153 
Q 1172 725 1289 603 
Q 1406 481 1766 481 
L 2356 481 
L 2356 0 
L 1766 0 
Q 1100 0 847 248 
Q 594 497 594 1153 
L 594 3053 
L 172 3053 
L 172 3500 
L 594 3500 
L 594 4494 
L 1172 4494 
z
" transform="scale(0.015625)"/>
     </defs>
     <use xlink:href="#DejaVuSans-41"/>
     <use xlink:href="#DejaVuSans-64" x="66.658203"/>
     <use xlink:href="#DejaVuSans-64" x="130.134766"/>
     <use xlink:href="#DejaVuSans-65" x="193.611328"/>
     <use xlink:href="#DejaVuSans-64" x="255.134766"/>
     <use xlink:href="#DejaVuSans-20" x="318.611328"/>
     <use xlink:href="#DejaVuSans-75" x="350.398438"/>
     <use xlink:href="#DejaVuSans-70" x="413.777344"/>
     <use xlink:href="#DejaVuSans-6c" x="477.253906"/>
     <use xlink:href="#DejaVuSans-6f" x="505.037109"/>
     <use xlink:href="#DejaVuSans-61" x="566.21875"/>
     <use xlink:href="#DejaVuSans-64" x="627.498047"/>
     <use xlink:href="#DejaVuSans-65" x="690.974609"/>
     <use xlink:href="#DejaVuSans-72" x="752.498047"/>
     <use xlink:href="#DejaVuSans-73" x="793.611328"/>
     <use xlink:href="#DejaVuSans-20" x="845.710938"/>
     <use xlink:href="#DejaVuSans-64" x="877.498047"/>
     <use xlink:href="#DejaVuSans-61" x="940.974609"/>
     <use xlink:href="#DejaVuSans-74" x="1002.253906"/>
     <use xlink:href="#DejaVuSans-61" x="1041.462891"/>
    </g>
   </g>
   <g id="legend_1">
    <g id="patch_8">
     <path d="M 43.79 405.494712 
L 334.67125 405.494712 
Q 336.67125 405.494712 336.67125 403.494712 
L 336.67125 287.069712 
Q 336.67125 285.069712 334.67125 285.069712 
L 43.79 285.069712 
Q 41.79 285.069712 41.79 287.069712 
L 41.79 403.494712 
Q 41.79 405.494712 43.79 405.494712 
z
" style="fill: #ffffff; opacity: 0.8; stroke: #cccccc; stroke-linejoin: miter"/>
    </g>
    <g id="patch_9">
     <path d="M 45.79 296.668149 
L 65.79 296.668149 
L 65.79 289.668149 
L 45.79 289.668149 
L 45.79 296.668149 
z
" style="fill: none; opacity: 0"/>
    </g>
    <g id="text_18">
     <!-- team+python@tracker.debian.org (1491) -->
     <g transform="translate(73.79 296.668149)scale(0.1 -0.1)">
      <defs>
       <path id="DejaVuSans-6d" d="M 3328 2828 
Q 3544 3216 3844 3400 
Q 4144 3584 4550 3584 
Q 5097 3584 5394 3201 
Q 5691 2819 5691 2113 
L 5691 0 
L 5113 0 
L 5113 2094 
Q 5113 2597 4934 2840 
Q 4756 3084 4391 3084 
Q 3944 3084 3684 2787 
Q 3425 2491 3425 1978 
L 3425 0 
L 2847 0 
L 2847 2094 
Q 2847 2600 2669 2842 
Q 2491 3084 2119 3084 
Q 1678 3084 1418 2786 
Q 1159 2488 1159 1978 
L 1159 0 
L 581 0 
L 581 3500 
L 1159 3500 
L 1159 2956 
Q 1356 3278 1631 3431 
Q 1906 3584 2284 3584 
Q 2666 3584 2933 3390 
Q 3200 3197 3328 2828 
z
" transform="scale(0.015625)"/>
       <path id="DejaVuSans-2b" d="M 2944 4013 
L 2944 2272 
L 4684 2272 
L 4684 1741 
L 2944 1741 
L 2944 0 
L 2419 0 
L 2419 1741 
L 678 1741 
L 678 2272 
L 2419 2272 
L 2419 4013 
L 2944 4013 
z
" transform="scale(0.015625)"/>
       <path id="DejaVuSans-79" d="M 2059 -325 
Q 1816 -950 1584 -1140 
Q 1353 -1331 966 -1331 
L 506 -1331 
L 506 -850 
L 844 -850 
Q 1081 -850 1212 -737 
Q 1344 -625 1503 -206 
L 1606 56 
L 191 3500 
L 800 3500 
L 1894 763 
L 2988 3500 
L 3597 3500 
L 2059 -325 
z
" transform="scale(0.015625)"/>
       <path id="DejaVuSans-68" d="M 3513 2113 
L 3513 0 
L 2938 0 
L 2938 2094 
Q 2938 2591 2744 2837 
Q 2550 3084 2163 3084 
Q 1697 3084 1428 2787 
Q 1159 2491 1159 1978 
L 1159 0 
L 581 0 
L 581 4863 
L 1159 4863 
L 1159 2956 
Q 1366 3272 1645 3428 
Q 1925 3584 2291 3584 
Q 2894 3584 3203 3211 
Q 3513 2838 3513 2113 
z
" transform="scale(0.015625)"/>
       <path id="DejaVuSans-6e" d="M 3513 2113 
L 3513 0 
L 2938 0 
L 2938 2094 
Q 2938 2591 2744 2837 
Q 2550 3084 2163 3084 
Q 1697 3084 1428 2787 
Q 1159 2491 1159 1978 
L 1159 0 
L 581 0 
L 581 3500 
L 1159 3500 
L 1159 2956 
Q 1366 3272 1645 3428 
Q 1925 3584 2291 3584 
Q 2894 3584 3203 3211 
Q 3513 2838 3513 2113 
z
" transform="scale(0.015625)"/>
       <path id="DejaVuSans-40" d="M 2381 1678 
Q 2381 1231 2603 976 
Q 2825 722 3213 722 
Q 3597 722 3817 978 
Q 4038 1234 4038 1678 
Q 4038 2116 3813 2373 
Q 3588 2631 3206 2631 
Q 2828 2631 2604 2375 
Q 2381 2119 2381 1678 
z
M 4084 744 
Q 3897 503 3655 389 
Q 3413 275 3091 275 
Q 2553 275 2217 664 
Q 1881 1053 1881 1678 
Q 1881 2303 2218 2693 
Q 2556 3084 3091 3084 
Q 3413 3084 3656 2967 
Q 3900 2850 4084 2613 
L 4084 3022 
L 4531 3022 
L 4531 722 
Q 4988 791 5245 1139 
Q 5503 1488 5503 2041 
Q 5503 2375 5404 2669 
Q 5306 2963 5106 3213 
Q 4781 3622 4314 3839 
Q 3847 4056 3297 4056 
Q 2913 4056 2559 3954 
Q 2206 3853 1906 3653 
Q 1416 3334 1139 2817 
Q 863 2300 863 1697 
Q 863 1200 1042 765 
Q 1222 331 1563 0 
Q 1891 -325 2322 -495 
Q 2753 -666 3244 -666 
Q 3647 -666 4036 -530 
Q 4425 -394 4750 -141 
L 5031 -488 
Q 4641 -791 4180 -952 
Q 3719 -1113 3244 -1113 
Q 2666 -1113 2153 -908 
Q 1641 -703 1241 -313 
Q 841 78 631 592 
Q 422 1106 422 1697 
Q 422 2266 634 2781 
Q 847 3297 1241 3688 
Q 1644 4084 2172 4295 
Q 2700 4506 3291 4506 
Q 3953 4506 4520 4234 
Q 5088 3963 5472 3463 
Q 5706 3156 5829 2797 
Q 5953 2438 5953 2053 
Q 5953 1231 5456 756 
Q 4959 281 4084 263 
L 4084 744 
z
" transform="scale(0.015625)"/>
       <path id="DejaVuSans-63" d="M 3122 3366 
L 3122 2828 
Q 2878 2963 2633 3030 
Q 2388 3097 2138 3097 
Q 1578 3097 1268 2742 
Q 959 2388 959 1747 
Q 959 1106 1268 751 
Q 1578 397 2138 397 
Q 2388 397 2633 464 
Q 2878 531 3122 666 
L 3122 134 
Q 2881 22 2623 -34 
Q 2366 -91 2075 -91 
Q 1284 -91 818 406 
Q 353 903 353 1747 
Q 353 2603 823 3093 
Q 1294 3584 2113 3584 
Q 2378 3584 2631 3529 
Q 2884 3475 3122 3366 
z
" transform="scale(0.015625)"/>
       <path id="DejaVuSans-6b" d="M 581 4863 
L 1159 4863 
L 1159 1991 
L 2875 3500 
L 3609 3500 
L 1753 1863 
L 3688 0 
L 2938 0 
L 1159 1709 
L 1159 0 
L 581 0 
L 581 4863 
z
" transform="scale(0.015625)"/>
       <path id="DejaVuSans-2e" d="M 684 794 
L 1344 794 
L 1344 0 
L 684 0 
L 684 794 
z
" transform="scale(0.015625)"/>
       <path id="DejaVuSans-62" d="M 3116 1747 
Q 3116 2381 2855 2742 
Q 2594 3103 2138 3103 
Q 1681 3103 1420 2742 
Q 1159 2381 1159 1747 
Q 1159 1113 1420 752 
Q 1681 391 2138 391 
Q 2594 391 2855 752 
Q 3116 1113 3116 1747 
z
M 1159 2969 
Q 1341 3281 1617 3432 
Q 1894 3584 2278 3584 
Q 2916 3584 3314 3078 
Q 3713 2572 3713 1747 
Q 3713 922 3314 415 
Q 2916 -91 2278 -91 
Q 1894 -91 1617 61 
Q 1341 213 1159 525 
L 1159 0 
L 581 0 
L 581 4863 
L 1159 4863 
L 1159 2969 
z
" transform="scale(0.015625)"/>
       <path id="DejaVuSans-69" d="M 603 3500 
L 1178 3500 
L 1178 0 
L 603 0 
L 603 3500 
z
M 603 4863 
L 1178 4863 
L 1178 4134 
L 603 4134 
L 603 4863 
z
" transform="scale(0.015625)"/>
       <path id="DejaVuSans-67" d="M 2906 1791 
Q 2906 2416 2648 2759 
Q 2391 3103 1925 3103 
Q 1463 3103 1205 2759 
Q 947 2416 947 1791 
Q 947 1169 1205 825 
Q 1463 481 1925 481 
Q 2391 481 2648 825 
Q 2906 1169 2906 1791 
z
M 3481 434 
Q 3481 -459 3084 -895 
Q 2688 -1331 1869 -1331 
Q 1566 -1331 1297 -1286 
Q 1028 -1241 775 -1147 
L 775 -588 
Q 1028 -725 1275 -790 
Q 1522 -856 1778 -856 
Q 2344 -856 2625 -561 
Q 2906 -266 2906 331 
L 2906 616 
Q 2728 306 2450 153 
Q 2172 0 1784 0 
Q 1141 0 747 490 
Q 353 981 353 1791 
Q 353 2603 747 3093 
Q 1141 3584 1784 3584 
Q 2172 3584 2450 3431 
Q 2728 3278 2906 2969 
L 2906 3500 
L 3481 3500 
L 3481 434 
z
" transform="scale(0.015625)"/>
       <path id="DejaVuSans-28" d="M 1984 4856 
Q 1566 4138 1362 3434 
Q 1159 2731 1159 2009 
Q 1159 1288 1364 580 
Q 1569 -128 1984 -844 
L 1484 -844 
Q 1016 -109 783 600 
Q 550 1309 550 2009 
Q 550 2706 781 3412 
Q 1013 4119 1484 4856 
L 1984 4856 
z
" transform="scale(0.015625)"/>
       <path id="DejaVuSans-29" d="M 513 4856 
L 1013 4856 
Q 1481 4119 1714 3412 
Q 1947 2706 1947 2009 
Q 1947 1309 1714 600 
Q 1481 -109 1013 -844 
L 513 -844 
Q 928 -128 1133 580 
Q 1338 1288 1338 2009 
Q 1338 2731 1133 3434 
Q 928 4138 513 4856 
z
" transform="scale(0.015625)"/>
      </defs>
      <use xlink:href="#DejaVuSans-74"/>
      <use xlink:href="#DejaVuSans-65" x="39.208984"/>
      <use xlink:href="#DejaVuSans-61" x="100.732422"/>
      <use xlink:href="#DejaVuSans-6d" x="162.011719"/>
      <use xlink:href="#DejaVuSans-2b" x="259.423828"/>
      <use xlink:href="#DejaVuSans-70" x="343.212891"/>
      <use xlink:href="#DejaVuSans-79" x="406.689453"/>
      <use xlink:href="#DejaVuSans-74" x="465.869141"/>
      <use xlink:href="#DejaVuSans-68" x="505.078125"/>
      <use xlink:href="#DejaVuSans-6f" x="568.457031"/>
      <use xlink:href="#DejaVuSans-6e" x="629.638672"/>
      <use xlink:href="#DejaVuSans-40" x="693.017578"/>
      <use xlink:href="#DejaVuSans-74" x="793.017578"/>
      <use xlink:href="#DejaVuSans-72" x="832.226562"/>
      <use xlink:href="#DejaVuSans-61" x="873.339844"/>
      <use xlink:href="#DejaVuSans-63" x="934.619141"/>
      <use xlink:href="#DejaVuSans-6b" x="989.599609"/>
      <use xlink:href="#DejaVuSans-65" x="1043.884766"/>
      <use xlink:href="#DejaVuSans-72" x="1105.408203"/>
      <use xlink:href="#DejaVuSans-2e" x="1137.396484"/>
      <use xlink:href="#DejaVuSans-64" x="1169.183594"/>
      <use xlink:href="#DejaVuSans-65" x="1232.660156"/>
      <use xlink:href="#DejaVuSans-62" x="1294.183594"/>
      <use xlink:href="#DejaVuSans-69" x="1357.660156"/>
      <use xlink:href="#DejaVuSans-61" x="1385.443359"/>
      <use xlink:href="#DejaVuSans-6e" x="1446.722656"/>
      <use xlink:href="#DejaVuSans-2e" x="1510.101562"/>
      <use xlink:href="#DejaVuSans-6f" x="1541.888672"/>
      <use xlink:href="#DejaVuSans-72" x="1603.070312"/>
      <use xlink:href="#DejaVuSans-67" x="1642.433594"/>
      <use xlink:href="#DejaVuSans-20" x="1705.910156"/>
      <use xlink:href="#DejaVuSans-28" x="1737.697266"/>
      <use xlink:href="#DejaVuSans-31" x="1776.710938"/>
      <use xlink:href="#DejaVuSans-34" x="1840.333984"/>
      <use xlink:href="#DejaVuSans-39" x="1903.957031"/>
      <use xlink:href="#DejaVuSans-31" x="1967.580078"/>
      <use xlink:href="#DejaVuSans-29" x="2031.203125"/>
     </g>
    </g>
    <g id="line2d_41">
     <path d="M 45.79 307.846274 
L 55.79 307.846274 
L 65.79 307.846274 
" style="fill: none; stroke: #1f77b4; stroke-width: 1.5; stroke-linecap: square"/>
    </g>
    <g id="text_19">
     <!-- python-modules-team@lists.alioth.debian.org (478) -->
     <g transform="translate(73.79 311.346274)scale(0.1 -0.1)">
      <use xlink:href="#DejaVuSans-70"/>
      <use xlink:href="#DejaVuSans-79" x="63.476562"/>
      <use xlink:href="#DejaVuSans-74" x="122.65625"/>
      <use xlink:href="#DejaVuSans-68" x="161.865234"/>
      <use xlink:href="#DejaVuSans-6f" x="225.244141"/>
      <use xlink:href="#DejaVuSans-6e" x="286.425781"/>
      <use xlink:href="#DejaVuSans-2d" x="349.804688"/>
      <use xlink:href="#DejaVuSans-6d" x="385.888672"/>
      <use xlink:href="#DejaVuSans-6f" x="483.300781"/>
      <use xlink:href="#DejaVuSans-64" x="544.482422"/>
      <use xlink:href="#DejaVuSans-75" x="607.958984"/>
      <use xlink:href="#DejaVuSans-6c" x="671.337891"/>
      <use xlink:href="#DejaVuSans-65" x="699.121094"/>
      <use xlink:href="#DejaVuSans-73" x="760.644531"/>
      <use xlink:href="#DejaVuSans-2d" x="812.744141"/>
      <use xlink:href="#DejaVuSans-74" x="848.828125"/>
      <use xlink:href="#DejaVuSans-65" x="888.037109"/>
      <use xlink:href="#DejaVuSans-61" x="949.560547"/>
      <use xlink:href="#DejaVuSans-6d" x="1010.839844"/>
      <use xlink:href="#DejaVuSans-40" x="1108.251953"/>
      <use xlink:href="#DejaVuSans-6c" x="1208.251953"/>
      <use xlink:href="#DejaVuSans-69" x="1236.035156"/>
      <use xlink:href="#DejaVuSans-73" x="1263.818359"/>
      <use xlink:href="#DejaVuSans-74" x="1315.917969"/>
      <use xlink:href="#DejaVuSans-73" x="1355.126953"/>
      <use xlink:href="#DejaVuSans-2e" x="1407.226562"/>
      <use xlink:href="#DejaVuSans-61" x="1439.013672"/>
      <use xlink:href="#DejaVuSans-6c" x="1500.292969"/>
      <use xlink:href="#DejaVuSans-69" x="1528.076172"/>
      <use xlink:href="#DejaVuSans-6f" x="1555.859375"/>
      <use xlink:href="#DejaVuSans-74" x="1617.041016"/>
      <use xlink:href="#DejaVuSans-68" x="1656.25"/>
      <use xlink:href="#DejaVuSans-2e" x="1719.628906"/>
      <use xlink:href="#DejaVuSans-64" x="1751.416016"/>
      <use xlink:href="#DejaVuSans-65" x="1814.892578"/>
      <use xlink:href="#DejaVuSans-62" x="1876.416016"/>
      <use xlink:href="#DejaVuSans-69" x="1939.892578"/>
      <use xlink:href="#DejaVuSans-61" x="1967.675781"/>
      <use xlink:href="#DejaVuSans-6e" x="2028.955078"/>
      <use xlink:href="#DejaVuSans-2e" x="2092.333984"/>
      <use xlink:href="#DejaVuSans-6f" x="2124.121094"/>
      <use xlink:href="#DejaVuSans-72" x="2185.302734"/>
      <use xlink:href="#DejaVuSans-67" x="2224.666016"/>
      <use xlink:href="#DejaVuSans-20" x="2288.142578"/>
      <use xlink:href="#DejaVuSans-28" x="2319.929688"/>
      <use xlink:href="#DejaVuSans-34" x="2358.943359"/>
      <use xlink:href="#DejaVuSans-37" x="2422.566406"/>
      <use xlink:href="#DejaVuSans-38" x="2486.189453"/>
      <use xlink:href="#DejaVuSans-29" x="2549.8125"/>
     </g>
    </g>
    <g id="line2d_42">
     <path d="M 45.79 322.524399 
L 55.79 322.524399 
L 65.79 322.524399 
" style="fill: none; stroke: #ff7f0e; stroke-width: 1.5; stroke-linecap: square"/>
    </g>
    <g id="text_20">
     <!-- python-apps-team@lists.alioth.debian.org (13) -->
     <g transform="translate(73.79 326.024399)scale(0.1 -0.1)">
      <use xlink:href="#DejaVuSans-70"/>
      <use xlink:href="#DejaVuSans-79" x="63.476562"/>
      <use xlink:href="#DejaVuSans-74" x="122.65625"/>
      <use xlink:href="#DejaVuSans-68" x="161.865234"/>
      <use xlink:href="#DejaVuSans-6f" x="225.244141"/>
      <use xlink:href="#DejaVuSans-6e" x="286.425781"/>
      <use xlink:href="#DejaVuSans-2d" x="349.804688"/>
      <use xlink:href="#DejaVuSans-61" x="385.888672"/>
      <use xlink:href="#DejaVuSans-70" x="447.167969"/>
      <use xlink:href="#DejaVuSans-70" x="510.644531"/>
      <use xlink:href="#DejaVuSans-73" x="574.121094"/>
      <use xlink:href="#DejaVuSans-2d" x="626.220703"/>
      <use xlink:href="#DejaVuSans-74" x="662.304688"/>
      <use xlink:href="#DejaVuSans-65" x="701.513672"/>
      <use xlink:href="#DejaVuSans-61" x="763.037109"/>
      <use xlink:href="#DejaVuSans-6d" x="824.316406"/>
      <use xlink:href="#DejaVuSans-40" x="921.728516"/>
      <use xlink:href="#DejaVuSans-6c" x="1021.728516"/>
      <use xlink:href="#DejaVuSans-69" x="1049.511719"/>
      <use xlink:href="#DejaVuSans-73" x="1077.294922"/>
      <use xlink:href="#DejaVuSans-74" x="1129.394531"/>
      <use xlink:href="#DejaVuSans-73" x="1168.603516"/>
      <use xlink:href="#DejaVuSans-2e" x="1220.703125"/>
      <use xlink:href="#DejaVuSans-61" x="1252.490234"/>
      <use xlink:href="#DejaVuSans-6c" x="1313.769531"/>
      <use xlink:href="#DejaVuSans-69" x="1341.552734"/>
      <use xlink:href="#DejaVuSans-6f" x="1369.335938"/>
      <use xlink:href="#DejaVuSans-74" x="1430.517578"/>
      <use xlink:href="#DejaVuSans-68" x="1469.726562"/>
      <use xlink:href="#DejaVuSans-2e" x="1533.105469"/>
      <use xlink:href="#DejaVuSans-64" x="1564.892578"/>
      <use xlink:href="#DejaVuSans-65" x="1628.369141"/>
      <use xlink:href="#DejaVuSans-62" x="1689.892578"/>
      <use xlink:href="#DejaVuSans-69" x="1753.369141"/>
      <use xlink:href="#DejaVuSans-61" x="1781.152344"/>
      <use xlink:href="#DejaVuSans-6e" x="1842.431641"/>
      <use xlink:href="#DejaVuSans-2e" x="1905.810547"/>
      <use xlink:href="#DejaVuSans-6f" x="1937.597656"/>
      <use xlink:href="#DejaVuSans-72" x="1998.779297"/>
      <use xlink:href="#DejaVuSans-67" x="2038.142578"/>
      <use xlink:href="#DejaVuSans-20" x="2101.619141"/>
      <use xlink:href="#DejaVuSans-28" x="2133.40625"/>
      <use xlink:href="#DejaVuSans-31" x="2172.419922"/>
      <use xlink:href="#DejaVuSans-33" x="2236.042969"/>
      <use xlink:href="#DejaVuSans-29" x="2299.666016"/>
     </g>
    </g>
    <g id="line2d_43">
     <path d="M 45.79 337.202524 
L 55.79 337.202524 
L 65.79 337.202524 
" style="fill: none; stroke: #2ca02c; stroke-width: 1.5; stroke-linecap: square"/>
    </g>
    <g id="text_21">
     <!-- python-apps-team@alioth-lists.debian.net (0) -->
     <g transform="translate(73.79 340.702524)scale(0.1 -0.1)">
      <use xlink:href="#DejaVuSans-70"/>
      <use xlink:href="#DejaVuSans-79" x="63.476562"/>
      <use xlink:href="#DejaVuSans-74" x="122.65625"/>
      <use xlink:href="#DejaVuSans-68" x="161.865234"/>
      <use xlink:href="#DejaVuSans-6f" x="225.244141"/>
      <use xlink:href="#DejaVuSans-6e" x="286.425781"/>
      <use xlink:href="#DejaVuSans-2d" x="349.804688"/>
      <use xlink:href="#DejaVuSans-61" x="385.888672"/>
      <use xlink:href="#DejaVuSans-70" x="447.167969"/>
      <use xlink:href="#DejaVuSans-70" x="510.644531"/>
      <use xlink:href="#DejaVuSans-73" x="574.121094"/>
      <use xlink:href="#DejaVuSans-2d" x="626.220703"/>
      <use xlink:href="#DejaVuSans-74" x="662.304688"/>
      <use xlink:href="#DejaVuSans-65" x="701.513672"/>
      <use xlink:href="#DejaVuSans-61" x="763.037109"/>
      <use xlink:href="#DejaVuSans-6d" x="824.316406"/>
      <use xlink:href="#DejaVuSans-40" x="921.728516"/>
      <use xlink:href="#DejaVuSans-61" x="1021.728516"/>
      <use xlink:href="#DejaVuSans-6c" x="1083.007812"/>
      <use xlink:href="#DejaVuSans-69" x="1110.791016"/>
      <use xlink:href="#DejaVuSans-6f" x="1138.574219"/>
      <use xlink:href="#DejaVuSans-74" x="1199.755859"/>
      <use xlink:href="#DejaVuSans-68" x="1238.964844"/>
      <use xlink:href="#DejaVuSans-2d" x="1302.34375"/>
      <use xlink:href="#DejaVuSans-6c" x="1338.427734"/>
      <use xlink:href="#DejaVuSans-69" x="1366.210938"/>
      <use xlink:href="#DejaVuSans-73" x="1393.994141"/>
      <use xlink:href="#DejaVuSans-74" x="1446.09375"/>
      <use xlink:href="#DejaVuSans-73" x="1485.302734"/>
      <use xlink:href="#DejaVuSans-2e" x="1537.402344"/>
      <use xlink:href="#DejaVuSans-64" x="1569.189453"/>
      <use xlink:href="#DejaVuSans-65" x="1632.666016"/>
      <use xlink:href="#DejaVuSans-62" x="1694.189453"/>
      <use xlink:href="#DejaVuSans-69" x="1757.666016"/>
      <use xlink:href="#DejaVuSans-61" x="1785.449219"/>
      <use xlink:href="#DejaVuSans-6e" x="1846.728516"/>
      <use xlink:href="#DejaVuSans-2e" x="1910.107422"/>
      <use xlink:href="#DejaVuSans-6e" x="1941.894531"/>
      <use xlink:href="#DejaVuSans-65" x="2005.273438"/>
      <use xlink:href="#DejaVuSans-74" x="2066.796875"/>
      <use xlink:href="#DejaVuSans-20" x="2106.005859"/>
      <use xlink:href="#DejaVuSans-28" x="2137.792969"/>
      <use xlink:href="#DejaVuSans-30" x="2176.806641"/>
      <use xlink:href="#DejaVuSans-29" x="2240.429688"/>
     </g>
    </g>
    <g id="line2d_44">
     <path d="M 45.79 351.880649 
L 55.79 351.880649 
L 65.79 351.880649 
" style="fill: none; stroke: #d62728; stroke-width: 1.5; stroke-linecap: square"/>
    </g>
    <g id="text_22">
     <!-- python-apps-team@lists.alioth.debian.net (0) -->
     <g transform="translate(73.79 355.380649)scale(0.1 -0.1)">
      <use xlink:href="#DejaVuSans-70"/>
      <use xlink:href="#DejaVuSans-79" x="63.476562"/>
      <use xlink:href="#DejaVuSans-74" x="122.65625"/>
      <use xlink:href="#DejaVuSans-68" x="161.865234"/>
      <use xlink:href="#DejaVuSans-6f" x="225.244141"/>
      <use xlink:href="#DejaVuSans-6e" x="286.425781"/>
      <use xlink:href="#DejaVuSans-2d" x="349.804688"/>
      <use xlink:href="#DejaVuSans-61" x="385.888672"/>
      <use xlink:href="#DejaVuSans-70" x="447.167969"/>
      <use xlink:href="#DejaVuSans-70" x="510.644531"/>
      <use xlink:href="#DejaVuSans-73" x="574.121094"/>
      <use xlink:href="#DejaVuSans-2d" x="626.220703"/>
      <use xlink:href="#DejaVuSans-74" x="662.304688"/>
      <use xlink:href="#DejaVuSans-65" x="701.513672"/>
      <use xlink:href="#DejaVuSans-61" x="763.037109"/>
      <use xlink:href="#DejaVuSans-6d" x="824.316406"/>
      <use xlink:href="#DejaVuSans-40" x="921.728516"/>
      <use xlink:href="#DejaVuSans-6c" x="1021.728516"/>
      <use xlink:href="#DejaVuSans-69" x="1049.511719"/>
      <use xlink:href="#DejaVuSans-73" x="1077.294922"/>
      <use xlink:href="#DejaVuSans-74" x="1129.394531"/>
      <use xlink:href="#DejaVuSans-73" x="1168.603516"/>
      <use xlink:href="#DejaVuSans-2e" x="1220.703125"/>
      <use xlink:href="#DejaVuSans-61" x="1252.490234"/>
      <use xlink:href="#DejaVuSans-6c" x="1313.769531"/>
      <use xlink:href="#DejaVuSans-69" x="1341.552734"/>
      <use xlink:href="#DejaVuSans-6f" x="1369.335938"/>
      <use xlink:href="#DejaVuSans-74" x="1430.517578"/>
      <use xlink:href="#DejaVuSans-68" x="1469.726562"/>
      <use xlink:href="#DejaVuSans-2e" x="1533.105469"/>
      <use xlink:href="#DejaVuSans-64" x="1564.892578"/>
      <use xlink:href="#DejaVuSans-65" x="1628.369141"/>
      <use xlink:href="#DejaVuSans-62" x="1689.892578"/>
      <use xlink:href="#DejaVuSans-69" x="1753.369141"/>
      <use xlink:href="#DejaVuSans-61" x="1781.152344"/>
      <use xlink:href="#DejaVuSans-6e" x="1842.431641"/>
      <use xlink:href="#DejaVuSans-2e" x="1905.810547"/>
      <use xlink:href="#DejaVuSans-6e" x="1937.597656"/>
      <use xlink:href="#DejaVuSans-65" x="2000.976562"/>
      <use xlink:href="#DejaVuSans-74" x="2062.5"/>
      <use xlink:href="#DejaVuSans-20" x="2101.708984"/>
      <use xlink:href="#DejaVuSans-28" x="2133.496094"/>
      <use xlink:href="#DejaVuSans-30" x="2172.509766"/>
      <use xlink:href="#DejaVuSans-29" x="2236.132812"/>
     </g>
    </g>
    <g id="line2d_45">
     <path d="M 45.79 366.558774 
L 55.79 366.558774 
L 65.79 366.558774 
" style="fill: none; stroke: #9467bd; stroke-width: 1.5; stroke-linecap: square"/>
    </g>
    <g id="text_23">
     <!-- python-modules-team@alioth-lists.debian.net (0) -->
     <g transform="translate(73.79 370.058774)scale(0.1 -0.1)">
      <use xlink:href="#DejaVuSans-70"/>
      <use xlink:href="#DejaVuSans-79" x="63.476562"/>
      <use xlink:href="#DejaVuSans-74" x="122.65625"/>
      <use xlink:href="#DejaVuSans-68" x="161.865234"/>
      <use xlink:href="#DejaVuSans-6f" x="225.244141"/>
      <use xlink:href="#DejaVuSans-6e" x="286.425781"/>
      <use xlink:href="#DejaVuSans-2d" x="349.804688"/>
      <use xlink:href="#DejaVuSans-6d" x="385.888672"/>
      <use xlink:href="#DejaVuSans-6f" x="483.300781"/>
      <use xlink:href="#DejaVuSans-64" x="544.482422"/>
      <use xlink:href="#DejaVuSans-75" x="607.958984"/>
      <use xlink:href="#DejaVuSans-6c" x="671.337891"/>
      <use xlink:href="#DejaVuSans-65" x="699.121094"/>
      <use xlink:href="#DejaVuSans-73" x="760.644531"/>
      <use xlink:href="#DejaVuSans-2d" x="812.744141"/>
      <use xlink:href="#DejaVuSans-74" x="848.828125"/>
      <use xlink:href="#DejaVuSans-65" x="888.037109"/>
      <use xlink:href="#DejaVuSans-61" x="949.560547"/>
      <use xlink:href="#DejaVuSans-6d" x="1010.839844"/>
      <use xlink:href="#DejaVuSans-40" x="1108.251953"/>
      <use xlink:href="#DejaVuSans-61" x="1208.251953"/>
      <use xlink:href="#DejaVuSans-6c" x="1269.53125"/>
      <use xlink:href="#DejaVuSans-69" x="1297.314453"/>
      <use xlink:href="#DejaVuSans-6f" x="1325.097656"/>
      <use xlink:href="#DejaVuSans-74" x="1386.279297"/>
      <use xlink:href="#DejaVuSans-68" x="1425.488281"/>
      <use xlink:href="#DejaVuSans-2d" x="1488.867188"/>
      <use xlink:href="#DejaVuSans-6c" x="1524.951172"/>
      <use xlink:href="#DejaVuSans-69" x="1552.734375"/>
      <use xlink:href="#DejaVuSans-73" x="1580.517578"/>
      <use xlink:href="#DejaVuSans-74" x="1632.617188"/>
      <use xlink:href="#DejaVuSans-73" x="1671.826172"/>
      <use xlink:href="#DejaVuSans-2e" x="1723.925781"/>
      <use xlink:href="#DejaVuSans-64" x="1755.712891"/>
      <use xlink:href="#DejaVuSans-65" x="1819.189453"/>
      <use xlink:href="#DejaVuSans-62" x="1880.712891"/>
      <use xlink:href="#DejaVuSans-69" x="1944.189453"/>
      <use xlink:href="#DejaVuSans-61" x="1971.972656"/>
      <use xlink:href="#DejaVuSans-6e" x="2033.251953"/>
      <use xlink:href="#DejaVuSans-2e" x="2096.630859"/>
      <use xlink:href="#DejaVuSans-6e" x="2128.417969"/>
      <use xlink:href="#DejaVuSans-65" x="2191.796875"/>
      <use xlink:href="#DejaVuSans-74" x="2253.320312"/>
      <use xlink:href="#DejaVuSans-20" x="2292.529297"/>
      <use xlink:href="#DejaVuSans-28" x="2324.316406"/>
      <use xlink:href="#DejaVuSans-30" x="2363.330078"/>
      <use xlink:href="#DejaVuSans-29" x="2426.953125"/>
     </g>
    </g>
    <g id="line2d_46">
     <path d="M 45.79 381.236899 
L 55.79 381.236899 
L 65.79 381.236899 
" style="fill: none; stroke: #8c564b; stroke-width: 1.5; stroke-linecap: square"/>
    </g>
    <g id="text_24">
     <!-- team+python-modules@tracker.debian.org (0) -->
     <g transform="translate(73.79 384.736899)scale(0.1 -0.1)">
      <use xlink:href="#DejaVuSans-74"/>
      <use xlink:href="#DejaVuSans-65" x="39.208984"/>
      <use xlink:href="#DejaVuSans-61" x="100.732422"/>
      <use xlink:href="#DejaVuSans-6d" x="162.011719"/>
      <use xlink:href="#DejaVuSans-2b" x="259.423828"/>
      <use xlink:href="#DejaVuSans-70" x="343.212891"/>
      <use xlink:href="#DejaVuSans-79" x="406.689453"/>
      <use xlink:href="#DejaVuSans-74" x="465.869141"/>
      <use xlink:href="#DejaVuSans-68" x="505.078125"/>
      <use xlink:href="#DejaVuSans-6f" x="568.457031"/>
      <use xlink:href="#DejaVuSans-6e" x="629.638672"/>
      <use xlink:href="#DejaVuSans-2d" x="693.017578"/>
      <use xlink:href="#DejaVuSans-6d" x="729.101562"/>
      <use xlink:href="#DejaVuSans-6f" x="826.513672"/>
      <use xlink:href="#DejaVuSans-64" x="887.695312"/>
      <use xlink:href="#DejaVuSans-75" x="951.171875"/>
      <use xlink:href="#DejaVuSans-6c" x="1014.550781"/>
      <use xlink:href="#DejaVuSans-65" x="1042.333984"/>
      <use xlink:href="#DejaVuSans-73" x="1103.857422"/>
      <use xlink:href="#DejaVuSans-40" x="1155.957031"/>
      <use xlink:href="#DejaVuSans-74" x="1255.957031"/>
      <use xlink:href="#DejaVuSans-72" x="1295.166016"/>
      <use xlink:href="#DejaVuSans-61" x="1336.279297"/>
      <use xlink:href="#DejaVuSans-63" x="1397.558594"/>
      <use xlink:href="#DejaVuSans-6b" x="1452.539062"/>
      <use xlink:href="#DejaVuSans-65" x="1506.824219"/>
      <use xlink:href="#DejaVuSans-72" x="1568.347656"/>
      <use xlink:href="#DejaVuSans-2e" x="1600.335938"/>
      <use xlink:href="#DejaVuSans-64" x="1632.123047"/>
      <use xlink:href="#DejaVuSans-65" x="1695.599609"/>
      <use xlink:href="#DejaVuSans-62" x="1757.123047"/>
      <use xlink:href="#DejaVuSans-69" x="1820.599609"/>
      <use xlink:href="#DejaVuSans-61" x="1848.382812"/>
      <use xlink:href="#DejaVuSans-6e" x="1909.662109"/>
      <use xlink:href="#DejaVuSans-2e" x="1973.041016"/>
      <use xlink:href="#DejaVuSans-6f" x="2004.828125"/>
      <use xlink:href="#DejaVuSans-72" x="2066.009766"/>
      <use xlink:href="#DejaVuSans-67" x="2105.373047"/>
      <use xlink:href="#DejaVuSans-20" x="2168.849609"/>
      <use xlink:href="#DejaVuSans-28" x="2200.636719"/>
      <use xlink:href="#DejaVuSans-30" x="2239.650391"/>
      <use xlink:href="#DejaVuSans-29" x="2303.273438"/>
     </g>
    </g>
    <g id="line2d_47">
     <path d="M 45.79 395.915024 
L 55.79 395.915024 
L 65.79 395.915024 
" style="fill: none; stroke: #e377c2; stroke-width: 1.5; stroke-linecap: square"/>
    </g>
    <g id="text_25">
     <!-- debian-python@lists.debian.org (0) -->
     <g transform="translate(73.79 399.415024)scale(0.1 -0.1)">
      <use xlink:href="#DejaVuSans-64"/>
      <use xlink:href="#DejaVuSans-65" x="63.476562"/>
      <use xlink:href="#DejaVuSans-62" x="125"/>
      <use xlink:href="#DejaVuSans-69" x="188.476562"/>
      <use xlink:href="#DejaVuSans-61" x="216.259766"/>
      <use xlink:href="#DejaVuSans-6e" x="277.539062"/>
      <use xlink:href="#DejaVuSans-2d" x="340.917969"/>
      <use xlink:href="#DejaVuSans-70" x="377.001953"/>
      <use xlink:href="#DejaVuSans-79" x="440.478516"/>
      <use xlink:href="#DejaVuSans-74" x="499.658203"/>
      <use xlink:href="#DejaVuSans-68" x="538.867188"/>
      <use xlink:href="#DejaVuSans-6f" x="602.246094"/>
      <use xlink:href="#DejaVuSans-6e" x="663.427734"/>
      <use xlink:href="#DejaVuSans-40" x="726.806641"/>
      <use xlink:href="#DejaVuSans-6c" x="826.806641"/>
      <use xlink:href="#DejaVuSans-69" x="854.589844"/>
      <use xlink:href="#DejaVuSans-73" x="882.373047"/>
      <use xlink:href="#DejaVuSans-74" x="934.472656"/>
      <use xlink:href="#DejaVuSans-73" x="973.681641"/>
      <use xlink:href="#DejaVuSans-2e" x="1025.78125"/>
      <use xlink:href="#DejaVuSans-64" x="1057.568359"/>
      <use xlink:href="#DejaVuSans-65" x="1121.044922"/>
      <use xlink:href="#DejaVuSans-62" x="1182.568359"/>
      <use xlink:href="#DejaVuSans-69" x="1246.044922"/>
      <use xlink:href="#DejaVuSans-61" x="1273.828125"/>
      <use xlink:href="#DejaVuSans-6e" x="1335.107422"/>
      <use xlink:href="#DejaVuSans-2e" x="1398.486328"/>
      <use xlink:href="#DejaVuSans-6f" x="1430.273438"/>
      <use xlink:href="#DejaVuSans-72" x="1491.455078"/>
      <use xlink:href="#DejaVuSans-67" x="1530.818359"/>
      <use xlink:href="#DejaVuSans-20" x="1594.294922"/>
      <use xlink:href="#DejaVuSans-28" x="1626.082031"/>
      <use xlink:href="#DejaVuSans-30" x="1665.095703"/>
      <use xlink:href="#DejaVuSans-29" x="1728.71875"/>
     </g>
    </g>
   </g>
  </g>
 </g>
 <defs>
  <clipPath id="pdaa7f174d9">
   <rect x="36.79" y="10.8" width="1104.41" height="668.964424"/>
  </clipPath>
 </defs>
</svg>
