<?xml version="1.0" encoding="utf-8" standalone="no"?>
<!DOCTYPE svg PUBLIC "-//W3C//DTD SVG 1.1//EN"
  "http://www.w3.org/Graphics/SVG/1.1/DTD/svg11.dtd">
<svg xmlns:xlink="http://www.w3.org/1999/xlink" width="1152pt" height="720pt" viewBox="0 0 1152 720" xmlns="http://www.w3.org/2000/svg" version="1.1">
 <metadata>
  <rdf:RDF xmlns:dc="http://purl.org/dc/elements/1.1/" xmlns:cc="http://creativecommons.org/ns#" xmlns:rdf="http://www.w3.org/1999/02/22-rdf-syntax-ns#">
   <cc:Work>
    <dc:type rdf:resource="http://purl.org/dc/dcmitype/StillImage"/>
    <dc:date>2021-11-22T18:40:08.210778</dc:date>
    <dc:format>image/svg+xml</dc:format>
    <dc:creator>
     <cc:Agent>
      <dc:title>Matplotlib v3.5.0, https://matplotlib.org/</dc:title>
     </cc:Agent>
    </dc:creator>
   </cc:Work>
  </rdf:RDF>
 </metadata>
 <defs>
  <style type="text/css">*{stroke-linejoin: round; stroke-linecap: butt}</style>
 </defs>
 <g id="figure_1">
  <g id="patch_1">
   <path d="M 0 720 
L 1152 720 
L 1152 0 
L 0 0 
z
" style="fill: #ffffff"/>
  </g>
  <g id="axes_1">
   <g id="patch_2">
    <path d="M 44.934294 674.758348 
L 1141.2 674.758348 
L 1141.2 10.8 
L 44.934294 10.8 
z
" style="fill: #ffffff"/>
   </g>
   <g id="matplotlib.axis_1">
    <g id="xtick_1">
     <g id="line2d_1">
      <path d="M 74.215993 674.758348 
L 74.215993 10.8 
" clip-path="url(#p9fe0c03f5c)" style="fill: none; stroke: #b0b0b0; stroke-width: 0.8; stroke-linecap: square"/>
     </g>
     <g id="line2d_2">
      <defs>
       <path id="mf579d8f124" d="M 0 0 
L 0 3.5 
" style="stroke: #000000; stroke-width: 0.8"/>
      </defs>
      <g>
       <use xlink:href="#mf579d8f124" x="74.215993" y="674.758348" style="stroke: #000000; stroke-width: 0.8"/>
      </g>
     </g>
     <g id="text_1">
      <!-- 2021-08-15 -->
      <g transform="translate(18.30209 706.943608)rotate(-18)scale(0.1 -0.1)">
       <defs>
        <path id="DejaVuSans-32" d="M 1228 531 
L 3431 531 
L 3431 0 
L 469 0 
L 469 531 
Q 828 903 1448 1529 
Q 2069 2156 2228 2338 
Q 2531 2678 2651 2914 
Q 2772 3150 2772 3378 
Q 2772 3750 2511 3984 
Q 2250 4219 1831 4219 
Q 1534 4219 1204 4116 
Q 875 4013 500 3803 
L 500 4441 
Q 881 4594 1212 4672 
Q 1544 4750 1819 4750 
Q 2544 4750 2975 4387 
Q 3406 4025 3406 3419 
Q 3406 3131 3298 2873 
Q 3191 2616 2906 2266 
Q 2828 2175 2409 1742 
Q 1991 1309 1228 531 
z
" transform="scale(0.015625)"/>
        <path id="DejaVuSans-30" d="M 2034 4250 
Q 1547 4250 1301 3770 
Q 1056 3291 1056 2328 
Q 1056 1369 1301 889 
Q 1547 409 2034 409 
Q 2525 409 2770 889 
Q 3016 1369 3016 2328 
Q 3016 3291 2770 3770 
Q 2525 4250 2034 4250 
z
M 2034 4750 
Q 2819 4750 3233 4129 
Q 3647 3509 3647 2328 
Q 3647 1150 3233 529 
Q 2819 -91 2034 -91 
Q 1250 -91 836 529 
Q 422 1150 422 2328 
Q 422 3509 836 4129 
Q 1250 4750 2034 4750 
z
" transform="scale(0.015625)"/>
        <path id="DejaVuSans-31" d="M 794 531 
L 1825 531 
L 1825 4091 
L 703 3866 
L 703 4441 
L 1819 4666 
L 2450 4666 
L 2450 531 
L 3481 531 
L 3481 0 
L 794 0 
L 794 531 
z
" transform="scale(0.015625)"/>
        <path id="DejaVuSans-2d" d="M 313 2009 
L 1997 2009 
L 1997 1497 
L 313 1497 
L 313 2009 
z
" transform="scale(0.015625)"/>
        <path id="DejaVuSans-38" d="M 2034 2216 
Q 1584 2216 1326 1975 
Q 1069 1734 1069 1313 
Q 1069 891 1326 650 
Q 1584 409 2034 409 
Q 2484 409 2743 651 
Q 3003 894 3003 1313 
Q 3003 1734 2745 1975 
Q 2488 2216 2034 2216 
z
M 1403 2484 
Q 997 2584 770 2862 
Q 544 3141 544 3541 
Q 544 4100 942 4425 
Q 1341 4750 2034 4750 
Q 2731 4750 3128 4425 
Q 3525 4100 3525 3541 
Q 3525 3141 3298 2862 
Q 3072 2584 2669 2484 
Q 3125 2378 3379 2068 
Q 3634 1759 3634 1313 
Q 3634 634 3220 271 
Q 2806 -91 2034 -91 
Q 1263 -91 848 271 
Q 434 634 434 1313 
Q 434 1759 690 2068 
Q 947 2378 1403 2484 
z
M 1172 3481 
Q 1172 3119 1398 2916 
Q 1625 2713 2034 2713 
Q 2441 2713 2670 2916 
Q 2900 3119 2900 3481 
Q 2900 3844 2670 4047 
Q 2441 4250 2034 4250 
Q 1625 4250 1398 4047 
Q 1172 3844 1172 3481 
z
" transform="scale(0.015625)"/>
        <path id="DejaVuSans-35" d="M 691 4666 
L 3169 4666 
L 3169 4134 
L 1269 4134 
L 1269 2991 
Q 1406 3038 1543 3061 
Q 1681 3084 1819 3084 
Q 2600 3084 3056 2656 
Q 3513 2228 3513 1497 
Q 3513 744 3044 326 
Q 2575 -91 1722 -91 
Q 1428 -91 1123 -41 
Q 819 9 494 109 
L 494 744 
Q 775 591 1075 516 
Q 1375 441 1709 441 
Q 2250 441 2565 725 
Q 2881 1009 2881 1497 
Q 2881 1984 2565 2268 
Q 2250 2553 1709 2553 
Q 1456 2553 1204 2497 
Q 953 2441 691 2322 
L 691 4666 
z
" transform="scale(0.015625)"/>
       </defs>
       <use xlink:href="#DejaVuSans-32"/>
       <use xlink:href="#DejaVuSans-30" x="63.623047"/>
       <use xlink:href="#DejaVuSans-32" x="127.246094"/>
       <use xlink:href="#DejaVuSans-31" x="190.869141"/>
       <use xlink:href="#DejaVuSans-2d" x="254.492188"/>
       <use xlink:href="#DejaVuSans-30" x="290.576172"/>
       <use xlink:href="#DejaVuSans-38" x="354.199219"/>
       <use xlink:href="#DejaVuSans-2d" x="417.822266"/>
       <use xlink:href="#DejaVuSans-31" x="453.90625"/>
       <use xlink:href="#DejaVuSans-35" x="517.529297"/>
      </g>
     </g>
    </g>
    <g id="xtick_2">
     <g id="line2d_3">
      <path d="M 248.878758 674.758348 
L 248.878758 10.8 
" clip-path="url(#p9fe0c03f5c)" style="fill: none; stroke: #b0b0b0; stroke-width: 0.8; stroke-linecap: square"/>
     </g>
     <g id="line2d_4">
      <g>
       <use xlink:href="#mf579d8f124" x="248.878758" y="674.758348" style="stroke: #000000; stroke-width: 0.8"/>
      </g>
     </g>
     <g id="text_2">
      <!-- 2021-09-01 -->
      <g transform="translate(192.964855 706.943608)rotate(-18)scale(0.1 -0.1)">
       <defs>
        <path id="DejaVuSans-39" d="M 703 97 
L 703 672 
Q 941 559 1184 500 
Q 1428 441 1663 441 
Q 2288 441 2617 861 
Q 2947 1281 2994 2138 
Q 2813 1869 2534 1725 
Q 2256 1581 1919 1581 
Q 1219 1581 811 2004 
Q 403 2428 403 3163 
Q 403 3881 828 4315 
Q 1253 4750 1959 4750 
Q 2769 4750 3195 4129 
Q 3622 3509 3622 2328 
Q 3622 1225 3098 567 
Q 2575 -91 1691 -91 
Q 1453 -91 1209 -44 
Q 966 3 703 97 
z
M 1959 2075 
Q 2384 2075 2632 2365 
Q 2881 2656 2881 3163 
Q 2881 3666 2632 3958 
Q 2384 4250 1959 4250 
Q 1534 4250 1286 3958 
Q 1038 3666 1038 3163 
Q 1038 2656 1286 2365 
Q 1534 2075 1959 2075 
z
" transform="scale(0.015625)"/>
       </defs>
       <use xlink:href="#DejaVuSans-32"/>
       <use xlink:href="#DejaVuSans-30" x="63.623047"/>
       <use xlink:href="#DejaVuSans-32" x="127.246094"/>
       <use xlink:href="#DejaVuSans-31" x="190.869141"/>
       <use xlink:href="#DejaVuSans-2d" x="254.492188"/>
       <use xlink:href="#DejaVuSans-30" x="290.576172"/>
       <use xlink:href="#DejaVuSans-39" x="354.199219"/>
       <use xlink:href="#DejaVuSans-2d" x="417.822266"/>
       <use xlink:href="#DejaVuSans-30" x="453.90625"/>
       <use xlink:href="#DejaVuSans-31" x="517.529297"/>
      </g>
     </g>
    </g>
    <g id="xtick_3">
     <g id="line2d_5">
      <path d="M 392.718681 674.758348 
L 392.718681 10.8 
" clip-path="url(#p9fe0c03f5c)" style="fill: none; stroke: #b0b0b0; stroke-width: 0.8; stroke-linecap: square"/>
     </g>
     <g id="line2d_6">
      <g>
       <use xlink:href="#mf579d8f124" x="392.718681" y="674.758348" style="stroke: #000000; stroke-width: 0.8"/>
      </g>
     </g>
     <g id="text_3">
      <!-- 2021-09-15 -->
      <g transform="translate(336.804779 706.943608)rotate(-18)scale(0.1 -0.1)">
       <use xlink:href="#DejaVuSans-32"/>
       <use xlink:href="#DejaVuSans-30" x="63.623047"/>
       <use xlink:href="#DejaVuSans-32" x="127.246094"/>
       <use xlink:href="#DejaVuSans-31" x="190.869141"/>
       <use xlink:href="#DejaVuSans-2d" x="254.492188"/>
       <use xlink:href="#DejaVuSans-30" x="290.576172"/>
       <use xlink:href="#DejaVuSans-39" x="354.199219"/>
       <use xlink:href="#DejaVuSans-2d" x="417.822266"/>
       <use xlink:href="#DejaVuSans-31" x="453.90625"/>
       <use xlink:href="#DejaVuSans-35" x="517.529297"/>
      </g>
     </g>
    </g>
    <g id="xtick_4">
     <g id="line2d_7">
      <path d="M 557.107166 674.758348 
L 557.107166 10.8 
" clip-path="url(#p9fe0c03f5c)" style="fill: none; stroke: #b0b0b0; stroke-width: 0.8; stroke-linecap: square"/>
     </g>
     <g id="line2d_8">
      <g>
       <use xlink:href="#mf579d8f124" x="557.107166" y="674.758348" style="stroke: #000000; stroke-width: 0.8"/>
      </g>
     </g>
     <g id="text_4">
      <!-- 2021-10-01 -->
      <g transform="translate(501.193263 706.943608)rotate(-18)scale(0.1 -0.1)">
       <use xlink:href="#DejaVuSans-32"/>
       <use xlink:href="#DejaVuSans-30" x="63.623047"/>
       <use xlink:href="#DejaVuSans-32" x="127.246094"/>
       <use xlink:href="#DejaVuSans-31" x="190.869141"/>
       <use xlink:href="#DejaVuSans-2d" x="254.492188"/>
       <use xlink:href="#DejaVuSans-31" x="290.576172"/>
       <use xlink:href="#DejaVuSans-30" x="354.199219"/>
       <use xlink:href="#DejaVuSans-2d" x="417.822266"/>
       <use xlink:href="#DejaVuSans-30" x="453.90625"/>
       <use xlink:href="#DejaVuSans-31" x="517.529297"/>
      </g>
     </g>
    </g>
    <g id="xtick_5">
     <g id="line2d_9">
      <path d="M 700.94709 674.758348 
L 700.94709 10.8 
" clip-path="url(#p9fe0c03f5c)" style="fill: none; stroke: #b0b0b0; stroke-width: 0.8; stroke-linecap: square"/>
     </g>
     <g id="line2d_10">
      <g>
       <use xlink:href="#mf579d8f124" x="700.94709" y="674.758348" style="stroke: #000000; stroke-width: 0.8"/>
      </g>
     </g>
     <g id="text_5">
      <!-- 2021-10-15 -->
      <g transform="translate(645.033187 706.943608)rotate(-18)scale(0.1 -0.1)">
       <use xlink:href="#DejaVuSans-32"/>
       <use xlink:href="#DejaVuSans-30" x="63.623047"/>
       <use xlink:href="#DejaVuSans-32" x="127.246094"/>
       <use xlink:href="#DejaVuSans-31" x="190.869141"/>
       <use xlink:href="#DejaVuSans-2d" x="254.492188"/>
       <use xlink:href="#DejaVuSans-31" x="290.576172"/>
       <use xlink:href="#DejaVuSans-30" x="354.199219"/>
       <use xlink:href="#DejaVuSans-2d" x="417.822266"/>
       <use xlink:href="#DejaVuSans-31" x="453.90625"/>
       <use xlink:href="#DejaVuSans-35" x="517.529297"/>
      </g>
     </g>
    </g>
    <g id="xtick_6">
     <g id="line2d_11">
      <path d="M 875.609855 674.758348 
L 875.609855 10.8 
" clip-path="url(#p9fe0c03f5c)" style="fill: none; stroke: #b0b0b0; stroke-width: 0.8; stroke-linecap: square"/>
     </g>
     <g id="line2d_12">
      <g>
       <use xlink:href="#mf579d8f124" x="875.609855" y="674.758348" style="stroke: #000000; stroke-width: 0.8"/>
      </g>
     </g>
     <g id="text_6">
      <!-- 2021-11-01 -->
      <g transform="translate(819.695952 706.943608)rotate(-18)scale(0.1 -0.1)">
       <use xlink:href="#DejaVuSans-32"/>
       <use xlink:href="#DejaVuSans-30" x="63.623047"/>
       <use xlink:href="#DejaVuSans-32" x="127.246094"/>
       <use xlink:href="#DejaVuSans-31" x="190.869141"/>
       <use xlink:href="#DejaVuSans-2d" x="254.492188"/>
       <use xlink:href="#DejaVuSans-31" x="290.576172"/>
       <use xlink:href="#DejaVuSans-31" x="354.199219"/>
       <use xlink:href="#DejaVuSans-2d" x="417.822266"/>
       <use xlink:href="#DejaVuSans-30" x="453.90625"/>
       <use xlink:href="#DejaVuSans-31" x="517.529297"/>
      </g>
     </g>
    </g>
    <g id="xtick_7">
     <g id="line2d_13">
      <path d="M 1019.449779 674.758348 
L 1019.449779 10.8 
" clip-path="url(#p9fe0c03f5c)" style="fill: none; stroke: #b0b0b0; stroke-width: 0.8; stroke-linecap: square"/>
     </g>
     <g id="line2d_14">
      <g>
       <use xlink:href="#mf579d8f124" x="1019.449779" y="674.758348" style="stroke: #000000; stroke-width: 0.8"/>
      </g>
     </g>
     <g id="text_7">
      <!-- 2021-11-15 -->
      <g transform="translate(963.535876 706.943608)rotate(-18)scale(0.1 -0.1)">
       <use xlink:href="#DejaVuSans-32"/>
       <use xlink:href="#DejaVuSans-30" x="63.623047"/>
       <use xlink:href="#DejaVuSans-32" x="127.246094"/>
       <use xlink:href="#DejaVuSans-31" x="190.869141"/>
       <use xlink:href="#DejaVuSans-2d" x="254.492188"/>
       <use xlink:href="#DejaVuSans-31" x="290.576172"/>
       <use xlink:href="#DejaVuSans-31" x="354.199219"/>
       <use xlink:href="#DejaVuSans-2d" x="417.822266"/>
       <use xlink:href="#DejaVuSans-31" x="453.90625"/>
       <use xlink:href="#DejaVuSans-35" x="517.529297"/>
      </g>
     </g>
    </g>
   </g>
   <g id="matplotlib.axis_2">
    <g id="ytick_1">
     <g id="line2d_15">
      <path d="M 44.934294 645.334813 
L 1141.2 645.334813 
" clip-path="url(#p9fe0c03f5c)" style="fill: none; stroke: #b0b0b0; stroke-width: 0.8; stroke-linecap: square"/>
     </g>
     <g id="line2d_16">
      <defs>
       <path id="m8f05556ae9" d="M 0 0 
L -3.5 0 
" style="stroke: #000000; stroke-width: 0.8"/>
      </defs>
      <g>
       <use xlink:href="#m8f05556ae9" x="44.934294" y="645.334813" style="stroke: #000000; stroke-width: 0.8"/>
      </g>
     </g>
     <g id="text_8">
      <!-- 0 -->
      <g transform="translate(31.571794 649.134031)scale(0.1 -0.1)">
       <use xlink:href="#DejaVuSans-30"/>
      </g>
     </g>
    </g>
    <g id="ytick_2">
     <g id="line2d_17">
      <path d="M 44.934294 569.695903 
L 1141.2 569.695903 
" clip-path="url(#p9fe0c03f5c)" style="fill: none; stroke: #b0b0b0; stroke-width: 0.8; stroke-linecap: square"/>
     </g>
     <g id="line2d_18">
      <g>
       <use xlink:href="#m8f05556ae9" x="44.934294" y="569.695903" style="stroke: #000000; stroke-width: 0.8"/>
      </g>
     </g>
     <g id="text_9">
      <!-- 100 -->
      <g transform="translate(18.846794 573.495122)scale(0.1 -0.1)">
       <use xlink:href="#DejaVuSans-31"/>
       <use xlink:href="#DejaVuSans-30" x="63.623047"/>
       <use xlink:href="#DejaVuSans-30" x="127.246094"/>
      </g>
     </g>
    </g>
    <g id="ytick_3">
     <g id="line2d_19">
      <path d="M 44.934294 494.056993 
L 1141.2 494.056993 
" clip-path="url(#p9fe0c03f5c)" style="fill: none; stroke: #b0b0b0; stroke-width: 0.8; stroke-linecap: square"/>
     </g>
     <g id="line2d_20">
      <g>
       <use xlink:href="#m8f05556ae9" x="44.934294" y="494.056993" style="stroke: #000000; stroke-width: 0.8"/>
      </g>
     </g>
     <g id="text_10">
      <!-- 200 -->
      <g transform="translate(18.846794 497.856212)scale(0.1 -0.1)">
       <use xlink:href="#DejaVuSans-32"/>
       <use xlink:href="#DejaVuSans-30" x="63.623047"/>
       <use xlink:href="#DejaVuSans-30" x="127.246094"/>
      </g>
     </g>
    </g>
    <g id="ytick_4">
     <g id="line2d_21">
      <path d="M 44.934294 418.418084 
L 1141.2 418.418084 
" clip-path="url(#p9fe0c03f5c)" style="fill: none; stroke: #b0b0b0; stroke-width: 0.8; stroke-linecap: square"/>
     </g>
     <g id="line2d_22">
      <g>
       <use xlink:href="#m8f05556ae9" x="44.934294" y="418.418084" style="stroke: #000000; stroke-width: 0.8"/>
      </g>
     </g>
     <g id="text_11">
      <!-- 300 -->
      <g transform="translate(18.846794 422.217303)scale(0.1 -0.1)">
       <defs>
        <path id="DejaVuSans-33" d="M 2597 2516 
Q 3050 2419 3304 2112 
Q 3559 1806 3559 1356 
Q 3559 666 3084 287 
Q 2609 -91 1734 -91 
Q 1441 -91 1130 -33 
Q 819 25 488 141 
L 488 750 
Q 750 597 1062 519 
Q 1375 441 1716 441 
Q 2309 441 2620 675 
Q 2931 909 2931 1356 
Q 2931 1769 2642 2001 
Q 2353 2234 1838 2234 
L 1294 2234 
L 1294 2753 
L 1863 2753 
Q 2328 2753 2575 2939 
Q 2822 3125 2822 3475 
Q 2822 3834 2567 4026 
Q 2313 4219 1838 4219 
Q 1578 4219 1281 4162 
Q 984 4106 628 3988 
L 628 4550 
Q 988 4650 1302 4700 
Q 1616 4750 1894 4750 
Q 2613 4750 3031 4423 
Q 3450 4097 3450 3541 
Q 3450 3153 3228 2886 
Q 3006 2619 2597 2516 
z
" transform="scale(0.015625)"/>
       </defs>
       <use xlink:href="#DejaVuSans-33"/>
       <use xlink:href="#DejaVuSans-30" x="63.623047"/>
       <use xlink:href="#DejaVuSans-30" x="127.246094"/>
      </g>
     </g>
    </g>
    <g id="ytick_5">
     <g id="line2d_23">
      <path d="M 44.934294 342.779174 
L 1141.2 342.779174 
" clip-path="url(#p9fe0c03f5c)" style="fill: none; stroke: #b0b0b0; stroke-width: 0.8; stroke-linecap: square"/>
     </g>
     <g id="line2d_24">
      <g>
       <use xlink:href="#m8f05556ae9" x="44.934294" y="342.779174" style="stroke: #000000; stroke-width: 0.8"/>
      </g>
     </g>
     <g id="text_12">
      <!-- 400 -->
      <g transform="translate(18.846794 346.578393)scale(0.1 -0.1)">
       <defs>
        <path id="DejaVuSans-34" d="M 2419 4116 
L 825 1625 
L 2419 1625 
L 2419 4116 
z
M 2253 4666 
L 3047 4666 
L 3047 1625 
L 3713 1625 
L 3713 1100 
L 3047 1100 
L 3047 0 
L 2419 0 
L 2419 1100 
L 313 1100 
L 313 1709 
L 2253 4666 
z
" transform="scale(0.015625)"/>
       </defs>
       <use xlink:href="#DejaVuSans-34"/>
       <use xlink:href="#DejaVuSans-30" x="63.623047"/>
       <use xlink:href="#DejaVuSans-30" x="127.246094"/>
      </g>
     </g>
    </g>
    <g id="ytick_6">
     <g id="line2d_25">
      <path d="M 44.934294 267.140265 
L 1141.2 267.140265 
" clip-path="url(#p9fe0c03f5c)" style="fill: none; stroke: #b0b0b0; stroke-width: 0.8; stroke-linecap: square"/>
     </g>
     <g id="line2d_26">
      <g>
       <use xlink:href="#m8f05556ae9" x="44.934294" y="267.140265" style="stroke: #000000; stroke-width: 0.8"/>
      </g>
     </g>
     <g id="text_13">
      <!-- 500 -->
      <g transform="translate(18.846794 270.939483)scale(0.1 -0.1)">
       <use xlink:href="#DejaVuSans-35"/>
       <use xlink:href="#DejaVuSans-30" x="63.623047"/>
       <use xlink:href="#DejaVuSans-30" x="127.246094"/>
      </g>
     </g>
    </g>
    <g id="ytick_7">
     <g id="line2d_27">
      <path d="M 44.934294 191.501355 
L 1141.2 191.501355 
" clip-path="url(#p9fe0c03f5c)" style="fill: none; stroke: #b0b0b0; stroke-width: 0.8; stroke-linecap: square"/>
     </g>
     <g id="line2d_28">
      <g>
       <use xlink:href="#m8f05556ae9" x="44.934294" y="191.501355" style="stroke: #000000; stroke-width: 0.8"/>
      </g>
     </g>
     <g id="text_14">
      <!-- 600 -->
      <g transform="translate(18.846794 195.300574)scale(0.1 -0.1)">
       <defs>
        <path id="DejaVuSans-36" d="M 2113 2584 
Q 1688 2584 1439 2293 
Q 1191 2003 1191 1497 
Q 1191 994 1439 701 
Q 1688 409 2113 409 
Q 2538 409 2786 701 
Q 3034 994 3034 1497 
Q 3034 2003 2786 2293 
Q 2538 2584 2113 2584 
z
M 3366 4563 
L 3366 3988 
Q 3128 4100 2886 4159 
Q 2644 4219 2406 4219 
Q 1781 4219 1451 3797 
Q 1122 3375 1075 2522 
Q 1259 2794 1537 2939 
Q 1816 3084 2150 3084 
Q 2853 3084 3261 2657 
Q 3669 2231 3669 1497 
Q 3669 778 3244 343 
Q 2819 -91 2113 -91 
Q 1303 -91 875 529 
Q 447 1150 447 2328 
Q 447 3434 972 4092 
Q 1497 4750 2381 4750 
Q 2619 4750 2861 4703 
Q 3103 4656 3366 4563 
z
" transform="scale(0.015625)"/>
       </defs>
       <use xlink:href="#DejaVuSans-36"/>
       <use xlink:href="#DejaVuSans-30" x="63.623047"/>
       <use xlink:href="#DejaVuSans-30" x="127.246094"/>
      </g>
     </g>
    </g>
    <g id="ytick_8">
     <g id="line2d_29">
      <path d="M 44.934294 115.862445 
L 1141.2 115.862445 
" clip-path="url(#p9fe0c03f5c)" style="fill: none; stroke: #b0b0b0; stroke-width: 0.8; stroke-linecap: square"/>
     </g>
     <g id="line2d_30">
      <g>
       <use xlink:href="#m8f05556ae9" x="44.934294" y="115.862445" style="stroke: #000000; stroke-width: 0.8"/>
      </g>
     </g>
     <g id="text_15">
      <!-- 700 -->
      <g transform="translate(18.846794 119.661664)scale(0.1 -0.1)">
       <defs>
        <path id="DejaVuSans-37" d="M 525 4666 
L 3525 4666 
L 3525 4397 
L 1831 0 
L 1172 0 
L 2766 4134 
L 525 4134 
L 525 4666 
z
" transform="scale(0.015625)"/>
       </defs>
       <use xlink:href="#DejaVuSans-37"/>
       <use xlink:href="#DejaVuSans-30" x="63.623047"/>
       <use xlink:href="#DejaVuSans-30" x="127.246094"/>
      </g>
     </g>
    </g>
    <g id="ytick_9">
     <g id="line2d_31">
      <path d="M 44.934294 40.223536 
L 1141.2 40.223536 
" clip-path="url(#p9fe0c03f5c)" style="fill: none; stroke: #b0b0b0; stroke-width: 0.8; stroke-linecap: square"/>
     </g>
     <g id="line2d_32">
      <g>
       <use xlink:href="#m8f05556ae9" x="44.934294" y="40.223536" style="stroke: #000000; stroke-width: 0.8"/>
      </g>
     </g>
     <g id="text_16">
      <!-- 800 -->
      <g transform="translate(18.846794 44.022755)scale(0.1 -0.1)">
       <use xlink:href="#DejaVuSans-38"/>
       <use xlink:href="#DejaVuSans-30" x="63.623047"/>
       <use xlink:href="#DejaVuSans-30" x="127.246094"/>
      </g>
     </g>
    </g>
   </g>
   <g id="line2d_33">
    <path d="M 94.764553 106.029387 
L 105.038834 106.029387 
L 115.313114 118.888002 
L 125.587394 121.913558 
L 135.861674 123.426336 
L 146.135955 125.695504 
L 156.410235 125.695504 
L 166.684515 126.451893 
L 176.958796 127.964671 
L 187.233076 129.477449 
L 197.507356 130.233838 
L 207.781636 130.233838 
L 218.055917 131.746616 
L 228.330197 134.015784 
L 238.604477 135.528562 
L 248.878758 136.284951 
L 259.153038 137.797729 
L 269.427318 140.823286 
L 279.701598 140.823286 
L 289.975879 40.979925 
L 300.250159 41.736314 
L 310.524439 44.005481 
L 320.798719 44.005481 
L 331.073 44.76187 
L 341.34728 44.76187 
L 351.62156 47.787427 
L 361.895841 50.056594 
L 372.170121 50.056594 
L 382.444401 52.325761 
L 392.718681 54.594929 
L 402.992962 54.594929 
L 413.267242 62.915209 
L 423.541522 66.697154 
L 433.815803 68.209932 
L 444.090083 71.235489 
L 454.364363 73.504656 
L 464.638643 73.504656 
L 474.912924 73.504656 
L 485.187204 73.504656 
L 495.461484 73.504656 
L 505.735765 74.261045 
L 516.010045 74.261045 
L 526.284325 74.261045 
L 536.558605 75.017434 
L 546.832886 78.042991 
L 557.107166 81.824936 
L 567.381446 82.581325 
L 577.655727 84.094103 
L 587.930007 85.606882 
L 598.204287 85.606882 
L 608.478567 85.606882 
L 618.752848 85.606882 
L 629.027128 85.606882 
L 639.301408 85.606882 
L 649.575689 85.606882 
L 659.849969 85.606882 
L 670.124249 85.606882 
L 680.398529 106.785776 
L 690.67281 108.298554 
L 700.94709 108.298554 
L 711.22137 110.567722 
L 721.49565 110.567722 
L 731.769931 110.567722 
L 742.044211 112.836889 
L 752.318491 114.349667 
L 762.592772 115.862445 
L 793.415612 122.669947 
L 803.689893 124.939115 
L 813.964173 127.208282 
L 824.238453 127.964671 
L 834.512734 129.477449 
L 844.787014 130.233838 
L 855.061294 130.233838 
L 865.335574 132.503006 
L 875.609855 133.259395 
L 885.884135 134.015784 
L 896.158415 134.772173 
L 906.432696 137.04134 
L 916.706976 137.04134 
L 926.981256 140.066896 
L 937.255536 143.092453 
L 947.529817 146.874398 
L 957.804097 147.630787 
L 968.078377 150.656344 
L 978.352658 151.412733 
L 988.626938 155.194678 
L 998.901218 155.194678 
L 1009.175498 155.194678 
L 1019.449779 155.194678 
L 1029.724059 155.194678 
L 1039.998339 160.489402 
L 1050.27262 160.489402 
L 1060.5469 160.489402 
L 1070.82118 164.271348 
L 1081.09546 165.784126 
L 1091.369741 166.540515 
" clip-path="url(#p9fe0c03f5c)" style="fill: none; stroke: #1f77b4; stroke-width: 1.5; stroke-linecap: square"/>
   </g>
   <g id="line2d_34">
    <path d="M 94.764553 598.438689 
L 105.038834 598.438689 
L 115.313114 598.438689 
L 125.587394 598.438689 
L 135.861674 598.438689 
L 146.135955 599.195078 
L 156.410235 599.195078 
L 166.684515 599.195078 
L 176.958796 599.195078 
L 187.233076 599.195078 
L 197.507356 599.195078 
L 207.781636 599.195078 
L 218.055917 599.195078 
L 228.330197 599.195078 
L 238.604477 599.195078 
L 248.878758 599.195078 
L 259.153038 599.195078 
L 269.427318 599.195078 
L 279.701598 599.195078 
L 289.975879 584.067296 
L 300.250159 584.067296 
L 310.524439 584.067296 
L 320.798719 584.823685 
L 331.073 590.118409 
L 341.34728 590.118409 
L 351.62156 590.118409 
L 361.895841 590.118409 
L 372.170121 590.118409 
L 382.444401 590.118409 
L 392.718681 602.977023 
L 402.992962 616.592027 
L 413.267242 626.425085 
L 423.541522 626.425085 
L 433.815803 627.181474 
L 444.090083 627.181474 
L 454.364363 627.181474 
L 464.638643 627.181474 
L 474.912924 627.181474 
L 485.187204 627.181474 
L 495.461484 627.181474 
L 505.735765 627.181474 
L 516.010045 627.181474 
L 526.284325 627.937863 
L 536.558605 627.937863 
L 546.832886 627.937863 
L 557.107166 627.937863 
L 567.381446 627.937863 
L 577.655727 627.937863 
L 587.930007 627.937863 
L 598.204287 627.937863 
L 608.478567 627.937863 
L 618.752848 627.937863 
L 629.027128 627.937863 
L 639.301408 627.937863 
L 649.575689 627.937863 
L 659.849969 627.937863 
L 670.124249 627.937863 
L 680.398529 629.450642 
L 690.67281 629.450642 
L 700.94709 629.450642 
L 711.22137 629.450642 
L 721.49565 629.450642 
L 731.769931 629.450642 
L 742.044211 629.450642 
L 752.318491 629.450642 
L 762.592772 629.450642 
L 793.415612 629.450642 
L 803.689893 629.450642 
L 813.964173 629.450642 
L 824.238453 629.450642 
L 834.512734 629.450642 
L 844.787014 630.207031 
L 855.061294 630.207031 
L 865.335574 630.207031 
L 875.609855 630.207031 
L 885.884135 630.207031 
L 896.158415 631.719809 
L 906.432696 631.719809 
L 916.706976 631.719809 
L 926.981256 631.719809 
L 937.255536 631.719809 
L 947.529817 631.719809 
L 957.804097 631.719809 
L 968.078377 631.719809 
L 978.352658 631.719809 
L 988.626938 631.719809 
L 998.901218 631.719809 
L 1009.175498 631.719809 
L 1019.449779 631.719809 
L 1029.724059 631.719809 
L 1039.998339 631.719809 
L 1050.27262 631.719809 
L 1060.5469 631.719809 
L 1070.82118 631.719809 
L 1081.09546 631.719809 
L 1091.369741 631.719809 
" clip-path="url(#p9fe0c03f5c)" style="fill: none; stroke: #ff7f0e; stroke-width: 1.5; stroke-linecap: square"/>
   </g>
   <g id="line2d_35">
    <path d="M 94.764553 644.578423 
L 105.038834 644.578423 
L 115.313114 644.578423 
L 125.587394 644.578423 
L 135.861674 644.578423 
" clip-path="url(#p9fe0c03f5c)" style="fill: none; stroke: #2ca02c; stroke-width: 1.5; stroke-linecap: square"/>
   </g>
   <g id="line2d_36">
    <path d="M 94.764553 644.578423 
L 105.038834 644.578423 
L 115.313114 644.578423 
L 125.587394 644.578423 
L 135.861674 644.578423 
" clip-path="url(#p9fe0c03f5c)" style="fill: none; stroke: #d62728; stroke-width: 1.5; stroke-linecap: square"/>
   </g>
   <g id="line2d_37">
    <path d="M 94.764553 633.988976 
L 105.038834 633.988976 
L 115.313114 633.988976 
L 125.587394 633.988976 
L 135.861674 633.988976 
L 146.135955 633.988976 
L 156.410235 633.988976 
L 166.684515 633.988976 
L 176.958796 638.527311 
L 187.233076 638.527311 
L 197.507356 638.527311 
L 207.781636 638.527311 
L 218.055917 638.527311 
L 228.330197 638.527311 
L 238.604477 643.822034 
L 248.878758 643.822034 
L 259.153038 643.822034 
L 269.427318 643.822034 
L 279.701598 643.822034 
L 289.975879 643.822034 
L 300.250159 643.822034 
L 310.524439 643.822034 
L 320.798719 643.822034 
L 331.073 643.822034 
L 341.34728 643.822034 
L 351.62156 643.822034 
L 361.895841 644.578423 
L 372.170121 644.578423 
L 382.444401 644.578423 
L 392.718681 644.578423 
L 402.992962 644.578423 
L 413.267242 644.578423 
L 423.541522 644.578423 
L 433.815803 644.578423 
L 444.090083 644.578423 
L 454.364363 644.578423 
L 464.638643 644.578423 
L 474.912924 644.578423 
L 485.187204 644.578423 
L 495.461484 644.578423 
L 505.735765 644.578423 
L 516.010045 644.578423 
L 526.284325 644.578423 
L 536.558605 644.578423 
L 546.832886 644.578423 
L 557.107166 644.578423 
L 567.381446 644.578423 
L 577.655727 644.578423 
L 587.930007 644.578423 
L 598.204287 644.578423 
L 608.478567 644.578423 
L 618.752848 644.578423 
L 629.027128 644.578423 
L 639.301408 644.578423 
L 649.575689 644.578423 
L 659.849969 644.578423 
L 670.124249 644.578423 
L 680.398529 644.578423 
L 690.67281 644.578423 
L 700.94709 644.578423 
" clip-path="url(#p9fe0c03f5c)" style="fill: none; stroke: #9467bd; stroke-width: 1.5; stroke-linecap: square"/>
   </g>
   <g id="line2d_38">
    <path d="M 94.764553 638.527311 
L 105.038834 638.527311 
L 115.313114 638.527311 
L 125.587394 638.527311 
L 135.861674 638.527311 
L 146.135955 638.527311 
L 156.410235 640.796478 
L 166.684515 643.822034 
" clip-path="url(#p9fe0c03f5c)" style="fill: none; stroke: #8c564b; stroke-width: 1.5; stroke-linecap: square"/>
   </g>
   <g id="line2d_39">
    <path d="M 289.975879 674.758348 
L 289.975879 10.8 
" clip-path="url(#p9fe0c03f5c)" style="fill: none; stroke-dasharray: 5.55,2.4; stroke-dashoffset: 0; stroke: #ff0000; stroke-width: 1.5"/>
   </g>
   <g id="patch_3">
    <path d="M 44.934294 674.758348 
L 44.934294 10.8 
" style="fill: none; stroke: #000000; stroke-width: 0.8; stroke-linejoin: miter; stroke-linecap: square"/>
   </g>
   <g id="patch_4">
    <path d="M 1141.2 674.758348 
L 1141.2 10.8 
" style="fill: none; stroke: #000000; stroke-width: 0.8; stroke-linejoin: miter; stroke-linecap: square"/>
   </g>
   <g id="patch_5">
    <path d="M 44.934294 674.758348 
L 1141.2 674.758348 
" style="fill: none; stroke: #000000; stroke-width: 0.8; stroke-linejoin: miter; stroke-linecap: square"/>
   </g>
   <g id="patch_6">
    <path d="M 44.934294 10.8 
L 1141.2 10.8 
" style="fill: none; stroke: #000000; stroke-width: 0.8; stroke-linejoin: miter; stroke-linecap: square"/>
   </g>
   <g id="patch_7">
    <path d="M 301.646855 484.865264 
Q 296.044486 457.718888 290.442118 430.572512 
L 286.524672 431.38098 
Q 288.250275 424.899532 289.975879 418.418084 
Q 294.126444 423.68683 298.277009 428.955576 
L 294.359563 429.764044 
Q 299.961932 456.91042 305.564301 484.056796 
L 301.646855 484.865264 
z
" style="fill: #ff0000; stroke: #000000; stroke-linecap: round"/>
   </g>
   <g id="text_17">
    <!-- Added uploaders data -->
    <g style="fill: #ff0000" transform="translate(248.878758 494.056993)scale(0.1 -0.1)">
     <defs>
      <path id="DejaVuSans-41" d="M 2188 4044 
L 1331 1722 
L 3047 1722 
L 2188 4044 
z
M 1831 4666 
L 2547 4666 
L 4325 0 
L 3669 0 
L 3244 1197 
L 1141 1197 
L 716 0 
L 50 0 
L 1831 4666 
z
" transform="scale(0.015625)"/>
      <path id="DejaVuSans-64" d="M 2906 2969 
L 2906 4863 
L 3481 4863 
L 3481 0 
L 2906 0 
L 2906 525 
Q 2725 213 2448 61 
Q 2172 -91 1784 -91 
Q 1150 -91 751 415 
Q 353 922 353 1747 
Q 353 2572 751 3078 
Q 1150 3584 1784 3584 
Q 2172 3584 2448 3432 
Q 2725 3281 2906 2969 
z
M 947 1747 
Q 947 1113 1208 752 
Q 1469 391 1925 391 
Q 2381 391 2643 752 
Q 2906 1113 2906 1747 
Q 2906 2381 2643 2742 
Q 2381 3103 1925 3103 
Q 1469 3103 1208 2742 
Q 947 2381 947 1747 
z
" transform="scale(0.015625)"/>
      <path id="DejaVuSans-65" d="M 3597 1894 
L 3597 1613 
L 953 1613 
Q 991 1019 1311 708 
Q 1631 397 2203 397 
Q 2534 397 2845 478 
Q 3156 559 3463 722 
L 3463 178 
Q 3153 47 2828 -22 
Q 2503 -91 2169 -91 
Q 1331 -91 842 396 
Q 353 884 353 1716 
Q 353 2575 817 3079 
Q 1281 3584 2069 3584 
Q 2775 3584 3186 3129 
Q 3597 2675 3597 1894 
z
M 3022 2063 
Q 3016 2534 2758 2815 
Q 2500 3097 2075 3097 
Q 1594 3097 1305 2825 
Q 1016 2553 972 2059 
L 3022 2063 
z
" transform="scale(0.015625)"/>
      <path id="DejaVuSans-20" transform="scale(0.015625)"/>
      <path id="DejaVuSans-75" d="M 544 1381 
L 544 3500 
L 1119 3500 
L 1119 1403 
Q 1119 906 1312 657 
Q 1506 409 1894 409 
Q 2359 409 2629 706 
Q 2900 1003 2900 1516 
L 2900 3500 
L 3475 3500 
L 3475 0 
L 2900 0 
L 2900 538 
Q 2691 219 2414 64 
Q 2138 -91 1772 -91 
Q 1169 -91 856 284 
Q 544 659 544 1381 
z
M 1991 3584 
L 1991 3584 
z
" transform="scale(0.015625)"/>
      <path id="DejaVuSans-70" d="M 1159 525 
L 1159 -1331 
L 581 -1331 
L 581 3500 
L 1159 3500 
L 1159 2969 
Q 1341 3281 1617 3432 
Q 1894 3584 2278 3584 
Q 2916 3584 3314 3078 
Q 3713 2572 3713 1747 
Q 3713 922 3314 415 
Q 2916 -91 2278 -91 
Q 1894 -91 1617 61 
Q 1341 213 1159 525 
z
M 3116 1747 
Q 3116 2381 2855 2742 
Q 2594 3103 2138 3103 
Q 1681 3103 1420 2742 
Q 1159 2381 1159 1747 
Q 1159 1113 1420 752 
Q 1681 391 2138 391 
Q 2594 391 2855 752 
Q 3116 1113 3116 1747 
z
" transform="scale(0.015625)"/>
      <path id="DejaVuSans-6c" d="M 603 4863 
L 1178 4863 
L 1178 0 
L 603 0 
L 603 4863 
z
" transform="scale(0.015625)"/>
      <path id="DejaVuSans-6f" d="M 1959 3097 
Q 1497 3097 1228 2736 
Q 959 2375 959 1747 
Q 959 1119 1226 758 
Q 1494 397 1959 397 
Q 2419 397 2687 759 
Q 2956 1122 2956 1747 
Q 2956 2369 2687 2733 
Q 2419 3097 1959 3097 
z
M 1959 3584 
Q 2709 3584 3137 3096 
Q 3566 2609 3566 1747 
Q 3566 888 3137 398 
Q 2709 -91 1959 -91 
Q 1206 -91 779 398 
Q 353 888 353 1747 
Q 353 2609 779 3096 
Q 1206 3584 1959 3584 
z
" transform="scale(0.015625)"/>
      <path id="DejaVuSans-61" d="M 2194 1759 
Q 1497 1759 1228 1600 
Q 959 1441 959 1056 
Q 959 750 1161 570 
Q 1363 391 1709 391 
Q 2188 391 2477 730 
Q 2766 1069 2766 1631 
L 2766 1759 
L 2194 1759 
z
M 3341 1997 
L 3341 0 
L 2766 0 
L 2766 531 
Q 2569 213 2275 61 
Q 1981 -91 1556 -91 
Q 1019 -91 701 211 
Q 384 513 384 1019 
Q 384 1609 779 1909 
Q 1175 2209 1959 2209 
L 2766 2209 
L 2766 2266 
Q 2766 2663 2505 2880 
Q 2244 3097 1772 3097 
Q 1472 3097 1187 3025 
Q 903 2953 641 2809 
L 641 3341 
Q 956 3463 1253 3523 
Q 1550 3584 1831 3584 
Q 2591 3584 2966 3190 
Q 3341 2797 3341 1997 
z
" transform="scale(0.015625)"/>
      <path id="DejaVuSans-72" d="M 2631 2963 
Q 2534 3019 2420 3045 
Q 2306 3072 2169 3072 
Q 1681 3072 1420 2755 
Q 1159 2438 1159 1844 
L 1159 0 
L 581 0 
L 581 3500 
L 1159 3500 
L 1159 2956 
Q 1341 3275 1631 3429 
Q 1922 3584 2338 3584 
Q 2397 3584 2469 3576 
Q 2541 3569 2628 3553 
L 2631 2963 
z
" transform="scale(0.015625)"/>
      <path id="DejaVuSans-73" d="M 2834 3397 
L 2834 2853 
Q 2591 2978 2328 3040 
Q 2066 3103 1784 3103 
Q 1356 3103 1142 2972 
Q 928 2841 928 2578 
Q 928 2378 1081 2264 
Q 1234 2150 1697 2047 
L 1894 2003 
Q 2506 1872 2764 1633 
Q 3022 1394 3022 966 
Q 3022 478 2636 193 
Q 2250 -91 1575 -91 
Q 1294 -91 989 -36 
Q 684 19 347 128 
L 347 722 
Q 666 556 975 473 
Q 1284 391 1588 391 
Q 1994 391 2212 530 
Q 2431 669 2431 922 
Q 2431 1156 2273 1281 
Q 2116 1406 1581 1522 
L 1381 1569 
Q 847 1681 609 1914 
Q 372 2147 372 2553 
Q 372 3047 722 3315 
Q 1072 3584 1716 3584 
Q 2034 3584 2315 3537 
Q 2597 3491 2834 3397 
z
" transform="scale(0.015625)"/>
      <path id="DejaVuSans-74" d="M 1172 4494 
L 1172 3500 
L 2356 3500 
L 2356 3053 
L 1172 3053 
L 1172 1153 
Q 1172 725 1289 603 
Q 1406 481 1766 481 
L 2356 481 
L 2356 0 
L 1766 0 
Q 1100 0 847 248 
Q 594 497 594 1153 
L 594 3053 
L 172 3053 
L 172 3500 
L 594 3500 
L 594 4494 
L 1172 4494 
z
" transform="scale(0.015625)"/>
     </defs>
     <use xlink:href="#DejaVuSans-41"/>
     <use xlink:href="#DejaVuSans-64" x="66.658203"/>
     <use xlink:href="#DejaVuSans-64" x="130.134766"/>
     <use xlink:href="#DejaVuSans-65" x="193.611328"/>
     <use xlink:href="#DejaVuSans-64" x="255.134766"/>
     <use xlink:href="#DejaVuSans-20" x="318.611328"/>
     <use xlink:href="#DejaVuSans-75" x="350.398438"/>
     <use xlink:href="#DejaVuSans-70" x="413.777344"/>
     <use xlink:href="#DejaVuSans-6c" x="477.253906"/>
     <use xlink:href="#DejaVuSans-6f" x="505.037109"/>
     <use xlink:href="#DejaVuSans-61" x="566.21875"/>
     <use xlink:href="#DejaVuSans-64" x="627.498047"/>
     <use xlink:href="#DejaVuSans-65" x="690.974609"/>
     <use xlink:href="#DejaVuSans-72" x="752.498047"/>
     <use xlink:href="#DejaVuSans-73" x="793.611328"/>
     <use xlink:href="#DejaVuSans-20" x="845.710938"/>
     <use xlink:href="#DejaVuSans-64" x="877.498047"/>
     <use xlink:href="#DejaVuSans-61" x="940.974609"/>
     <use xlink:href="#DejaVuSans-74" x="1002.253906"/>
     <use xlink:href="#DejaVuSans-61" x="1041.462891"/>
    </g>
   </g>
   <g id="legend_1">
    <g id="patch_8">
     <path d="M 51.934294 395.652612 
L 342.815544 395.652612 
Q 344.815544 395.652612 344.815544 393.652612 
L 344.815544 291.905737 
Q 344.815544 289.905737 342.815544 289.905737 
L 51.934294 289.905737 
Q 49.934294 289.905737 49.934294 291.905737 
L 49.934294 393.652612 
Q 49.934294 395.652612 51.934294 395.652612 
z
" style="fill: #ffffff; opacity: 0.8; stroke: #cccccc; stroke-linejoin: miter"/>
    </g>
    <g id="patch_9">
     <path d="M 53.934294 301.504174 
L 73.934294 301.504174 
L 73.934294 294.504174 
L 53.934294 294.504174 
L 53.934294 301.504174 
z
" style="fill: none; opacity: 0"/>
    </g>
    <g id="text_18">
     <!-- team+python@tracker.debian.org (1199) -->
     <g transform="translate(81.934294 301.504174)scale(0.1 -0.1)">
      <defs>
       <path id="DejaVuSans-6d" d="M 3328 2828 
Q 3544 3216 3844 3400 
Q 4144 3584 4550 3584 
Q 5097 3584 5394 3201 
Q 5691 2819 5691 2113 
L 5691 0 
L 5113 0 
L 5113 2094 
Q 5113 2597 4934 2840 
Q 4756 3084 4391 3084 
Q 3944 3084 3684 2787 
Q 3425 2491 3425 1978 
L 3425 0 
L 2847 0 
L 2847 2094 
Q 2847 2600 2669 2842 
Q 2491 3084 2119 3084 
Q 1678 3084 1418 2786 
Q 1159 2488 1159 1978 
L 1159 0 
L 581 0 
L 581 3500 
L 1159 3500 
L 1159 2956 
Q 1356 3278 1631 3431 
Q 1906 3584 2284 3584 
Q 2666 3584 2933 3390 
Q 3200 3197 3328 2828 
z
" transform="scale(0.015625)"/>
       <path id="DejaVuSans-2b" d="M 2944 4013 
L 2944 2272 
L 4684 2272 
L 4684 1741 
L 2944 1741 
L 2944 0 
L 2419 0 
L 2419 1741 
L 678 1741 
L 678 2272 
L 2419 2272 
L 2419 4013 
L 2944 4013 
z
" transform="scale(0.015625)"/>
       <path id="DejaVuSans-79" d="M 2059 -325 
Q 1816 -950 1584 -1140 
Q 1353 -1331 966 -1331 
L 506 -1331 
L 506 -850 
L 844 -850 
Q 1081 -850 1212 -737 
Q 1344 -625 1503 -206 
L 1606 56 
L 191 3500 
L 800 3500 
L 1894 763 
L 2988 3500 
L 3597 3500 
L 2059 -325 
z
" transform="scale(0.015625)"/>
       <path id="DejaVuSans-68" d="M 3513 2113 
L 3513 0 
L 2938 0 
L 2938 2094 
Q 2938 2591 2744 2837 
Q 2550 3084 2163 3084 
Q 1697 3084 1428 2787 
Q 1159 2491 1159 1978 
L 1159 0 
L 581 0 
L 581 4863 
L 1159 4863 
L 1159 2956 
Q 1366 3272 1645 3428 
Q 1925 3584 2291 3584 
Q 2894 3584 3203 3211 
Q 3513 2838 3513 2113 
z
" transform="scale(0.015625)"/>
       <path id="DejaVuSans-6e" d="M 3513 2113 
L 3513 0 
L 2938 0 
L 2938 2094 
Q 2938 2591 2744 2837 
Q 2550 3084 2163 3084 
Q 1697 3084 1428 2787 
Q 1159 2491 1159 1978 
L 1159 0 
L 581 0 
L 581 3500 
L 1159 3500 
L 1159 2956 
Q 1366 3272 1645 3428 
Q 1925 3584 2291 3584 
Q 2894 3584 3203 3211 
Q 3513 2838 3513 2113 
z
" transform="scale(0.015625)"/>
       <path id="DejaVuSans-40" d="M 2381 1678 
Q 2381 1231 2603 976 
Q 2825 722 3213 722 
Q 3597 722 3817 978 
Q 4038 1234 4038 1678 
Q 4038 2116 3813 2373 
Q 3588 2631 3206 2631 
Q 2828 2631 2604 2375 
Q 2381 2119 2381 1678 
z
M 4084 744 
Q 3897 503 3655 389 
Q 3413 275 3091 275 
Q 2553 275 2217 664 
Q 1881 1053 1881 1678 
Q 1881 2303 2218 2693 
Q 2556 3084 3091 3084 
Q 3413 3084 3656 2967 
Q 3900 2850 4084 2613 
L 4084 3022 
L 4531 3022 
L 4531 722 
Q 4988 791 5245 1139 
Q 5503 1488 5503 2041 
Q 5503 2375 5404 2669 
Q 5306 2963 5106 3213 
Q 4781 3622 4314 3839 
Q 3847 4056 3297 4056 
Q 2913 4056 2559 3954 
Q 2206 3853 1906 3653 
Q 1416 3334 1139 2817 
Q 863 2300 863 1697 
Q 863 1200 1042 765 
Q 1222 331 1563 0 
Q 1891 -325 2322 -495 
Q 2753 -666 3244 -666 
Q 3647 -666 4036 -530 
Q 4425 -394 4750 -141 
L 5031 -488 
Q 4641 -791 4180 -952 
Q 3719 -1113 3244 -1113 
Q 2666 -1113 2153 -908 
Q 1641 -703 1241 -313 
Q 841 78 631 592 
Q 422 1106 422 1697 
Q 422 2266 634 2781 
Q 847 3297 1241 3688 
Q 1644 4084 2172 4295 
Q 2700 4506 3291 4506 
Q 3953 4506 4520 4234 
Q 5088 3963 5472 3463 
Q 5706 3156 5829 2797 
Q 5953 2438 5953 2053 
Q 5953 1231 5456 756 
Q 4959 281 4084 263 
L 4084 744 
z
" transform="scale(0.015625)"/>
       <path id="DejaVuSans-63" d="M 3122 3366 
L 3122 2828 
Q 2878 2963 2633 3030 
Q 2388 3097 2138 3097 
Q 1578 3097 1268 2742 
Q 959 2388 959 1747 
Q 959 1106 1268 751 
Q 1578 397 2138 397 
Q 2388 397 2633 464 
Q 2878 531 3122 666 
L 3122 134 
Q 2881 22 2623 -34 
Q 2366 -91 2075 -91 
Q 1284 -91 818 406 
Q 353 903 353 1747 
Q 353 2603 823 3093 
Q 1294 3584 2113 3584 
Q 2378 3584 2631 3529 
Q 2884 3475 3122 3366 
z
" transform="scale(0.015625)"/>
       <path id="DejaVuSans-6b" d="M 581 4863 
L 1159 4863 
L 1159 1991 
L 2875 3500 
L 3609 3500 
L 1753 1863 
L 3688 0 
L 2938 0 
L 1159 1709 
L 1159 0 
L 581 0 
L 581 4863 
z
" transform="scale(0.015625)"/>
       <path id="DejaVuSans-2e" d="M 684 794 
L 1344 794 
L 1344 0 
L 684 0 
L 684 794 
z
" transform="scale(0.015625)"/>
       <path id="DejaVuSans-62" d="M 3116 1747 
Q 3116 2381 2855 2742 
Q 2594 3103 2138 3103 
Q 1681 3103 1420 2742 
Q 1159 2381 1159 1747 
Q 1159 1113 1420 752 
Q 1681 391 2138 391 
Q 2594 391 2855 752 
Q 3116 1113 3116 1747 
z
M 1159 2969 
Q 1341 3281 1617 3432 
Q 1894 3584 2278 3584 
Q 2916 3584 3314 3078 
Q 3713 2572 3713 1747 
Q 3713 922 3314 415 
Q 2916 -91 2278 -91 
Q 1894 -91 1617 61 
Q 1341 213 1159 525 
L 1159 0 
L 581 0 
L 581 4863 
L 1159 4863 
L 1159 2969 
z
" transform="scale(0.015625)"/>
       <path id="DejaVuSans-69" d="M 603 3500 
L 1178 3500 
L 1178 0 
L 603 0 
L 603 3500 
z
M 603 4863 
L 1178 4863 
L 1178 4134 
L 603 4134 
L 603 4863 
z
" transform="scale(0.015625)"/>
       <path id="DejaVuSans-67" d="M 2906 1791 
Q 2906 2416 2648 2759 
Q 2391 3103 1925 3103 
Q 1463 3103 1205 2759 
Q 947 2416 947 1791 
Q 947 1169 1205 825 
Q 1463 481 1925 481 
Q 2391 481 2648 825 
Q 2906 1169 2906 1791 
z
M 3481 434 
Q 3481 -459 3084 -895 
Q 2688 -1331 1869 -1331 
Q 1566 -1331 1297 -1286 
Q 1028 -1241 775 -1147 
L 775 -588 
Q 1028 -725 1275 -790 
Q 1522 -856 1778 -856 
Q 2344 -856 2625 -561 
Q 2906 -266 2906 331 
L 2906 616 
Q 2728 306 2450 153 
Q 2172 0 1784 0 
Q 1141 0 747 490 
Q 353 981 353 1791 
Q 353 2603 747 3093 
Q 1141 3584 1784 3584 
Q 2172 3584 2450 3431 
Q 2728 3278 2906 2969 
L 2906 3500 
L 3481 3500 
L 3481 434 
z
" transform="scale(0.015625)"/>
       <path id="DejaVuSans-28" d="M 1984 4856 
Q 1566 4138 1362 3434 
Q 1159 2731 1159 2009 
Q 1159 1288 1364 580 
Q 1569 -128 1984 -844 
L 1484 -844 
Q 1016 -109 783 600 
Q 550 1309 550 2009 
Q 550 2706 781 3412 
Q 1013 4119 1484 4856 
L 1984 4856 
z
" transform="scale(0.015625)"/>
       <path id="DejaVuSans-29" d="M 513 4856 
L 1013 4856 
Q 1481 4119 1714 3412 
Q 1947 2706 1947 2009 
Q 1947 1309 1714 600 
Q 1481 -109 1013 -844 
L 513 -844 
Q 928 -128 1133 580 
Q 1338 1288 1338 2009 
Q 1338 2731 1133 3434 
Q 928 4138 513 4856 
z
" transform="scale(0.015625)"/>
      </defs>
      <use xlink:href="#DejaVuSans-74"/>
      <use xlink:href="#DejaVuSans-65" x="39.208984"/>
      <use xlink:href="#DejaVuSans-61" x="100.732422"/>
      <use xlink:href="#DejaVuSans-6d" x="162.011719"/>
      <use xlink:href="#DejaVuSans-2b" x="259.423828"/>
      <use xlink:href="#DejaVuSans-70" x="343.212891"/>
      <use xlink:href="#DejaVuSans-79" x="406.689453"/>
      <use xlink:href="#DejaVuSans-74" x="465.869141"/>
      <use xlink:href="#DejaVuSans-68" x="505.078125"/>
      <use xlink:href="#DejaVuSans-6f" x="568.457031"/>
      <use xlink:href="#DejaVuSans-6e" x="629.638672"/>
      <use xlink:href="#DejaVuSans-40" x="693.017578"/>
      <use xlink:href="#DejaVuSans-74" x="793.017578"/>
      <use xlink:href="#DejaVuSans-72" x="832.226562"/>
      <use xlink:href="#DejaVuSans-61" x="873.339844"/>
      <use xlink:href="#DejaVuSans-63" x="934.619141"/>
      <use xlink:href="#DejaVuSans-6b" x="989.599609"/>
      <use xlink:href="#DejaVuSans-65" x="1043.884766"/>
      <use xlink:href="#DejaVuSans-72" x="1105.408203"/>
      <use xlink:href="#DejaVuSans-2e" x="1137.396484"/>
      <use xlink:href="#DejaVuSans-64" x="1169.183594"/>
      <use xlink:href="#DejaVuSans-65" x="1232.660156"/>
      <use xlink:href="#DejaVuSans-62" x="1294.183594"/>
      <use xlink:href="#DejaVuSans-69" x="1357.660156"/>
      <use xlink:href="#DejaVuSans-61" x="1385.443359"/>
      <use xlink:href="#DejaVuSans-6e" x="1446.722656"/>
      <use xlink:href="#DejaVuSans-2e" x="1510.101562"/>
      <use xlink:href="#DejaVuSans-6f" x="1541.888672"/>
      <use xlink:href="#DejaVuSans-72" x="1603.070312"/>
      <use xlink:href="#DejaVuSans-67" x="1642.433594"/>
      <use xlink:href="#DejaVuSans-20" x="1705.910156"/>
      <use xlink:href="#DejaVuSans-28" x="1737.697266"/>
      <use xlink:href="#DejaVuSans-31" x="1776.710938"/>
      <use xlink:href="#DejaVuSans-31" x="1840.333984"/>
      <use xlink:href="#DejaVuSans-39" x="1903.957031"/>
      <use xlink:href="#DejaVuSans-39" x="1967.580078"/>
      <use xlink:href="#DejaVuSans-29" x="2031.203125"/>
     </g>
    </g>
    <g id="line2d_40">
     <path d="M 53.934294 312.682299 
L 63.934294 312.682299 
L 73.934294 312.682299 
" style="fill: none; stroke: #1f77b4; stroke-width: 1.5; stroke-linecap: square"/>
    </g>
    <g id="text_19">
     <!-- python-modules-team@lists.alioth.debian.org (633) -->
     <g transform="translate(81.934294 316.182299)scale(0.1 -0.1)">
      <use xlink:href="#DejaVuSans-70"/>
      <use xlink:href="#DejaVuSans-79" x="63.476562"/>
      <use xlink:href="#DejaVuSans-74" x="122.65625"/>
      <use xlink:href="#DejaVuSans-68" x="161.865234"/>
      <use xlink:href="#DejaVuSans-6f" x="225.244141"/>
      <use xlink:href="#DejaVuSans-6e" x="286.425781"/>
      <use xlink:href="#DejaVuSans-2d" x="349.804688"/>
      <use xlink:href="#DejaVuSans-6d" x="385.888672"/>
      <use xlink:href="#DejaVuSans-6f" x="483.300781"/>
      <use xlink:href="#DejaVuSans-64" x="544.482422"/>
      <use xlink:href="#DejaVuSans-75" x="607.958984"/>
      <use xlink:href="#DejaVuSans-6c" x="671.337891"/>
      <use xlink:href="#DejaVuSans-65" x="699.121094"/>
      <use xlink:href="#DejaVuSans-73" x="760.644531"/>
      <use xlink:href="#DejaVuSans-2d" x="812.744141"/>
      <use xlink:href="#DejaVuSans-74" x="848.828125"/>
      <use xlink:href="#DejaVuSans-65" x="888.037109"/>
      <use xlink:href="#DejaVuSans-61" x="949.560547"/>
      <use xlink:href="#DejaVuSans-6d" x="1010.839844"/>
      <use xlink:href="#DejaVuSans-40" x="1108.251953"/>
      <use xlink:href="#DejaVuSans-6c" x="1208.251953"/>
      <use xlink:href="#DejaVuSans-69" x="1236.035156"/>
      <use xlink:href="#DejaVuSans-73" x="1263.818359"/>
      <use xlink:href="#DejaVuSans-74" x="1315.917969"/>
      <use xlink:href="#DejaVuSans-73" x="1355.126953"/>
      <use xlink:href="#DejaVuSans-2e" x="1407.226562"/>
      <use xlink:href="#DejaVuSans-61" x="1439.013672"/>
      <use xlink:href="#DejaVuSans-6c" x="1500.292969"/>
      <use xlink:href="#DejaVuSans-69" x="1528.076172"/>
      <use xlink:href="#DejaVuSans-6f" x="1555.859375"/>
      <use xlink:href="#DejaVuSans-74" x="1617.041016"/>
      <use xlink:href="#DejaVuSans-68" x="1656.25"/>
      <use xlink:href="#DejaVuSans-2e" x="1719.628906"/>
      <use xlink:href="#DejaVuSans-64" x="1751.416016"/>
      <use xlink:href="#DejaVuSans-65" x="1814.892578"/>
      <use xlink:href="#DejaVuSans-62" x="1876.416016"/>
      <use xlink:href="#DejaVuSans-69" x="1939.892578"/>
      <use xlink:href="#DejaVuSans-61" x="1967.675781"/>
      <use xlink:href="#DejaVuSans-6e" x="2028.955078"/>
      <use xlink:href="#DejaVuSans-2e" x="2092.333984"/>
      <use xlink:href="#DejaVuSans-6f" x="2124.121094"/>
      <use xlink:href="#DejaVuSans-72" x="2185.302734"/>
      <use xlink:href="#DejaVuSans-67" x="2224.666016"/>
      <use xlink:href="#DejaVuSans-20" x="2288.142578"/>
      <use xlink:href="#DejaVuSans-28" x="2319.929688"/>
      <use xlink:href="#DejaVuSans-36" x="2358.943359"/>
      <use xlink:href="#DejaVuSans-33" x="2422.566406"/>
      <use xlink:href="#DejaVuSans-33" x="2486.189453"/>
      <use xlink:href="#DejaVuSans-29" x="2549.8125"/>
     </g>
    </g>
    <g id="line2d_41">
     <path d="M 53.934294 327.360424 
L 63.934294 327.360424 
L 73.934294 327.360424 
" style="fill: none; stroke: #ff7f0e; stroke-width: 1.5; stroke-linecap: square"/>
    </g>
    <g id="text_20">
     <!-- python-apps-team@lists.alioth.debian.org (18) -->
     <g transform="translate(81.934294 330.860424)scale(0.1 -0.1)">
      <use xlink:href="#DejaVuSans-70"/>
      <use xlink:href="#DejaVuSans-79" x="63.476562"/>
      <use xlink:href="#DejaVuSans-74" x="122.65625"/>
      <use xlink:href="#DejaVuSans-68" x="161.865234"/>
      <use xlink:href="#DejaVuSans-6f" x="225.244141"/>
      <use xlink:href="#DejaVuSans-6e" x="286.425781"/>
      <use xlink:href="#DejaVuSans-2d" x="349.804688"/>
      <use xlink:href="#DejaVuSans-61" x="385.888672"/>
      <use xlink:href="#DejaVuSans-70" x="447.167969"/>
      <use xlink:href="#DejaVuSans-70" x="510.644531"/>
      <use xlink:href="#DejaVuSans-73" x="574.121094"/>
      <use xlink:href="#DejaVuSans-2d" x="626.220703"/>
      <use xlink:href="#DejaVuSans-74" x="662.304688"/>
      <use xlink:href="#DejaVuSans-65" x="701.513672"/>
      <use xlink:href="#DejaVuSans-61" x="763.037109"/>
      <use xlink:href="#DejaVuSans-6d" x="824.316406"/>
      <use xlink:href="#DejaVuSans-40" x="921.728516"/>
      <use xlink:href="#DejaVuSans-6c" x="1021.728516"/>
      <use xlink:href="#DejaVuSans-69" x="1049.511719"/>
      <use xlink:href="#DejaVuSans-73" x="1077.294922"/>
      <use xlink:href="#DejaVuSans-74" x="1129.394531"/>
      <use xlink:href="#DejaVuSans-73" x="1168.603516"/>
      <use xlink:href="#DejaVuSans-2e" x="1220.703125"/>
      <use xlink:href="#DejaVuSans-61" x="1252.490234"/>
      <use xlink:href="#DejaVuSans-6c" x="1313.769531"/>
      <use xlink:href="#DejaVuSans-69" x="1341.552734"/>
      <use xlink:href="#DejaVuSans-6f" x="1369.335938"/>
      <use xlink:href="#DejaVuSans-74" x="1430.517578"/>
      <use xlink:href="#DejaVuSans-68" x="1469.726562"/>
      <use xlink:href="#DejaVuSans-2e" x="1533.105469"/>
      <use xlink:href="#DejaVuSans-64" x="1564.892578"/>
      <use xlink:href="#DejaVuSans-65" x="1628.369141"/>
      <use xlink:href="#DejaVuSans-62" x="1689.892578"/>
      <use xlink:href="#DejaVuSans-69" x="1753.369141"/>
      <use xlink:href="#DejaVuSans-61" x="1781.152344"/>
      <use xlink:href="#DejaVuSans-6e" x="1842.431641"/>
      <use xlink:href="#DejaVuSans-2e" x="1905.810547"/>
      <use xlink:href="#DejaVuSans-6f" x="1937.597656"/>
      <use xlink:href="#DejaVuSans-72" x="1998.779297"/>
      <use xlink:href="#DejaVuSans-67" x="2038.142578"/>
      <use xlink:href="#DejaVuSans-20" x="2101.619141"/>
      <use xlink:href="#DejaVuSans-28" x="2133.40625"/>
      <use xlink:href="#DejaVuSans-31" x="2172.419922"/>
      <use xlink:href="#DejaVuSans-38" x="2236.042969"/>
      <use xlink:href="#DejaVuSans-29" x="2299.666016"/>
     </g>
    </g>
    <g id="line2d_42">
     <path d="M 53.934294 342.038549 
L 63.934294 342.038549 
L 73.934294 342.038549 
" style="fill: none; stroke: #2ca02c; stroke-width: 1.5; stroke-linecap: square"/>
    </g>
    <g id="text_21">
     <!-- python-apps-team@alioth-lists.debian.net (0) -->
     <g transform="translate(81.934294 345.538549)scale(0.1 -0.1)">
      <use xlink:href="#DejaVuSans-70"/>
      <use xlink:href="#DejaVuSans-79" x="63.476562"/>
      <use xlink:href="#DejaVuSans-74" x="122.65625"/>
      <use xlink:href="#DejaVuSans-68" x="161.865234"/>
      <use xlink:href="#DejaVuSans-6f" x="225.244141"/>
      <use xlink:href="#DejaVuSans-6e" x="286.425781"/>
      <use xlink:href="#DejaVuSans-2d" x="349.804688"/>
      <use xlink:href="#DejaVuSans-61" x="385.888672"/>
      <use xlink:href="#DejaVuSans-70" x="447.167969"/>
      <use xlink:href="#DejaVuSans-70" x="510.644531"/>
      <use xlink:href="#DejaVuSans-73" x="574.121094"/>
      <use xlink:href="#DejaVuSans-2d" x="626.220703"/>
      <use xlink:href="#DejaVuSans-74" x="662.304688"/>
      <use xlink:href="#DejaVuSans-65" x="701.513672"/>
      <use xlink:href="#DejaVuSans-61" x="763.037109"/>
      <use xlink:href="#DejaVuSans-6d" x="824.316406"/>
      <use xlink:href="#DejaVuSans-40" x="921.728516"/>
      <use xlink:href="#DejaVuSans-61" x="1021.728516"/>
      <use xlink:href="#DejaVuSans-6c" x="1083.007812"/>
      <use xlink:href="#DejaVuSans-69" x="1110.791016"/>
      <use xlink:href="#DejaVuSans-6f" x="1138.574219"/>
      <use xlink:href="#DejaVuSans-74" x="1199.755859"/>
      <use xlink:href="#DejaVuSans-68" x="1238.964844"/>
      <use xlink:href="#DejaVuSans-2d" x="1302.34375"/>
      <use xlink:href="#DejaVuSans-6c" x="1338.427734"/>
      <use xlink:href="#DejaVuSans-69" x="1366.210938"/>
      <use xlink:href="#DejaVuSans-73" x="1393.994141"/>
      <use xlink:href="#DejaVuSans-74" x="1446.09375"/>
      <use xlink:href="#DejaVuSans-73" x="1485.302734"/>
      <use xlink:href="#DejaVuSans-2e" x="1537.402344"/>
      <use xlink:href="#DejaVuSans-64" x="1569.189453"/>
      <use xlink:href="#DejaVuSans-65" x="1632.666016"/>
      <use xlink:href="#DejaVuSans-62" x="1694.189453"/>
      <use xlink:href="#DejaVuSans-69" x="1757.666016"/>
      <use xlink:href="#DejaVuSans-61" x="1785.449219"/>
      <use xlink:href="#DejaVuSans-6e" x="1846.728516"/>
      <use xlink:href="#DejaVuSans-2e" x="1910.107422"/>
      <use xlink:href="#DejaVuSans-6e" x="1941.894531"/>
      <use xlink:href="#DejaVuSans-65" x="2005.273438"/>
      <use xlink:href="#DejaVuSans-74" x="2066.796875"/>
      <use xlink:href="#DejaVuSans-20" x="2106.005859"/>
      <use xlink:href="#DejaVuSans-28" x="2137.792969"/>
      <use xlink:href="#DejaVuSans-30" x="2176.806641"/>
      <use xlink:href="#DejaVuSans-29" x="2240.429688"/>
     </g>
    </g>
    <g id="line2d_43">
     <path d="M 53.934294 356.716674 
L 63.934294 356.716674 
L 73.934294 356.716674 
" style="fill: none; stroke: #d62728; stroke-width: 1.5; stroke-linecap: square"/>
    </g>
    <g id="text_22">
     <!-- python-apps-team@lists.alioth.debian.net (0) -->
     <g transform="translate(81.934294 360.216674)scale(0.1 -0.1)">
      <use xlink:href="#DejaVuSans-70"/>
      <use xlink:href="#DejaVuSans-79" x="63.476562"/>
      <use xlink:href="#DejaVuSans-74" x="122.65625"/>
      <use xlink:href="#DejaVuSans-68" x="161.865234"/>
      <use xlink:href="#DejaVuSans-6f" x="225.244141"/>
      <use xlink:href="#DejaVuSans-6e" x="286.425781"/>
      <use xlink:href="#DejaVuSans-2d" x="349.804688"/>
      <use xlink:href="#DejaVuSans-61" x="385.888672"/>
      <use xlink:href="#DejaVuSans-70" x="447.167969"/>
      <use xlink:href="#DejaVuSans-70" x="510.644531"/>
      <use xlink:href="#DejaVuSans-73" x="574.121094"/>
      <use xlink:href="#DejaVuSans-2d" x="626.220703"/>
      <use xlink:href="#DejaVuSans-74" x="662.304688"/>
      <use xlink:href="#DejaVuSans-65" x="701.513672"/>
      <use xlink:href="#DejaVuSans-61" x="763.037109"/>
      <use xlink:href="#DejaVuSans-6d" x="824.316406"/>
      <use xlink:href="#DejaVuSans-40" x="921.728516"/>
      <use xlink:href="#DejaVuSans-6c" x="1021.728516"/>
      <use xlink:href="#DejaVuSans-69" x="1049.511719"/>
      <use xlink:href="#DejaVuSans-73" x="1077.294922"/>
      <use xlink:href="#DejaVuSans-74" x="1129.394531"/>
      <use xlink:href="#DejaVuSans-73" x="1168.603516"/>
      <use xlink:href="#DejaVuSans-2e" x="1220.703125"/>
      <use xlink:href="#DejaVuSans-61" x="1252.490234"/>
      <use xlink:href="#DejaVuSans-6c" x="1313.769531"/>
      <use xlink:href="#DejaVuSans-69" x="1341.552734"/>
      <use xlink:href="#DejaVuSans-6f" x="1369.335938"/>
      <use xlink:href="#DejaVuSans-74" x="1430.517578"/>
      <use xlink:href="#DejaVuSans-68" x="1469.726562"/>
      <use xlink:href="#DejaVuSans-2e" x="1533.105469"/>
      <use xlink:href="#DejaVuSans-64" x="1564.892578"/>
      <use xlink:href="#DejaVuSans-65" x="1628.369141"/>
      <use xlink:href="#DejaVuSans-62" x="1689.892578"/>
      <use xlink:href="#DejaVuSans-69" x="1753.369141"/>
      <use xlink:href="#DejaVuSans-61" x="1781.152344"/>
      <use xlink:href="#DejaVuSans-6e" x="1842.431641"/>
      <use xlink:href="#DejaVuSans-2e" x="1905.810547"/>
      <use xlink:href="#DejaVuSans-6e" x="1937.597656"/>
      <use xlink:href="#DejaVuSans-65" x="2000.976562"/>
      <use xlink:href="#DejaVuSans-74" x="2062.5"/>
      <use xlink:href="#DejaVuSans-20" x="2101.708984"/>
      <use xlink:href="#DejaVuSans-28" x="2133.496094"/>
      <use xlink:href="#DejaVuSans-30" x="2172.509766"/>
      <use xlink:href="#DejaVuSans-29" x="2236.132812"/>
     </g>
    </g>
    <g id="line2d_44">
     <path d="M 53.934294 371.394799 
L 63.934294 371.394799 
L 73.934294 371.394799 
" style="fill: none; stroke: #9467bd; stroke-width: 1.5; stroke-linecap: square"/>
    </g>
    <g id="text_23">
     <!-- python-modules-team@alioth-lists.debian.net (0) -->
     <g transform="translate(81.934294 374.894799)scale(0.1 -0.1)">
      <use xlink:href="#DejaVuSans-70"/>
      <use xlink:href="#DejaVuSans-79" x="63.476562"/>
      <use xlink:href="#DejaVuSans-74" x="122.65625"/>
      <use xlink:href="#DejaVuSans-68" x="161.865234"/>
      <use xlink:href="#DejaVuSans-6f" x="225.244141"/>
      <use xlink:href="#DejaVuSans-6e" x="286.425781"/>
      <use xlink:href="#DejaVuSans-2d" x="349.804688"/>
      <use xlink:href="#DejaVuSans-6d" x="385.888672"/>
      <use xlink:href="#DejaVuSans-6f" x="483.300781"/>
      <use xlink:href="#DejaVuSans-64" x="544.482422"/>
      <use xlink:href="#DejaVuSans-75" x="607.958984"/>
      <use xlink:href="#DejaVuSans-6c" x="671.337891"/>
      <use xlink:href="#DejaVuSans-65" x="699.121094"/>
      <use xlink:href="#DejaVuSans-73" x="760.644531"/>
      <use xlink:href="#DejaVuSans-2d" x="812.744141"/>
      <use xlink:href="#DejaVuSans-74" x="848.828125"/>
      <use xlink:href="#DejaVuSans-65" x="888.037109"/>
      <use xlink:href="#DejaVuSans-61" x="949.560547"/>
      <use xlink:href="#DejaVuSans-6d" x="1010.839844"/>
      <use xlink:href="#DejaVuSans-40" x="1108.251953"/>
      <use xlink:href="#DejaVuSans-61" x="1208.251953"/>
      <use xlink:href="#DejaVuSans-6c" x="1269.53125"/>
      <use xlink:href="#DejaVuSans-69" x="1297.314453"/>
      <use xlink:href="#DejaVuSans-6f" x="1325.097656"/>
      <use xlink:href="#DejaVuSans-74" x="1386.279297"/>
      <use xlink:href="#DejaVuSans-68" x="1425.488281"/>
      <use xlink:href="#DejaVuSans-2d" x="1488.867188"/>
      <use xlink:href="#DejaVuSans-6c" x="1524.951172"/>
      <use xlink:href="#DejaVuSans-69" x="1552.734375"/>
      <use xlink:href="#DejaVuSans-73" x="1580.517578"/>
      <use xlink:href="#DejaVuSans-74" x="1632.617188"/>
      <use xlink:href="#DejaVuSans-73" x="1671.826172"/>
      <use xlink:href="#DejaVuSans-2e" x="1723.925781"/>
      <use xlink:href="#DejaVuSans-64" x="1755.712891"/>
      <use xlink:href="#DejaVuSans-65" x="1819.189453"/>
      <use xlink:href="#DejaVuSans-62" x="1880.712891"/>
      <use xlink:href="#DejaVuSans-69" x="1944.189453"/>
      <use xlink:href="#DejaVuSans-61" x="1971.972656"/>
      <use xlink:href="#DejaVuSans-6e" x="2033.251953"/>
      <use xlink:href="#DejaVuSans-2e" x="2096.630859"/>
      <use xlink:href="#DejaVuSans-6e" x="2128.417969"/>
      <use xlink:href="#DejaVuSans-65" x="2191.796875"/>
      <use xlink:href="#DejaVuSans-74" x="2253.320312"/>
      <use xlink:href="#DejaVuSans-20" x="2292.529297"/>
      <use xlink:href="#DejaVuSans-28" x="2324.316406"/>
      <use xlink:href="#DejaVuSans-30" x="2363.330078"/>
      <use xlink:href="#DejaVuSans-29" x="2426.953125"/>
     </g>
    </g>
    <g id="line2d_45">
     <path d="M 53.934294 386.072924 
L 63.934294 386.072924 
L 73.934294 386.072924 
" style="fill: none; stroke: #8c564b; stroke-width: 1.5; stroke-linecap: square"/>
    </g>
    <g id="text_24">
     <!-- team+python-modules@tracker.debian.org (0) -->
     <g transform="translate(81.934294 389.572924)scale(0.1 -0.1)">
      <use xlink:href="#DejaVuSans-74"/>
      <use xlink:href="#DejaVuSans-65" x="39.208984"/>
      <use xlink:href="#DejaVuSans-61" x="100.732422"/>
      <use xlink:href="#DejaVuSans-6d" x="162.011719"/>
      <use xlink:href="#DejaVuSans-2b" x="259.423828"/>
      <use xlink:href="#DejaVuSans-70" x="343.212891"/>
      <use xlink:href="#DejaVuSans-79" x="406.689453"/>
      <use xlink:href="#DejaVuSans-74" x="465.869141"/>
      <use xlink:href="#DejaVuSans-68" x="505.078125"/>
      <use xlink:href="#DejaVuSans-6f" x="568.457031"/>
      <use xlink:href="#DejaVuSans-6e" x="629.638672"/>
      <use xlink:href="#DejaVuSans-2d" x="693.017578"/>
      <use xlink:href="#DejaVuSans-6d" x="729.101562"/>
      <use xlink:href="#DejaVuSans-6f" x="826.513672"/>
      <use xlink:href="#DejaVuSans-64" x="887.695312"/>
      <use xlink:href="#DejaVuSans-75" x="951.171875"/>
      <use xlink:href="#DejaVuSans-6c" x="1014.550781"/>
      <use xlink:href="#DejaVuSans-65" x="1042.333984"/>
      <use xlink:href="#DejaVuSans-73" x="1103.857422"/>
      <use xlink:href="#DejaVuSans-40" x="1155.957031"/>
      <use xlink:href="#DejaVuSans-74" x="1255.957031"/>
      <use xlink:href="#DejaVuSans-72" x="1295.166016"/>
      <use xlink:href="#DejaVuSans-61" x="1336.279297"/>
      <use xlink:href="#DejaVuSans-63" x="1397.558594"/>
      <use xlink:href="#DejaVuSans-6b" x="1452.539062"/>
      <use xlink:href="#DejaVuSans-65" x="1506.824219"/>
      <use xlink:href="#DejaVuSans-72" x="1568.347656"/>
      <use xlink:href="#DejaVuSans-2e" x="1600.335938"/>
      <use xlink:href="#DejaVuSans-64" x="1632.123047"/>
      <use xlink:href="#DejaVuSans-65" x="1695.599609"/>
      <use xlink:href="#DejaVuSans-62" x="1757.123047"/>
      <use xlink:href="#DejaVuSans-69" x="1820.599609"/>
      <use xlink:href="#DejaVuSans-61" x="1848.382812"/>
      <use xlink:href="#DejaVuSans-6e" x="1909.662109"/>
      <use xlink:href="#DejaVuSans-2e" x="1973.041016"/>
      <use xlink:href="#DejaVuSans-6f" x="2004.828125"/>
      <use xlink:href="#DejaVuSans-72" x="2066.009766"/>
      <use xlink:href="#DejaVuSans-67" x="2105.373047"/>
      <use xlink:href="#DejaVuSans-20" x="2168.849609"/>
      <use xlink:href="#DejaVuSans-28" x="2200.636719"/>
      <use xlink:href="#DejaVuSans-30" x="2239.650391"/>
      <use xlink:href="#DejaVuSans-29" x="2303.273438"/>
     </g>
    </g>
   </g>
  </g>
 </g>
 <defs>
  <clipPath id="p9fe0c03f5c">
   <rect x="44.934294" y="10.8" width="1096.265706" height="663.958348"/>
  </clipPath>
 </defs>
</svg>
