<?xml version="1.0" encoding="utf-8" standalone="no"?>
<!DOCTYPE svg PUBLIC "-//W3C//DTD SVG 1.1//EN"
  "http://www.w3.org/Graphics/SVG/1.1/DTD/svg11.dtd">
<svg height="720pt" version="1.1" viewBox="0 0 1152 720" width="1152pt" xmlns="http://www.w3.org/2000/svg" xmlns:xlink="http://www.w3.org/1999/xlink">
 <metadata>
  <rdf:RDF xmlns:cc="http://creativecommons.org/ns#" xmlns:dc="http://purl.org/dc/elements/1.1/" xmlns:rdf="http://www.w3.org/1999/02/22-rdf-syntax-ns#">
   <cc:Work>
    <dc:type rdf:resource="http://purl.org/dc/dcmitype/StillImage"/>
    <dc:date>2021-11-02T01:35:59.234729</dc:date>
    <dc:format>image/svg+xml</dc:format>
    <dc:creator>
     <cc:Agent>
      <dc:title>Matplotlib v3.4.3, https://matplotlib.org/</dc:title>
     </cc:Agent>
    </dc:creator>
   </cc:Work>
  </rdf:RDF>
 </metadata>
 <defs>
  <style type="text/css">*{stroke-linecap:butt;stroke-linejoin:round;}</style>
 </defs>
 <g id="figure_1">
  <g id="patch_1">
   <path d="M 0 720 
L 1152 720 
L 1152 0 
L 0 0 
z
" style="fill:#ffffff;"/>
  </g>
  <g id="axes_1">
   <g id="patch_2">
    <path d="M 49.280988 674.758348 
L 1141.2 674.758348 
L 1141.2 10.8 
L 49.280988 10.8 
z
" style="fill:#ffffff;"/>
   </g>
   <g id="matplotlib.axis_1">
    <g id="xtick_1">
     <g id="line2d_1">
      <path clip-path="url(#pe3a336a92c)" d="M 73.130458 674.758348 
L 73.130458 10.8 
" style="fill:none;stroke:#b0b0b0;stroke-linecap:square;stroke-width:0.8;"/>
     </g>
     <g id="line2d_2">
      <defs>
       <path d="M 0 0 
L 0 3.5 
" id="m3855cb31b9" style="stroke:#000000;stroke-width:0.8;"/>
      </defs>
      <g>
       <use style="stroke:#000000;stroke-width:0.8;" x="73.130458" xlink:href="#m3855cb31b9" y="674.758348"/>
      </g>
     </g>
     <g id="text_1">
      <!-- 2021-08-15 -->
      <g transform="translate(17.216556 706.943608)rotate(-18)scale(0.1 -0.1)">
       <defs>
        <path d="M 1228 531 
L 3431 531 
L 3431 0 
L 469 0 
L 469 531 
Q 828 903 1448 1529 
Q 2069 2156 2228 2338 
Q 2531 2678 2651 2914 
Q 2772 3150 2772 3378 
Q 2772 3750 2511 3984 
Q 2250 4219 1831 4219 
Q 1534 4219 1204 4116 
Q 875 4013 500 3803 
L 500 4441 
Q 881 4594 1212 4672 
Q 1544 4750 1819 4750 
Q 2544 4750 2975 4387 
Q 3406 4025 3406 3419 
Q 3406 3131 3298 2873 
Q 3191 2616 2906 2266 
Q 2828 2175 2409 1742 
Q 1991 1309 1228 531 
z
" id="DejaVuSans-32" transform="scale(0.015625)"/>
        <path d="M 2034 4250 
Q 1547 4250 1301 3770 
Q 1056 3291 1056 2328 
Q 1056 1369 1301 889 
Q 1547 409 2034 409 
Q 2525 409 2770 889 
Q 3016 1369 3016 2328 
Q 3016 3291 2770 3770 
Q 2525 4250 2034 4250 
z
M 2034 4750 
Q 2819 4750 3233 4129 
Q 3647 3509 3647 2328 
Q 3647 1150 3233 529 
Q 2819 -91 2034 -91 
Q 1250 -91 836 529 
Q 422 1150 422 2328 
Q 422 3509 836 4129 
Q 1250 4750 2034 4750 
z
" id="DejaVuSans-30" transform="scale(0.015625)"/>
        <path d="M 794 531 
L 1825 531 
L 1825 4091 
L 703 3866 
L 703 4441 
L 1819 4666 
L 2450 4666 
L 2450 531 
L 3481 531 
L 3481 0 
L 794 0 
L 794 531 
z
" id="DejaVuSans-31" transform="scale(0.015625)"/>
        <path d="M 313 2009 
L 1997 2009 
L 1997 1497 
L 313 1497 
L 313 2009 
z
" id="DejaVuSans-2d" transform="scale(0.015625)"/>
        <path d="M 2034 2216 
Q 1584 2216 1326 1975 
Q 1069 1734 1069 1313 
Q 1069 891 1326 650 
Q 1584 409 2034 409 
Q 2484 409 2743 651 
Q 3003 894 3003 1313 
Q 3003 1734 2745 1975 
Q 2488 2216 2034 2216 
z
M 1403 2484 
Q 997 2584 770 2862 
Q 544 3141 544 3541 
Q 544 4100 942 4425 
Q 1341 4750 2034 4750 
Q 2731 4750 3128 4425 
Q 3525 4100 3525 3541 
Q 3525 3141 3298 2862 
Q 3072 2584 2669 2484 
Q 3125 2378 3379 2068 
Q 3634 1759 3634 1313 
Q 3634 634 3220 271 
Q 2806 -91 2034 -91 
Q 1263 -91 848 271 
Q 434 634 434 1313 
Q 434 1759 690 2068 
Q 947 2378 1403 2484 
z
M 1172 3481 
Q 1172 3119 1398 2916 
Q 1625 2713 2034 2713 
Q 2441 2713 2670 2916 
Q 2900 3119 2900 3481 
Q 2900 3844 2670 4047 
Q 2441 4250 2034 4250 
Q 1625 4250 1398 4047 
Q 1172 3844 1172 3481 
z
" id="DejaVuSans-38" transform="scale(0.015625)"/>
        <path d="M 691 4666 
L 3169 4666 
L 3169 4134 
L 1269 4134 
L 1269 2991 
Q 1406 3038 1543 3061 
Q 1681 3084 1819 3084 
Q 2600 3084 3056 2656 
Q 3513 2228 3513 1497 
Q 3513 744 3044 326 
Q 2575 -91 1722 -91 
Q 1428 -91 1123 -41 
Q 819 9 494 109 
L 494 744 
Q 775 591 1075 516 
Q 1375 441 1709 441 
Q 2250 441 2565 725 
Q 2881 1009 2881 1497 
Q 2881 1984 2565 2268 
Q 2250 2553 1709 2553 
Q 1456 2553 1204 2497 
Q 953 2441 691 2322 
L 691 4666 
z
" id="DejaVuSans-35" transform="scale(0.015625)"/>
       </defs>
       <use xlink:href="#DejaVuSans-32"/>
       <use x="63.623047" xlink:href="#DejaVuSans-30"/>
       <use x="127.246094" xlink:href="#DejaVuSans-32"/>
       <use x="190.869141" xlink:href="#DejaVuSans-31"/>
       <use x="254.492188" xlink:href="#DejaVuSans-2d"/>
       <use x="290.576172" xlink:href="#DejaVuSans-30"/>
       <use x="354.199219" xlink:href="#DejaVuSans-38"/>
       <use x="417.822266" xlink:href="#DejaVuSans-2d"/>
       <use x="453.90625" xlink:href="#DejaVuSans-31"/>
       <use x="517.529297" xlink:href="#DejaVuSans-35"/>
      </g>
     </g>
    </g>
    <g id="xtick_2">
     <g id="line2d_3">
      <path clip-path="url(#pe3a336a92c)" d="M 292.287757 674.758348 
L 292.287757 10.8 
" style="fill:none;stroke:#b0b0b0;stroke-linecap:square;stroke-width:0.8;"/>
     </g>
     <g id="line2d_4">
      <g>
       <use style="stroke:#000000;stroke-width:0.8;" x="292.287757" xlink:href="#m3855cb31b9" y="674.758348"/>
      </g>
     </g>
     <g id="text_2">
      <!-- 2021-09-01 -->
      <g transform="translate(236.373854 706.943608)rotate(-18)scale(0.1 -0.1)">
       <defs>
        <path d="M 703 97 
L 703 672 
Q 941 559 1184 500 
Q 1428 441 1663 441 
Q 2288 441 2617 861 
Q 2947 1281 2994 2138 
Q 2813 1869 2534 1725 
Q 2256 1581 1919 1581 
Q 1219 1581 811 2004 
Q 403 2428 403 3163 
Q 403 3881 828 4315 
Q 1253 4750 1959 4750 
Q 2769 4750 3195 4129 
Q 3622 3509 3622 2328 
Q 3622 1225 3098 567 
Q 2575 -91 1691 -91 
Q 1453 -91 1209 -44 
Q 966 3 703 97 
z
M 1959 2075 
Q 2384 2075 2632 2365 
Q 2881 2656 2881 3163 
Q 2881 3666 2632 3958 
Q 2384 4250 1959 4250 
Q 1534 4250 1286 3958 
Q 1038 3666 1038 3163 
Q 1038 2656 1286 2365 
Q 1534 2075 1959 2075 
z
" id="DejaVuSans-39" transform="scale(0.015625)"/>
       </defs>
       <use xlink:href="#DejaVuSans-32"/>
       <use x="63.623047" xlink:href="#DejaVuSans-30"/>
       <use x="127.246094" xlink:href="#DejaVuSans-32"/>
       <use x="190.869141" xlink:href="#DejaVuSans-31"/>
       <use x="254.492188" xlink:href="#DejaVuSans-2d"/>
       <use x="290.576172" xlink:href="#DejaVuSans-30"/>
       <use x="354.199219" xlink:href="#DejaVuSans-39"/>
       <use x="417.822266" xlink:href="#DejaVuSans-2d"/>
       <use x="453.90625" xlink:href="#DejaVuSans-30"/>
       <use x="517.529297" xlink:href="#DejaVuSans-31"/>
      </g>
     </g>
    </g>
    <g id="xtick_3">
     <g id="line2d_5">
      <path clip-path="url(#pe3a336a92c)" d="M 472.770239 674.758348 
L 472.770239 10.8 
" style="fill:none;stroke:#b0b0b0;stroke-linecap:square;stroke-width:0.8;"/>
     </g>
     <g id="line2d_6">
      <g>
       <use style="stroke:#000000;stroke-width:0.8;" x="472.770239" xlink:href="#m3855cb31b9" y="674.758348"/>
      </g>
     </g>
     <g id="text_3">
      <!-- 2021-09-15 -->
      <g transform="translate(416.856336 706.943608)rotate(-18)scale(0.1 -0.1)">
       <use xlink:href="#DejaVuSans-32"/>
       <use x="63.623047" xlink:href="#DejaVuSans-30"/>
       <use x="127.246094" xlink:href="#DejaVuSans-32"/>
       <use x="190.869141" xlink:href="#DejaVuSans-31"/>
       <use x="254.492188" xlink:href="#DejaVuSans-2d"/>
       <use x="290.576172" xlink:href="#DejaVuSans-30"/>
       <use x="354.199219" xlink:href="#DejaVuSans-39"/>
       <use x="417.822266" xlink:href="#DejaVuSans-2d"/>
       <use x="453.90625" xlink:href="#DejaVuSans-31"/>
       <use x="517.529297" xlink:href="#DejaVuSans-35"/>
      </g>
     </g>
    </g>
    <g id="xtick_4">
     <g id="line2d_7">
      <path clip-path="url(#pe3a336a92c)" d="M 679.035932 674.758348 
L 679.035932 10.8 
" style="fill:none;stroke:#b0b0b0;stroke-linecap:square;stroke-width:0.8;"/>
     </g>
     <g id="line2d_8">
      <g>
       <use style="stroke:#000000;stroke-width:0.8;" x="679.035932" xlink:href="#m3855cb31b9" y="674.758348"/>
      </g>
     </g>
     <g id="text_4">
      <!-- 2021-10-01 -->
      <g transform="translate(623.122029 706.943608)rotate(-18)scale(0.1 -0.1)">
       <use xlink:href="#DejaVuSans-32"/>
       <use x="63.623047" xlink:href="#DejaVuSans-30"/>
       <use x="127.246094" xlink:href="#DejaVuSans-32"/>
       <use x="190.869141" xlink:href="#DejaVuSans-31"/>
       <use x="254.492188" xlink:href="#DejaVuSans-2d"/>
       <use x="290.576172" xlink:href="#DejaVuSans-31"/>
       <use x="354.199219" xlink:href="#DejaVuSans-30"/>
       <use x="417.822266" xlink:href="#DejaVuSans-2d"/>
       <use x="453.90625" xlink:href="#DejaVuSans-30"/>
       <use x="517.529297" xlink:href="#DejaVuSans-31"/>
      </g>
     </g>
    </g>
    <g id="xtick_5">
     <g id="line2d_9">
      <path clip-path="url(#pe3a336a92c)" d="M 859.518413 674.758348 
L 859.518413 10.8 
" style="fill:none;stroke:#b0b0b0;stroke-linecap:square;stroke-width:0.8;"/>
     </g>
     <g id="line2d_10">
      <g>
       <use style="stroke:#000000;stroke-width:0.8;" x="859.518413" xlink:href="#m3855cb31b9" y="674.758348"/>
      </g>
     </g>
     <g id="text_5">
      <!-- 2021-10-15 -->
      <g transform="translate(803.60451 706.943608)rotate(-18)scale(0.1 -0.1)">
       <use xlink:href="#DejaVuSans-32"/>
       <use x="63.623047" xlink:href="#DejaVuSans-30"/>
       <use x="127.246094" xlink:href="#DejaVuSans-32"/>
       <use x="190.869141" xlink:href="#DejaVuSans-31"/>
       <use x="254.492188" xlink:href="#DejaVuSans-2d"/>
       <use x="290.576172" xlink:href="#DejaVuSans-31"/>
       <use x="354.199219" xlink:href="#DejaVuSans-30"/>
       <use x="417.822266" xlink:href="#DejaVuSans-2d"/>
       <use x="453.90625" xlink:href="#DejaVuSans-31"/>
       <use x="517.529297" xlink:href="#DejaVuSans-35"/>
      </g>
     </g>
    </g>
    <g id="xtick_6">
     <g id="line2d_11">
      <path clip-path="url(#pe3a336a92c)" d="M 1078.675712 674.758348 
L 1078.675712 10.8 
" style="fill:none;stroke:#b0b0b0;stroke-linecap:square;stroke-width:0.8;"/>
     </g>
     <g id="line2d_12">
      <g>
       <use style="stroke:#000000;stroke-width:0.8;" x="1078.675712" xlink:href="#m3855cb31b9" y="674.758348"/>
      </g>
     </g>
     <g id="text_6">
      <!-- 2021-11-01 -->
      <g transform="translate(1022.761809 706.943608)rotate(-18)scale(0.1 -0.1)">
       <use xlink:href="#DejaVuSans-32"/>
       <use x="63.623047" xlink:href="#DejaVuSans-30"/>
       <use x="127.246094" xlink:href="#DejaVuSans-32"/>
       <use x="190.869141" xlink:href="#DejaVuSans-31"/>
       <use x="254.492188" xlink:href="#DejaVuSans-2d"/>
       <use x="290.576172" xlink:href="#DejaVuSans-31"/>
       <use x="354.199219" xlink:href="#DejaVuSans-31"/>
       <use x="417.822266" xlink:href="#DejaVuSans-2d"/>
       <use x="453.90625" xlink:href="#DejaVuSans-30"/>
       <use x="517.529297" xlink:href="#DejaVuSans-31"/>
      </g>
     </g>
    </g>
   </g>
   <g id="matplotlib.axis_2">
    <g id="ytick_1">
     <g id="line2d_13">
      <path clip-path="url(#pe3a336a92c)" d="M 49.280988 645.334813 
L 1141.2 645.334813 
" style="fill:none;stroke:#b0b0b0;stroke-linecap:square;stroke-width:0.8;"/>
     </g>
     <g id="line2d_14">
      <defs>
       <path d="M 0 0 
L -3.5 0 
" id="ma3a9d22ac1" style="stroke:#000000;stroke-width:0.8;"/>
      </defs>
      <g>
       <use style="stroke:#000000;stroke-width:0.8;" x="49.280988" xlink:href="#ma3a9d22ac1" y="645.334813"/>
      </g>
     </g>
     <g id="text_7">
      <!-- 0 -->
      <g transform="translate(35.918488 649.134031)scale(0.1 -0.1)">
       <use xlink:href="#DejaVuSans-30"/>
      </g>
     </g>
    </g>
    <g id="ytick_2">
     <g id="line2d_15">
      <path clip-path="url(#pe3a336a92c)" d="M 49.280988 569.695903 
L 1141.2 569.695903 
" style="fill:none;stroke:#b0b0b0;stroke-linecap:square;stroke-width:0.8;"/>
     </g>
     <g id="line2d_16">
      <g>
       <use style="stroke:#000000;stroke-width:0.8;" x="49.280988" xlink:href="#ma3a9d22ac1" y="569.695903"/>
      </g>
     </g>
     <g id="text_8">
      <!-- 100 -->
      <g transform="translate(23.193488 573.495122)scale(0.1 -0.1)">
       <use xlink:href="#DejaVuSans-31"/>
       <use x="63.623047" xlink:href="#DejaVuSans-30"/>
       <use x="127.246094" xlink:href="#DejaVuSans-30"/>
      </g>
     </g>
    </g>
    <g id="ytick_3">
     <g id="line2d_17">
      <path clip-path="url(#pe3a336a92c)" d="M 49.280988 494.056993 
L 1141.2 494.056993 
" style="fill:none;stroke:#b0b0b0;stroke-linecap:square;stroke-width:0.8;"/>
     </g>
     <g id="line2d_18">
      <g>
       <use style="stroke:#000000;stroke-width:0.8;" x="49.280988" xlink:href="#ma3a9d22ac1" y="494.056993"/>
      </g>
     </g>
     <g id="text_9">
      <!-- 200 -->
      <g transform="translate(23.193488 497.856212)scale(0.1 -0.1)">
       <use xlink:href="#DejaVuSans-32"/>
       <use x="63.623047" xlink:href="#DejaVuSans-30"/>
       <use x="127.246094" xlink:href="#DejaVuSans-30"/>
      </g>
     </g>
    </g>
    <g id="ytick_4">
     <g id="line2d_19">
      <path clip-path="url(#pe3a336a92c)" d="M 49.280988 418.418084 
L 1141.2 418.418084 
" style="fill:none;stroke:#b0b0b0;stroke-linecap:square;stroke-width:0.8;"/>
     </g>
     <g id="line2d_20">
      <g>
       <use style="stroke:#000000;stroke-width:0.8;" x="49.280988" xlink:href="#ma3a9d22ac1" y="418.418084"/>
      </g>
     </g>
     <g id="text_10">
      <!-- 300 -->
      <g transform="translate(23.193488 422.217303)scale(0.1 -0.1)">
       <defs>
        <path d="M 2597 2516 
Q 3050 2419 3304 2112 
Q 3559 1806 3559 1356 
Q 3559 666 3084 287 
Q 2609 -91 1734 -91 
Q 1441 -91 1130 -33 
Q 819 25 488 141 
L 488 750 
Q 750 597 1062 519 
Q 1375 441 1716 441 
Q 2309 441 2620 675 
Q 2931 909 2931 1356 
Q 2931 1769 2642 2001 
Q 2353 2234 1838 2234 
L 1294 2234 
L 1294 2753 
L 1863 2753 
Q 2328 2753 2575 2939 
Q 2822 3125 2822 3475 
Q 2822 3834 2567 4026 
Q 2313 4219 1838 4219 
Q 1578 4219 1281 4162 
Q 984 4106 628 3988 
L 628 4550 
Q 988 4650 1302 4700 
Q 1616 4750 1894 4750 
Q 2613 4750 3031 4423 
Q 3450 4097 3450 3541 
Q 3450 3153 3228 2886 
Q 3006 2619 2597 2516 
z
" id="DejaVuSans-33" transform="scale(0.015625)"/>
       </defs>
       <use xlink:href="#DejaVuSans-33"/>
       <use x="63.623047" xlink:href="#DejaVuSans-30"/>
       <use x="127.246094" xlink:href="#DejaVuSans-30"/>
      </g>
     </g>
    </g>
    <g id="ytick_5">
     <g id="line2d_21">
      <path clip-path="url(#pe3a336a92c)" d="M 49.280988 342.779174 
L 1141.2 342.779174 
" style="fill:none;stroke:#b0b0b0;stroke-linecap:square;stroke-width:0.8;"/>
     </g>
     <g id="line2d_22">
      <g>
       <use style="stroke:#000000;stroke-width:0.8;" x="49.280988" xlink:href="#ma3a9d22ac1" y="342.779174"/>
      </g>
     </g>
     <g id="text_11">
      <!-- 400 -->
      <g transform="translate(23.193488 346.578393)scale(0.1 -0.1)">
       <defs>
        <path d="M 2419 4116 
L 825 1625 
L 2419 1625 
L 2419 4116 
z
M 2253 4666 
L 3047 4666 
L 3047 1625 
L 3713 1625 
L 3713 1100 
L 3047 1100 
L 3047 0 
L 2419 0 
L 2419 1100 
L 313 1100 
L 313 1709 
L 2253 4666 
z
" id="DejaVuSans-34" transform="scale(0.015625)"/>
       </defs>
       <use xlink:href="#DejaVuSans-34"/>
       <use x="63.623047" xlink:href="#DejaVuSans-30"/>
       <use x="127.246094" xlink:href="#DejaVuSans-30"/>
      </g>
     </g>
    </g>
    <g id="ytick_6">
     <g id="line2d_23">
      <path clip-path="url(#pe3a336a92c)" d="M 49.280988 267.140265 
L 1141.2 267.140265 
" style="fill:none;stroke:#b0b0b0;stroke-linecap:square;stroke-width:0.8;"/>
     </g>
     <g id="line2d_24">
      <g>
       <use style="stroke:#000000;stroke-width:0.8;" x="49.280988" xlink:href="#ma3a9d22ac1" y="267.140265"/>
      </g>
     </g>
     <g id="text_12">
      <!-- 500 -->
      <g transform="translate(23.193488 270.939483)scale(0.1 -0.1)">
       <use xlink:href="#DejaVuSans-35"/>
       <use x="63.623047" xlink:href="#DejaVuSans-30"/>
       <use x="127.246094" xlink:href="#DejaVuSans-30"/>
      </g>
     </g>
    </g>
    <g id="ytick_7">
     <g id="line2d_25">
      <path clip-path="url(#pe3a336a92c)" d="M 49.280988 191.501355 
L 1141.2 191.501355 
" style="fill:none;stroke:#b0b0b0;stroke-linecap:square;stroke-width:0.8;"/>
     </g>
     <g id="line2d_26">
      <g>
       <use style="stroke:#000000;stroke-width:0.8;" x="49.280988" xlink:href="#ma3a9d22ac1" y="191.501355"/>
      </g>
     </g>
     <g id="text_13">
      <!-- 600 -->
      <g transform="translate(23.193488 195.300574)scale(0.1 -0.1)">
       <defs>
        <path d="M 2113 2584 
Q 1688 2584 1439 2293 
Q 1191 2003 1191 1497 
Q 1191 994 1439 701 
Q 1688 409 2113 409 
Q 2538 409 2786 701 
Q 3034 994 3034 1497 
Q 3034 2003 2786 2293 
Q 2538 2584 2113 2584 
z
M 3366 4563 
L 3366 3988 
Q 3128 4100 2886 4159 
Q 2644 4219 2406 4219 
Q 1781 4219 1451 3797 
Q 1122 3375 1075 2522 
Q 1259 2794 1537 2939 
Q 1816 3084 2150 3084 
Q 2853 3084 3261 2657 
Q 3669 2231 3669 1497 
Q 3669 778 3244 343 
Q 2819 -91 2113 -91 
Q 1303 -91 875 529 
Q 447 1150 447 2328 
Q 447 3434 972 4092 
Q 1497 4750 2381 4750 
Q 2619 4750 2861 4703 
Q 3103 4656 3366 4563 
z
" id="DejaVuSans-36" transform="scale(0.015625)"/>
       </defs>
       <use xlink:href="#DejaVuSans-36"/>
       <use x="63.623047" xlink:href="#DejaVuSans-30"/>
       <use x="127.246094" xlink:href="#DejaVuSans-30"/>
      </g>
     </g>
    </g>
    <g id="ytick_8">
     <g id="line2d_27">
      <path clip-path="url(#pe3a336a92c)" d="M 49.280988 115.862445 
L 1141.2 115.862445 
" style="fill:none;stroke:#b0b0b0;stroke-linecap:square;stroke-width:0.8;"/>
     </g>
     <g id="line2d_28">
      <g>
       <use style="stroke:#000000;stroke-width:0.8;" x="49.280988" xlink:href="#ma3a9d22ac1" y="115.862445"/>
      </g>
     </g>
     <g id="text_14">
      <!-- 700 -->
      <g transform="translate(23.193488 119.661664)scale(0.1 -0.1)">
       <defs>
        <path d="M 525 4666 
L 3525 4666 
L 3525 4397 
L 1831 0 
L 1172 0 
L 2766 4134 
L 525 4134 
L 525 4666 
z
" id="DejaVuSans-37" transform="scale(0.015625)"/>
       </defs>
       <use xlink:href="#DejaVuSans-37"/>
       <use x="63.623047" xlink:href="#DejaVuSans-30"/>
       <use x="127.246094" xlink:href="#DejaVuSans-30"/>
      </g>
     </g>
    </g>
    <g id="ytick_9">
     <g id="line2d_29">
      <path clip-path="url(#pe3a336a92c)" d="M 49.280988 40.223536 
L 1141.2 40.223536 
" style="fill:none;stroke:#b0b0b0;stroke-linecap:square;stroke-width:0.8;"/>
     </g>
     <g id="line2d_30">
      <g>
       <use style="stroke:#000000;stroke-width:0.8;" x="49.280988" xlink:href="#ma3a9d22ac1" y="40.223536"/>
      </g>
     </g>
     <g id="text_15">
      <!-- 800 -->
      <g transform="translate(23.193488 44.022755)scale(0.1 -0.1)">
       <use xlink:href="#DejaVuSans-38"/>
       <use x="63.623047" xlink:href="#DejaVuSans-30"/>
       <use x="127.246094" xlink:href="#DejaVuSans-30"/>
      </g>
     </g>
    </g>
   </g>
   <g id="line2d_31">
    <path clip-path="url(#pe3a336a92c)" d="M 98.91367 106.029387 
L 111.805276 106.029387 
L 124.696882 118.888002 
L 137.588487 121.913558 
L 150.480093 123.426336 
L 163.371699 125.695504 
L 176.263305 125.695504 
L 189.154911 126.451893 
L 202.046516 127.964671 
L 214.938122 129.477449 
L 227.829728 130.233838 
L 240.721334 130.233838 
L 253.61294 131.746616 
L 266.504546 134.015784 
L 279.396151 135.528562 
L 292.287757 136.284951 
L 305.179363 137.797729 
L 318.070969 140.823286 
L 330.962575 140.823286 
L 343.85418 40.979925 
L 356.745786 41.736314 
L 369.637392 44.005481 
L 382.528998 44.005481 
L 395.420604 44.76187 
L 408.312209 44.76187 
L 421.203815 47.787427 
L 434.095421 50.056594 
L 446.987027 50.056594 
L 459.878633 52.325761 
L 472.770239 54.594929 
L 485.661844 54.594929 
L 498.55345 62.915209 
L 511.445056 66.697154 
L 524.336662 68.209932 
L 537.228268 71.235489 
L 550.119873 73.504656 
L 563.011479 73.504656 
L 575.903085 73.504656 
L 588.794691 73.504656 
L 601.686297 73.504656 
L 614.577902 74.261045 
L 627.469508 74.261045 
L 640.361114 74.261045 
L 653.25272 75.017434 
L 666.144326 78.042991 
L 679.035932 81.824936 
L 691.927537 82.581325 
L 704.819143 84.094103 
L 717.710749 85.606882 
L 730.602355 85.606882 
L 743.493961 85.606882 
L 756.385566 85.606882 
L 769.277172 85.606882 
L 782.168778 85.606882 
L 795.060384 85.606882 
L 807.95199 85.606882 
L 820.843596 85.606882 
L 833.735201 106.785776 
L 846.626807 108.298554 
L 859.518413 108.298554 
L 872.410019 110.567722 
L 885.301625 110.567722 
L 898.19323 110.567722 
L 911.084836 112.836889 
L 923.976442 114.349667 
L 936.868048 115.862445 
L 975.542865 122.669947 
L 988.434471 124.939115 
L 1001.326077 127.208282 
L 1014.217683 127.964671 
L 1027.109289 129.477449 
L 1040.000894 130.233838 
L 1052.8925 130.233838 
L 1065.784106 132.503006 
L 1078.675712 133.259395 
L 1091.567318 133.259395 
" style="fill:none;stroke:#1f77b4;stroke-linecap:square;stroke-width:1.5;"/>
   </g>
   <g id="line2d_32">
    <path clip-path="url(#pe3a336a92c)" d="M 98.91367 598.438689 
L 111.805276 598.438689 
L 124.696882 598.438689 
L 137.588487 598.438689 
L 150.480093 598.438689 
L 163.371699 599.195078 
L 176.263305 599.195078 
L 189.154911 599.195078 
L 202.046516 599.195078 
L 214.938122 599.195078 
L 227.829728 599.195078 
L 240.721334 599.195078 
L 253.61294 599.195078 
L 266.504546 599.195078 
L 279.396151 599.195078 
L 292.287757 599.195078 
L 305.179363 599.195078 
L 318.070969 599.195078 
L 330.962575 599.195078 
L 343.85418 584.067296 
L 356.745786 584.067296 
L 369.637392 584.067296 
L 382.528998 584.823685 
L 395.420604 590.118409 
L 408.312209 590.118409 
L 421.203815 590.118409 
L 434.095421 590.118409 
L 446.987027 590.118409 
L 459.878633 590.118409 
L 472.770239 602.977023 
L 485.661844 616.592027 
L 498.55345 626.425085 
L 511.445056 626.425085 
L 524.336662 627.181474 
L 537.228268 627.181474 
L 550.119873 627.181474 
L 563.011479 627.181474 
L 575.903085 627.181474 
L 588.794691 627.181474 
L 601.686297 627.181474 
L 614.577902 627.181474 
L 627.469508 627.181474 
L 640.361114 627.937863 
L 653.25272 627.937863 
L 666.144326 627.937863 
L 679.035932 627.937863 
L 691.927537 627.937863 
L 704.819143 627.937863 
L 717.710749 627.937863 
L 730.602355 627.937863 
L 743.493961 627.937863 
L 756.385566 627.937863 
L 769.277172 627.937863 
L 782.168778 627.937863 
L 795.060384 627.937863 
L 807.95199 627.937863 
L 820.843596 627.937863 
L 833.735201 629.450642 
L 846.626807 629.450642 
L 859.518413 629.450642 
L 872.410019 629.450642 
L 885.301625 629.450642 
L 898.19323 629.450642 
L 911.084836 629.450642 
L 923.976442 629.450642 
L 936.868048 629.450642 
L 975.542865 629.450642 
L 988.434471 629.450642 
L 1001.326077 629.450642 
L 1014.217683 629.450642 
L 1027.109289 629.450642 
L 1040.000894 630.207031 
L 1052.8925 630.207031 
L 1065.784106 630.207031 
L 1078.675712 630.207031 
L 1091.567318 630.207031 
" style="fill:none;stroke:#ff7f0e;stroke-linecap:square;stroke-width:1.5;"/>
   </g>
   <g id="line2d_33">
    <path clip-path="url(#pe3a336a92c)" d="M 98.91367 644.578423 
L 111.805276 644.578423 
L 124.696882 644.578423 
L 137.588487 644.578423 
L 150.480093 644.578423 
" style="fill:none;stroke:#2ca02c;stroke-linecap:square;stroke-width:1.5;"/>
   </g>
   <g id="line2d_34">
    <path clip-path="url(#pe3a336a92c)" d="M 98.91367 644.578423 
L 111.805276 644.578423 
L 124.696882 644.578423 
L 137.588487 644.578423 
L 150.480093 644.578423 
" style="fill:none;stroke:#d62728;stroke-linecap:square;stroke-width:1.5;"/>
   </g>
   <g id="line2d_35">
    <path clip-path="url(#pe3a336a92c)" d="M 98.91367 633.988976 
L 111.805276 633.988976 
L 124.696882 633.988976 
L 137.588487 633.988976 
L 150.480093 633.988976 
L 163.371699 633.988976 
L 176.263305 633.988976 
L 189.154911 633.988976 
L 202.046516 638.527311 
L 214.938122 638.527311 
L 227.829728 638.527311 
L 240.721334 638.527311 
L 253.61294 638.527311 
L 266.504546 638.527311 
L 279.396151 643.822034 
L 292.287757 643.822034 
L 305.179363 643.822034 
L 318.070969 643.822034 
L 330.962575 643.822034 
L 343.85418 643.822034 
L 356.745786 643.822034 
L 369.637392 643.822034 
L 382.528998 643.822034 
L 395.420604 643.822034 
L 408.312209 643.822034 
L 421.203815 643.822034 
L 434.095421 644.578423 
L 446.987027 644.578423 
L 459.878633 644.578423 
L 472.770239 644.578423 
L 485.661844 644.578423 
L 498.55345 644.578423 
L 511.445056 644.578423 
L 524.336662 644.578423 
L 537.228268 644.578423 
L 550.119873 644.578423 
L 563.011479 644.578423 
L 575.903085 644.578423 
L 588.794691 644.578423 
L 601.686297 644.578423 
L 614.577902 644.578423 
L 627.469508 644.578423 
L 640.361114 644.578423 
L 653.25272 644.578423 
L 666.144326 644.578423 
L 679.035932 644.578423 
L 691.927537 644.578423 
L 704.819143 644.578423 
L 717.710749 644.578423 
L 730.602355 644.578423 
L 743.493961 644.578423 
L 756.385566 644.578423 
L 769.277172 644.578423 
L 782.168778 644.578423 
L 795.060384 644.578423 
L 807.95199 644.578423 
L 820.843596 644.578423 
L 833.735201 644.578423 
L 846.626807 644.578423 
L 859.518413 644.578423 
" style="fill:none;stroke:#9467bd;stroke-linecap:square;stroke-width:1.5;"/>
   </g>
   <g id="line2d_36">
    <path clip-path="url(#pe3a336a92c)" d="M 98.91367 638.527311 
L 111.805276 638.527311 
L 124.696882 638.527311 
L 137.588487 638.527311 
L 150.480093 638.527311 
L 163.371699 638.527311 
L 176.263305 640.796478 
L 189.154911 643.822034 
" style="fill:none;stroke:#8c564b;stroke-linecap:square;stroke-width:1.5;"/>
   </g>
   <g id="line2d_37">
    <path clip-path="url(#pe3a336a92c)" d="M 343.85418 674.758348 
L 343.85418 10.8 
" style="fill:none;stroke:#ff0000;stroke-dasharray:5.55,2.4;stroke-dashoffset:0;stroke-width:1.5;"/>
   </g>
   <g id="patch_3">
    <path d="M 49.280988 674.758348 
L 49.280988 10.8 
" style="fill:none;stroke:#000000;stroke-linecap:square;stroke-linejoin:miter;stroke-width:0.8;"/>
   </g>
   <g id="patch_4">
    <path d="M 1141.2 674.758348 
L 1141.2 10.8 
" style="fill:none;stroke:#000000;stroke-linecap:square;stroke-linejoin:miter;stroke-width:0.8;"/>
   </g>
   <g id="patch_5">
    <path d="M 49.280988 674.758348 
L 1141.2 674.758348 
" style="fill:none;stroke:#000000;stroke-linecap:square;stroke-linejoin:miter;stroke-width:0.8;"/>
   </g>
   <g id="patch_6">
    <path d="M 49.280988 10.8 
L 1141.2 10.8 
" style="fill:none;stroke:#000000;stroke-linecap:square;stroke-linejoin:miter;stroke-width:0.8;"/>
   </g>
   <g id="patch_7">
    <path d="M 345.324686 484.5659 
Q 343.905434 457.536422 342.486182 430.506944 
L 338.491685 430.716685 
Q 341.172932 424.567384 343.85418 418.418084 
Q 347.164678 424.252772 350.475176 430.087461 
L 346.480679 430.297202 
Q 347.899931 457.326681 349.319183 484.356159 
L 345.324686 484.5659 
z
" style="fill:#ff0000;stroke:#000000;stroke-linecap:round;"/>
   </g>
   <g id="text_16">
    <!-- Added uploaders data -->
    <g style="fill:#ff0000;" transform="translate(292.287757 494.056993)scale(0.1 -0.1)">
     <defs>
      <path d="M 2188 4044 
L 1331 1722 
L 3047 1722 
L 2188 4044 
z
M 1831 4666 
L 2547 4666 
L 4325 0 
L 3669 0 
L 3244 1197 
L 1141 1197 
L 716 0 
L 50 0 
L 1831 4666 
z
" id="DejaVuSans-41" transform="scale(0.015625)"/>
      <path d="M 2906 2969 
L 2906 4863 
L 3481 4863 
L 3481 0 
L 2906 0 
L 2906 525 
Q 2725 213 2448 61 
Q 2172 -91 1784 -91 
Q 1150 -91 751 415 
Q 353 922 353 1747 
Q 353 2572 751 3078 
Q 1150 3584 1784 3584 
Q 2172 3584 2448 3432 
Q 2725 3281 2906 2969 
z
M 947 1747 
Q 947 1113 1208 752 
Q 1469 391 1925 391 
Q 2381 391 2643 752 
Q 2906 1113 2906 1747 
Q 2906 2381 2643 2742 
Q 2381 3103 1925 3103 
Q 1469 3103 1208 2742 
Q 947 2381 947 1747 
z
" id="DejaVuSans-64" transform="scale(0.015625)"/>
      <path d="M 3597 1894 
L 3597 1613 
L 953 1613 
Q 991 1019 1311 708 
Q 1631 397 2203 397 
Q 2534 397 2845 478 
Q 3156 559 3463 722 
L 3463 178 
Q 3153 47 2828 -22 
Q 2503 -91 2169 -91 
Q 1331 -91 842 396 
Q 353 884 353 1716 
Q 353 2575 817 3079 
Q 1281 3584 2069 3584 
Q 2775 3584 3186 3129 
Q 3597 2675 3597 1894 
z
M 3022 2063 
Q 3016 2534 2758 2815 
Q 2500 3097 2075 3097 
Q 1594 3097 1305 2825 
Q 1016 2553 972 2059 
L 3022 2063 
z
" id="DejaVuSans-65" transform="scale(0.015625)"/>
      <path id="DejaVuSans-20" transform="scale(0.015625)"/>
      <path d="M 544 1381 
L 544 3500 
L 1119 3500 
L 1119 1403 
Q 1119 906 1312 657 
Q 1506 409 1894 409 
Q 2359 409 2629 706 
Q 2900 1003 2900 1516 
L 2900 3500 
L 3475 3500 
L 3475 0 
L 2900 0 
L 2900 538 
Q 2691 219 2414 64 
Q 2138 -91 1772 -91 
Q 1169 -91 856 284 
Q 544 659 544 1381 
z
M 1991 3584 
L 1991 3584 
z
" id="DejaVuSans-75" transform="scale(0.015625)"/>
      <path d="M 1159 525 
L 1159 -1331 
L 581 -1331 
L 581 3500 
L 1159 3500 
L 1159 2969 
Q 1341 3281 1617 3432 
Q 1894 3584 2278 3584 
Q 2916 3584 3314 3078 
Q 3713 2572 3713 1747 
Q 3713 922 3314 415 
Q 2916 -91 2278 -91 
Q 1894 -91 1617 61 
Q 1341 213 1159 525 
z
M 3116 1747 
Q 3116 2381 2855 2742 
Q 2594 3103 2138 3103 
Q 1681 3103 1420 2742 
Q 1159 2381 1159 1747 
Q 1159 1113 1420 752 
Q 1681 391 2138 391 
Q 2594 391 2855 752 
Q 3116 1113 3116 1747 
z
" id="DejaVuSans-70" transform="scale(0.015625)"/>
      <path d="M 603 4863 
L 1178 4863 
L 1178 0 
L 603 0 
L 603 4863 
z
" id="DejaVuSans-6c" transform="scale(0.015625)"/>
      <path d="M 1959 3097 
Q 1497 3097 1228 2736 
Q 959 2375 959 1747 
Q 959 1119 1226 758 
Q 1494 397 1959 397 
Q 2419 397 2687 759 
Q 2956 1122 2956 1747 
Q 2956 2369 2687 2733 
Q 2419 3097 1959 3097 
z
M 1959 3584 
Q 2709 3584 3137 3096 
Q 3566 2609 3566 1747 
Q 3566 888 3137 398 
Q 2709 -91 1959 -91 
Q 1206 -91 779 398 
Q 353 888 353 1747 
Q 353 2609 779 3096 
Q 1206 3584 1959 3584 
z
" id="DejaVuSans-6f" transform="scale(0.015625)"/>
      <path d="M 2194 1759 
Q 1497 1759 1228 1600 
Q 959 1441 959 1056 
Q 959 750 1161 570 
Q 1363 391 1709 391 
Q 2188 391 2477 730 
Q 2766 1069 2766 1631 
L 2766 1759 
L 2194 1759 
z
M 3341 1997 
L 3341 0 
L 2766 0 
L 2766 531 
Q 2569 213 2275 61 
Q 1981 -91 1556 -91 
Q 1019 -91 701 211 
Q 384 513 384 1019 
Q 384 1609 779 1909 
Q 1175 2209 1959 2209 
L 2766 2209 
L 2766 2266 
Q 2766 2663 2505 2880 
Q 2244 3097 1772 3097 
Q 1472 3097 1187 3025 
Q 903 2953 641 2809 
L 641 3341 
Q 956 3463 1253 3523 
Q 1550 3584 1831 3584 
Q 2591 3584 2966 3190 
Q 3341 2797 3341 1997 
z
" id="DejaVuSans-61" transform="scale(0.015625)"/>
      <path d="M 2631 2963 
Q 2534 3019 2420 3045 
Q 2306 3072 2169 3072 
Q 1681 3072 1420 2755 
Q 1159 2438 1159 1844 
L 1159 0 
L 581 0 
L 581 3500 
L 1159 3500 
L 1159 2956 
Q 1341 3275 1631 3429 
Q 1922 3584 2338 3584 
Q 2397 3584 2469 3576 
Q 2541 3569 2628 3553 
L 2631 2963 
z
" id="DejaVuSans-72" transform="scale(0.015625)"/>
      <path d="M 2834 3397 
L 2834 2853 
Q 2591 2978 2328 3040 
Q 2066 3103 1784 3103 
Q 1356 3103 1142 2972 
Q 928 2841 928 2578 
Q 928 2378 1081 2264 
Q 1234 2150 1697 2047 
L 1894 2003 
Q 2506 1872 2764 1633 
Q 3022 1394 3022 966 
Q 3022 478 2636 193 
Q 2250 -91 1575 -91 
Q 1294 -91 989 -36 
Q 684 19 347 128 
L 347 722 
Q 666 556 975 473 
Q 1284 391 1588 391 
Q 1994 391 2212 530 
Q 2431 669 2431 922 
Q 2431 1156 2273 1281 
Q 2116 1406 1581 1522 
L 1381 1569 
Q 847 1681 609 1914 
Q 372 2147 372 2553 
Q 372 3047 722 3315 
Q 1072 3584 1716 3584 
Q 2034 3584 2315 3537 
Q 2597 3491 2834 3397 
z
" id="DejaVuSans-73" transform="scale(0.015625)"/>
      <path d="M 1172 4494 
L 1172 3500 
L 2356 3500 
L 2356 3053 
L 1172 3053 
L 1172 1153 
Q 1172 725 1289 603 
Q 1406 481 1766 481 
L 2356 481 
L 2356 0 
L 1766 0 
Q 1100 0 847 248 
Q 594 497 594 1153 
L 594 3053 
L 172 3053 
L 172 3500 
L 594 3500 
L 594 4494 
L 1172 4494 
z
" id="DejaVuSans-74" transform="scale(0.015625)"/>
     </defs>
     <use xlink:href="#DejaVuSans-41"/>
     <use x="66.658203" xlink:href="#DejaVuSans-64"/>
     <use x="130.134766" xlink:href="#DejaVuSans-64"/>
     <use x="193.611328" xlink:href="#DejaVuSans-65"/>
     <use x="255.134766" xlink:href="#DejaVuSans-64"/>
     <use x="318.611328" xlink:href="#DejaVuSans-20"/>
     <use x="350.398438" xlink:href="#DejaVuSans-75"/>
     <use x="413.777344" xlink:href="#DejaVuSans-70"/>
     <use x="477.253906" xlink:href="#DejaVuSans-6c"/>
     <use x="505.037109" xlink:href="#DejaVuSans-6f"/>
     <use x="566.21875" xlink:href="#DejaVuSans-61"/>
     <use x="627.498047" xlink:href="#DejaVuSans-64"/>
     <use x="690.974609" xlink:href="#DejaVuSans-65"/>
     <use x="752.498047" xlink:href="#DejaVuSans-72"/>
     <use x="793.611328" xlink:href="#DejaVuSans-73"/>
     <use x="845.710938" xlink:href="#DejaVuSans-20"/>
     <use x="877.498047" xlink:href="#DejaVuSans-64"/>
     <use x="940.974609" xlink:href="#DejaVuSans-61"/>
     <use x="1002.253906" xlink:href="#DejaVuSans-74"/>
     <use x="1041.462891" xlink:href="#DejaVuSans-61"/>
    </g>
   </g>
   <g id="legend_1">
    <g id="patch_8">
     <path d="M 56.280988 395.652612 
L 347.162238 395.652612 
Q 349.162238 395.652612 349.162238 393.652612 
L 349.162238 291.905737 
Q 349.162238 289.905737 347.162238 289.905737 
L 56.280988 289.905737 
Q 54.280988 289.905737 54.280988 291.905737 
L 54.280988 393.652612 
Q 54.280988 395.652612 56.280988 395.652612 
z
" style="fill:#ffffff;opacity:0.8;stroke:#cccccc;stroke-linejoin:miter;"/>
    </g>
    <g id="patch_9">
     <path d="M 58.280988 301.504174 
L 78.280988 301.504174 
L 78.280988 294.504174 
L 58.280988 294.504174 
z
" style="fill:none;opacity:0;"/>
    </g>
    <g id="text_17">
     <!-- team+python@tracker.debian.org (1096) -->
     <g transform="translate(86.280988 301.504174)scale(0.1 -0.1)">
      <defs>
       <path d="M 3328 2828 
Q 3544 3216 3844 3400 
Q 4144 3584 4550 3584 
Q 5097 3584 5394 3201 
Q 5691 2819 5691 2113 
L 5691 0 
L 5113 0 
L 5113 2094 
Q 5113 2597 4934 2840 
Q 4756 3084 4391 3084 
Q 3944 3084 3684 2787 
Q 3425 2491 3425 1978 
L 3425 0 
L 2847 0 
L 2847 2094 
Q 2847 2600 2669 2842 
Q 2491 3084 2119 3084 
Q 1678 3084 1418 2786 
Q 1159 2488 1159 1978 
L 1159 0 
L 581 0 
L 581 3500 
L 1159 3500 
L 1159 2956 
Q 1356 3278 1631 3431 
Q 1906 3584 2284 3584 
Q 2666 3584 2933 3390 
Q 3200 3197 3328 2828 
z
" id="DejaVuSans-6d" transform="scale(0.015625)"/>
       <path d="M 2944 4013 
L 2944 2272 
L 4684 2272 
L 4684 1741 
L 2944 1741 
L 2944 0 
L 2419 0 
L 2419 1741 
L 678 1741 
L 678 2272 
L 2419 2272 
L 2419 4013 
L 2944 4013 
z
" id="DejaVuSans-2b" transform="scale(0.015625)"/>
       <path d="M 2059 -325 
Q 1816 -950 1584 -1140 
Q 1353 -1331 966 -1331 
L 506 -1331 
L 506 -850 
L 844 -850 
Q 1081 -850 1212 -737 
Q 1344 -625 1503 -206 
L 1606 56 
L 191 3500 
L 800 3500 
L 1894 763 
L 2988 3500 
L 3597 3500 
L 2059 -325 
z
" id="DejaVuSans-79" transform="scale(0.015625)"/>
       <path d="M 3513 2113 
L 3513 0 
L 2938 0 
L 2938 2094 
Q 2938 2591 2744 2837 
Q 2550 3084 2163 3084 
Q 1697 3084 1428 2787 
Q 1159 2491 1159 1978 
L 1159 0 
L 581 0 
L 581 4863 
L 1159 4863 
L 1159 2956 
Q 1366 3272 1645 3428 
Q 1925 3584 2291 3584 
Q 2894 3584 3203 3211 
Q 3513 2838 3513 2113 
z
" id="DejaVuSans-68" transform="scale(0.015625)"/>
       <path d="M 3513 2113 
L 3513 0 
L 2938 0 
L 2938 2094 
Q 2938 2591 2744 2837 
Q 2550 3084 2163 3084 
Q 1697 3084 1428 2787 
Q 1159 2491 1159 1978 
L 1159 0 
L 581 0 
L 581 3500 
L 1159 3500 
L 1159 2956 
Q 1366 3272 1645 3428 
Q 1925 3584 2291 3584 
Q 2894 3584 3203 3211 
Q 3513 2838 3513 2113 
z
" id="DejaVuSans-6e" transform="scale(0.015625)"/>
       <path d="M 2381 1678 
Q 2381 1231 2603 976 
Q 2825 722 3213 722 
Q 3597 722 3817 978 
Q 4038 1234 4038 1678 
Q 4038 2116 3813 2373 
Q 3588 2631 3206 2631 
Q 2828 2631 2604 2375 
Q 2381 2119 2381 1678 
z
M 4084 744 
Q 3897 503 3655 389 
Q 3413 275 3091 275 
Q 2553 275 2217 664 
Q 1881 1053 1881 1678 
Q 1881 2303 2218 2693 
Q 2556 3084 3091 3084 
Q 3413 3084 3656 2967 
Q 3900 2850 4084 2613 
L 4084 3022 
L 4531 3022 
L 4531 722 
Q 4988 791 5245 1139 
Q 5503 1488 5503 2041 
Q 5503 2375 5404 2669 
Q 5306 2963 5106 3213 
Q 4781 3622 4314 3839 
Q 3847 4056 3297 4056 
Q 2913 4056 2559 3954 
Q 2206 3853 1906 3653 
Q 1416 3334 1139 2817 
Q 863 2300 863 1697 
Q 863 1200 1042 765 
Q 1222 331 1563 0 
Q 1891 -325 2322 -495 
Q 2753 -666 3244 -666 
Q 3647 -666 4036 -530 
Q 4425 -394 4750 -141 
L 5031 -488 
Q 4641 -791 4180 -952 
Q 3719 -1113 3244 -1113 
Q 2666 -1113 2153 -908 
Q 1641 -703 1241 -313 
Q 841 78 631 592 
Q 422 1106 422 1697 
Q 422 2266 634 2781 
Q 847 3297 1241 3688 
Q 1644 4084 2172 4295 
Q 2700 4506 3291 4506 
Q 3953 4506 4520 4234 
Q 5088 3963 5472 3463 
Q 5706 3156 5829 2797 
Q 5953 2438 5953 2053 
Q 5953 1231 5456 756 
Q 4959 281 4084 263 
L 4084 744 
z
" id="DejaVuSans-40" transform="scale(0.015625)"/>
       <path d="M 3122 3366 
L 3122 2828 
Q 2878 2963 2633 3030 
Q 2388 3097 2138 3097 
Q 1578 3097 1268 2742 
Q 959 2388 959 1747 
Q 959 1106 1268 751 
Q 1578 397 2138 397 
Q 2388 397 2633 464 
Q 2878 531 3122 666 
L 3122 134 
Q 2881 22 2623 -34 
Q 2366 -91 2075 -91 
Q 1284 -91 818 406 
Q 353 903 353 1747 
Q 353 2603 823 3093 
Q 1294 3584 2113 3584 
Q 2378 3584 2631 3529 
Q 2884 3475 3122 3366 
z
" id="DejaVuSans-63" transform="scale(0.015625)"/>
       <path d="M 581 4863 
L 1159 4863 
L 1159 1991 
L 2875 3500 
L 3609 3500 
L 1753 1863 
L 3688 0 
L 2938 0 
L 1159 1709 
L 1159 0 
L 581 0 
L 581 4863 
z
" id="DejaVuSans-6b" transform="scale(0.015625)"/>
       <path d="M 684 794 
L 1344 794 
L 1344 0 
L 684 0 
L 684 794 
z
" id="DejaVuSans-2e" transform="scale(0.015625)"/>
       <path d="M 3116 1747 
Q 3116 2381 2855 2742 
Q 2594 3103 2138 3103 
Q 1681 3103 1420 2742 
Q 1159 2381 1159 1747 
Q 1159 1113 1420 752 
Q 1681 391 2138 391 
Q 2594 391 2855 752 
Q 3116 1113 3116 1747 
z
M 1159 2969 
Q 1341 3281 1617 3432 
Q 1894 3584 2278 3584 
Q 2916 3584 3314 3078 
Q 3713 2572 3713 1747 
Q 3713 922 3314 415 
Q 2916 -91 2278 -91 
Q 1894 -91 1617 61 
Q 1341 213 1159 525 
L 1159 0 
L 581 0 
L 581 4863 
L 1159 4863 
L 1159 2969 
z
" id="DejaVuSans-62" transform="scale(0.015625)"/>
       <path d="M 603 3500 
L 1178 3500 
L 1178 0 
L 603 0 
L 603 3500 
z
M 603 4863 
L 1178 4863 
L 1178 4134 
L 603 4134 
L 603 4863 
z
" id="DejaVuSans-69" transform="scale(0.015625)"/>
       <path d="M 2906 1791 
Q 2906 2416 2648 2759 
Q 2391 3103 1925 3103 
Q 1463 3103 1205 2759 
Q 947 2416 947 1791 
Q 947 1169 1205 825 
Q 1463 481 1925 481 
Q 2391 481 2648 825 
Q 2906 1169 2906 1791 
z
M 3481 434 
Q 3481 -459 3084 -895 
Q 2688 -1331 1869 -1331 
Q 1566 -1331 1297 -1286 
Q 1028 -1241 775 -1147 
L 775 -588 
Q 1028 -725 1275 -790 
Q 1522 -856 1778 -856 
Q 2344 -856 2625 -561 
Q 2906 -266 2906 331 
L 2906 616 
Q 2728 306 2450 153 
Q 2172 0 1784 0 
Q 1141 0 747 490 
Q 353 981 353 1791 
Q 353 2603 747 3093 
Q 1141 3584 1784 3584 
Q 2172 3584 2450 3431 
Q 2728 3278 2906 2969 
L 2906 3500 
L 3481 3500 
L 3481 434 
z
" id="DejaVuSans-67" transform="scale(0.015625)"/>
       <path d="M 1984 4856 
Q 1566 4138 1362 3434 
Q 1159 2731 1159 2009 
Q 1159 1288 1364 580 
Q 1569 -128 1984 -844 
L 1484 -844 
Q 1016 -109 783 600 
Q 550 1309 550 2009 
Q 550 2706 781 3412 
Q 1013 4119 1484 4856 
L 1984 4856 
z
" id="DejaVuSans-28" transform="scale(0.015625)"/>
       <path d="M 513 4856 
L 1013 4856 
Q 1481 4119 1714 3412 
Q 1947 2706 1947 2009 
Q 1947 1309 1714 600 
Q 1481 -109 1013 -844 
L 513 -844 
Q 928 -128 1133 580 
Q 1338 1288 1338 2009 
Q 1338 2731 1133 3434 
Q 928 4138 513 4856 
z
" id="DejaVuSans-29" transform="scale(0.015625)"/>
      </defs>
      <use xlink:href="#DejaVuSans-74"/>
      <use x="39.208984" xlink:href="#DejaVuSans-65"/>
      <use x="100.732422" xlink:href="#DejaVuSans-61"/>
      <use x="162.011719" xlink:href="#DejaVuSans-6d"/>
      <use x="259.423828" xlink:href="#DejaVuSans-2b"/>
      <use x="343.212891" xlink:href="#DejaVuSans-70"/>
      <use x="406.689453" xlink:href="#DejaVuSans-79"/>
      <use x="465.869141" xlink:href="#DejaVuSans-74"/>
      <use x="505.078125" xlink:href="#DejaVuSans-68"/>
      <use x="568.457031" xlink:href="#DejaVuSans-6f"/>
      <use x="629.638672" xlink:href="#DejaVuSans-6e"/>
      <use x="693.017578" xlink:href="#DejaVuSans-40"/>
      <use x="793.017578" xlink:href="#DejaVuSans-74"/>
      <use x="832.226562" xlink:href="#DejaVuSans-72"/>
      <use x="873.339844" xlink:href="#DejaVuSans-61"/>
      <use x="934.619141" xlink:href="#DejaVuSans-63"/>
      <use x="989.599609" xlink:href="#DejaVuSans-6b"/>
      <use x="1043.884766" xlink:href="#DejaVuSans-65"/>
      <use x="1105.408203" xlink:href="#DejaVuSans-72"/>
      <use x="1137.396484" xlink:href="#DejaVuSans-2e"/>
      <use x="1169.183594" xlink:href="#DejaVuSans-64"/>
      <use x="1232.660156" xlink:href="#DejaVuSans-65"/>
      <use x="1294.183594" xlink:href="#DejaVuSans-62"/>
      <use x="1357.660156" xlink:href="#DejaVuSans-69"/>
      <use x="1385.443359" xlink:href="#DejaVuSans-61"/>
      <use x="1446.722656" xlink:href="#DejaVuSans-6e"/>
      <use x="1510.101562" xlink:href="#DejaVuSans-2e"/>
      <use x="1541.888672" xlink:href="#DejaVuSans-6f"/>
      <use x="1603.070312" xlink:href="#DejaVuSans-72"/>
      <use x="1642.433594" xlink:href="#DejaVuSans-67"/>
      <use x="1705.910156" xlink:href="#DejaVuSans-20"/>
      <use x="1737.697266" xlink:href="#DejaVuSans-28"/>
      <use x="1776.710938" xlink:href="#DejaVuSans-31"/>
      <use x="1840.333984" xlink:href="#DejaVuSans-30"/>
      <use x="1903.957031" xlink:href="#DejaVuSans-39"/>
      <use x="1967.580078" xlink:href="#DejaVuSans-36"/>
      <use x="2031.203125" xlink:href="#DejaVuSans-29"/>
     </g>
    </g>
    <g id="line2d_38">
     <path d="M 58.280988 312.682299 
L 78.280988 312.682299 
" style="fill:none;stroke:#1f77b4;stroke-linecap:square;stroke-width:1.5;"/>
    </g>
    <g id="line2d_39"/>
    <g id="text_18">
     <!-- python-modules-team@lists.alioth.debian.org (677) -->
     <g transform="translate(86.280988 316.182299)scale(0.1 -0.1)">
      <use xlink:href="#DejaVuSans-70"/>
      <use x="63.476562" xlink:href="#DejaVuSans-79"/>
      <use x="122.65625" xlink:href="#DejaVuSans-74"/>
      <use x="161.865234" xlink:href="#DejaVuSans-68"/>
      <use x="225.244141" xlink:href="#DejaVuSans-6f"/>
      <use x="286.425781" xlink:href="#DejaVuSans-6e"/>
      <use x="349.804688" xlink:href="#DejaVuSans-2d"/>
      <use x="385.888672" xlink:href="#DejaVuSans-6d"/>
      <use x="483.300781" xlink:href="#DejaVuSans-6f"/>
      <use x="544.482422" xlink:href="#DejaVuSans-64"/>
      <use x="607.958984" xlink:href="#DejaVuSans-75"/>
      <use x="671.337891" xlink:href="#DejaVuSans-6c"/>
      <use x="699.121094" xlink:href="#DejaVuSans-65"/>
      <use x="760.644531" xlink:href="#DejaVuSans-73"/>
      <use x="812.744141" xlink:href="#DejaVuSans-2d"/>
      <use x="848.828125" xlink:href="#DejaVuSans-74"/>
      <use x="888.037109" xlink:href="#DejaVuSans-65"/>
      <use x="949.560547" xlink:href="#DejaVuSans-61"/>
      <use x="1010.839844" xlink:href="#DejaVuSans-6d"/>
      <use x="1108.251953" xlink:href="#DejaVuSans-40"/>
      <use x="1208.251953" xlink:href="#DejaVuSans-6c"/>
      <use x="1236.035156" xlink:href="#DejaVuSans-69"/>
      <use x="1263.818359" xlink:href="#DejaVuSans-73"/>
      <use x="1315.917969" xlink:href="#DejaVuSans-74"/>
      <use x="1355.126953" xlink:href="#DejaVuSans-73"/>
      <use x="1407.226562" xlink:href="#DejaVuSans-2e"/>
      <use x="1439.013672" xlink:href="#DejaVuSans-61"/>
      <use x="1500.292969" xlink:href="#DejaVuSans-6c"/>
      <use x="1528.076172" xlink:href="#DejaVuSans-69"/>
      <use x="1555.859375" xlink:href="#DejaVuSans-6f"/>
      <use x="1617.041016" xlink:href="#DejaVuSans-74"/>
      <use x="1656.25" xlink:href="#DejaVuSans-68"/>
      <use x="1719.628906" xlink:href="#DejaVuSans-2e"/>
      <use x="1751.416016" xlink:href="#DejaVuSans-64"/>
      <use x="1814.892578" xlink:href="#DejaVuSans-65"/>
      <use x="1876.416016" xlink:href="#DejaVuSans-62"/>
      <use x="1939.892578" xlink:href="#DejaVuSans-69"/>
      <use x="1967.675781" xlink:href="#DejaVuSans-61"/>
      <use x="2028.955078" xlink:href="#DejaVuSans-6e"/>
      <use x="2092.333984" xlink:href="#DejaVuSans-2e"/>
      <use x="2124.121094" xlink:href="#DejaVuSans-6f"/>
      <use x="2185.302734" xlink:href="#DejaVuSans-72"/>
      <use x="2224.666016" xlink:href="#DejaVuSans-67"/>
      <use x="2288.142578" xlink:href="#DejaVuSans-20"/>
      <use x="2319.929688" xlink:href="#DejaVuSans-28"/>
      <use x="2358.943359" xlink:href="#DejaVuSans-36"/>
      <use x="2422.566406" xlink:href="#DejaVuSans-37"/>
      <use x="2486.189453" xlink:href="#DejaVuSans-37"/>
      <use x="2549.8125" xlink:href="#DejaVuSans-29"/>
     </g>
    </g>
    <g id="line2d_40">
     <path d="M 58.280988 327.360424 
L 78.280988 327.360424 
" style="fill:none;stroke:#ff7f0e;stroke-linecap:square;stroke-width:1.5;"/>
    </g>
    <g id="line2d_41"/>
    <g id="text_19">
     <!-- python-apps-team@lists.alioth.debian.org (20) -->
     <g transform="translate(86.280988 330.860424)scale(0.1 -0.1)">
      <use xlink:href="#DejaVuSans-70"/>
      <use x="63.476562" xlink:href="#DejaVuSans-79"/>
      <use x="122.65625" xlink:href="#DejaVuSans-74"/>
      <use x="161.865234" xlink:href="#DejaVuSans-68"/>
      <use x="225.244141" xlink:href="#DejaVuSans-6f"/>
      <use x="286.425781" xlink:href="#DejaVuSans-6e"/>
      <use x="349.804688" xlink:href="#DejaVuSans-2d"/>
      <use x="385.888672" xlink:href="#DejaVuSans-61"/>
      <use x="447.167969" xlink:href="#DejaVuSans-70"/>
      <use x="510.644531" xlink:href="#DejaVuSans-70"/>
      <use x="574.121094" xlink:href="#DejaVuSans-73"/>
      <use x="626.220703" xlink:href="#DejaVuSans-2d"/>
      <use x="662.304688" xlink:href="#DejaVuSans-74"/>
      <use x="701.513672" xlink:href="#DejaVuSans-65"/>
      <use x="763.037109" xlink:href="#DejaVuSans-61"/>
      <use x="824.316406" xlink:href="#DejaVuSans-6d"/>
      <use x="921.728516" xlink:href="#DejaVuSans-40"/>
      <use x="1021.728516" xlink:href="#DejaVuSans-6c"/>
      <use x="1049.511719" xlink:href="#DejaVuSans-69"/>
      <use x="1077.294922" xlink:href="#DejaVuSans-73"/>
      <use x="1129.394531" xlink:href="#DejaVuSans-74"/>
      <use x="1168.603516" xlink:href="#DejaVuSans-73"/>
      <use x="1220.703125" xlink:href="#DejaVuSans-2e"/>
      <use x="1252.490234" xlink:href="#DejaVuSans-61"/>
      <use x="1313.769531" xlink:href="#DejaVuSans-6c"/>
      <use x="1341.552734" xlink:href="#DejaVuSans-69"/>
      <use x="1369.335938" xlink:href="#DejaVuSans-6f"/>
      <use x="1430.517578" xlink:href="#DejaVuSans-74"/>
      <use x="1469.726562" xlink:href="#DejaVuSans-68"/>
      <use x="1533.105469" xlink:href="#DejaVuSans-2e"/>
      <use x="1564.892578" xlink:href="#DejaVuSans-64"/>
      <use x="1628.369141" xlink:href="#DejaVuSans-65"/>
      <use x="1689.892578" xlink:href="#DejaVuSans-62"/>
      <use x="1753.369141" xlink:href="#DejaVuSans-69"/>
      <use x="1781.152344" xlink:href="#DejaVuSans-61"/>
      <use x="1842.431641" xlink:href="#DejaVuSans-6e"/>
      <use x="1905.810547" xlink:href="#DejaVuSans-2e"/>
      <use x="1937.597656" xlink:href="#DejaVuSans-6f"/>
      <use x="1998.779297" xlink:href="#DejaVuSans-72"/>
      <use x="2038.142578" xlink:href="#DejaVuSans-67"/>
      <use x="2101.619141" xlink:href="#DejaVuSans-20"/>
      <use x="2133.40625" xlink:href="#DejaVuSans-28"/>
      <use x="2172.419922" xlink:href="#DejaVuSans-32"/>
      <use x="2236.042969" xlink:href="#DejaVuSans-30"/>
      <use x="2299.666016" xlink:href="#DejaVuSans-29"/>
     </g>
    </g>
    <g id="line2d_42">
     <path d="M 58.280988 342.038549 
L 78.280988 342.038549 
" style="fill:none;stroke:#2ca02c;stroke-linecap:square;stroke-width:1.5;"/>
    </g>
    <g id="line2d_43"/>
    <g id="text_20">
     <!-- python-apps-team@alioth-lists.debian.net (0) -->
     <g transform="translate(86.280988 345.538549)scale(0.1 -0.1)">
      <use xlink:href="#DejaVuSans-70"/>
      <use x="63.476562" xlink:href="#DejaVuSans-79"/>
      <use x="122.65625" xlink:href="#DejaVuSans-74"/>
      <use x="161.865234" xlink:href="#DejaVuSans-68"/>
      <use x="225.244141" xlink:href="#DejaVuSans-6f"/>
      <use x="286.425781" xlink:href="#DejaVuSans-6e"/>
      <use x="349.804688" xlink:href="#DejaVuSans-2d"/>
      <use x="385.888672" xlink:href="#DejaVuSans-61"/>
      <use x="447.167969" xlink:href="#DejaVuSans-70"/>
      <use x="510.644531" xlink:href="#DejaVuSans-70"/>
      <use x="574.121094" xlink:href="#DejaVuSans-73"/>
      <use x="626.220703" xlink:href="#DejaVuSans-2d"/>
      <use x="662.304688" xlink:href="#DejaVuSans-74"/>
      <use x="701.513672" xlink:href="#DejaVuSans-65"/>
      <use x="763.037109" xlink:href="#DejaVuSans-61"/>
      <use x="824.316406" xlink:href="#DejaVuSans-6d"/>
      <use x="921.728516" xlink:href="#DejaVuSans-40"/>
      <use x="1021.728516" xlink:href="#DejaVuSans-61"/>
      <use x="1083.007812" xlink:href="#DejaVuSans-6c"/>
      <use x="1110.791016" xlink:href="#DejaVuSans-69"/>
      <use x="1138.574219" xlink:href="#DejaVuSans-6f"/>
      <use x="1199.755859" xlink:href="#DejaVuSans-74"/>
      <use x="1238.964844" xlink:href="#DejaVuSans-68"/>
      <use x="1302.34375" xlink:href="#DejaVuSans-2d"/>
      <use x="1338.427734" xlink:href="#DejaVuSans-6c"/>
      <use x="1366.210938" xlink:href="#DejaVuSans-69"/>
      <use x="1393.994141" xlink:href="#DejaVuSans-73"/>
      <use x="1446.09375" xlink:href="#DejaVuSans-74"/>
      <use x="1485.302734" xlink:href="#DejaVuSans-73"/>
      <use x="1537.402344" xlink:href="#DejaVuSans-2e"/>
      <use x="1569.189453" xlink:href="#DejaVuSans-64"/>
      <use x="1632.666016" xlink:href="#DejaVuSans-65"/>
      <use x="1694.189453" xlink:href="#DejaVuSans-62"/>
      <use x="1757.666016" xlink:href="#DejaVuSans-69"/>
      <use x="1785.449219" xlink:href="#DejaVuSans-61"/>
      <use x="1846.728516" xlink:href="#DejaVuSans-6e"/>
      <use x="1910.107422" xlink:href="#DejaVuSans-2e"/>
      <use x="1941.894531" xlink:href="#DejaVuSans-6e"/>
      <use x="2005.273438" xlink:href="#DejaVuSans-65"/>
      <use x="2066.796875" xlink:href="#DejaVuSans-74"/>
      <use x="2106.005859" xlink:href="#DejaVuSans-20"/>
      <use x="2137.792969" xlink:href="#DejaVuSans-28"/>
      <use x="2176.806641" xlink:href="#DejaVuSans-30"/>
      <use x="2240.429688" xlink:href="#DejaVuSans-29"/>
     </g>
    </g>
    <g id="line2d_44">
     <path d="M 58.280988 356.716674 
L 78.280988 356.716674 
" style="fill:none;stroke:#d62728;stroke-linecap:square;stroke-width:1.5;"/>
    </g>
    <g id="line2d_45"/>
    <g id="text_21">
     <!-- python-apps-team@lists.alioth.debian.net (0) -->
     <g transform="translate(86.280988 360.216674)scale(0.1 -0.1)">
      <use xlink:href="#DejaVuSans-70"/>
      <use x="63.476562" xlink:href="#DejaVuSans-79"/>
      <use x="122.65625" xlink:href="#DejaVuSans-74"/>
      <use x="161.865234" xlink:href="#DejaVuSans-68"/>
      <use x="225.244141" xlink:href="#DejaVuSans-6f"/>
      <use x="286.425781" xlink:href="#DejaVuSans-6e"/>
      <use x="349.804688" xlink:href="#DejaVuSans-2d"/>
      <use x="385.888672" xlink:href="#DejaVuSans-61"/>
      <use x="447.167969" xlink:href="#DejaVuSans-70"/>
      <use x="510.644531" xlink:href="#DejaVuSans-70"/>
      <use x="574.121094" xlink:href="#DejaVuSans-73"/>
      <use x="626.220703" xlink:href="#DejaVuSans-2d"/>
      <use x="662.304688" xlink:href="#DejaVuSans-74"/>
      <use x="701.513672" xlink:href="#DejaVuSans-65"/>
      <use x="763.037109" xlink:href="#DejaVuSans-61"/>
      <use x="824.316406" xlink:href="#DejaVuSans-6d"/>
      <use x="921.728516" xlink:href="#DejaVuSans-40"/>
      <use x="1021.728516" xlink:href="#DejaVuSans-6c"/>
      <use x="1049.511719" xlink:href="#DejaVuSans-69"/>
      <use x="1077.294922" xlink:href="#DejaVuSans-73"/>
      <use x="1129.394531" xlink:href="#DejaVuSans-74"/>
      <use x="1168.603516" xlink:href="#DejaVuSans-73"/>
      <use x="1220.703125" xlink:href="#DejaVuSans-2e"/>
      <use x="1252.490234" xlink:href="#DejaVuSans-61"/>
      <use x="1313.769531" xlink:href="#DejaVuSans-6c"/>
      <use x="1341.552734" xlink:href="#DejaVuSans-69"/>
      <use x="1369.335938" xlink:href="#DejaVuSans-6f"/>
      <use x="1430.517578" xlink:href="#DejaVuSans-74"/>
      <use x="1469.726562" xlink:href="#DejaVuSans-68"/>
      <use x="1533.105469" xlink:href="#DejaVuSans-2e"/>
      <use x="1564.892578" xlink:href="#DejaVuSans-64"/>
      <use x="1628.369141" xlink:href="#DejaVuSans-65"/>
      <use x="1689.892578" xlink:href="#DejaVuSans-62"/>
      <use x="1753.369141" xlink:href="#DejaVuSans-69"/>
      <use x="1781.152344" xlink:href="#DejaVuSans-61"/>
      <use x="1842.431641" xlink:href="#DejaVuSans-6e"/>
      <use x="1905.810547" xlink:href="#DejaVuSans-2e"/>
      <use x="1937.597656" xlink:href="#DejaVuSans-6e"/>
      <use x="2000.976562" xlink:href="#DejaVuSans-65"/>
      <use x="2062.5" xlink:href="#DejaVuSans-74"/>
      <use x="2101.708984" xlink:href="#DejaVuSans-20"/>
      <use x="2133.496094" xlink:href="#DejaVuSans-28"/>
      <use x="2172.509766" xlink:href="#DejaVuSans-30"/>
      <use x="2236.132812" xlink:href="#DejaVuSans-29"/>
     </g>
    </g>
    <g id="line2d_46">
     <path d="M 58.280988 371.394799 
L 78.280988 371.394799 
" style="fill:none;stroke:#9467bd;stroke-linecap:square;stroke-width:1.5;"/>
    </g>
    <g id="line2d_47"/>
    <g id="text_22">
     <!-- python-modules-team@alioth-lists.debian.net (0) -->
     <g transform="translate(86.280988 374.894799)scale(0.1 -0.1)">
      <use xlink:href="#DejaVuSans-70"/>
      <use x="63.476562" xlink:href="#DejaVuSans-79"/>
      <use x="122.65625" xlink:href="#DejaVuSans-74"/>
      <use x="161.865234" xlink:href="#DejaVuSans-68"/>
      <use x="225.244141" xlink:href="#DejaVuSans-6f"/>
      <use x="286.425781" xlink:href="#DejaVuSans-6e"/>
      <use x="349.804688" xlink:href="#DejaVuSans-2d"/>
      <use x="385.888672" xlink:href="#DejaVuSans-6d"/>
      <use x="483.300781" xlink:href="#DejaVuSans-6f"/>
      <use x="544.482422" xlink:href="#DejaVuSans-64"/>
      <use x="607.958984" xlink:href="#DejaVuSans-75"/>
      <use x="671.337891" xlink:href="#DejaVuSans-6c"/>
      <use x="699.121094" xlink:href="#DejaVuSans-65"/>
      <use x="760.644531" xlink:href="#DejaVuSans-73"/>
      <use x="812.744141" xlink:href="#DejaVuSans-2d"/>
      <use x="848.828125" xlink:href="#DejaVuSans-74"/>
      <use x="888.037109" xlink:href="#DejaVuSans-65"/>
      <use x="949.560547" xlink:href="#DejaVuSans-61"/>
      <use x="1010.839844" xlink:href="#DejaVuSans-6d"/>
      <use x="1108.251953" xlink:href="#DejaVuSans-40"/>
      <use x="1208.251953" xlink:href="#DejaVuSans-61"/>
      <use x="1269.53125" xlink:href="#DejaVuSans-6c"/>
      <use x="1297.314453" xlink:href="#DejaVuSans-69"/>
      <use x="1325.097656" xlink:href="#DejaVuSans-6f"/>
      <use x="1386.279297" xlink:href="#DejaVuSans-74"/>
      <use x="1425.488281" xlink:href="#DejaVuSans-68"/>
      <use x="1488.867188" xlink:href="#DejaVuSans-2d"/>
      <use x="1524.951172" xlink:href="#DejaVuSans-6c"/>
      <use x="1552.734375" xlink:href="#DejaVuSans-69"/>
      <use x="1580.517578" xlink:href="#DejaVuSans-73"/>
      <use x="1632.617188" xlink:href="#DejaVuSans-74"/>
      <use x="1671.826172" xlink:href="#DejaVuSans-73"/>
      <use x="1723.925781" xlink:href="#DejaVuSans-2e"/>
      <use x="1755.712891" xlink:href="#DejaVuSans-64"/>
      <use x="1819.189453" xlink:href="#DejaVuSans-65"/>
      <use x="1880.712891" xlink:href="#DejaVuSans-62"/>
      <use x="1944.189453" xlink:href="#DejaVuSans-69"/>
      <use x="1971.972656" xlink:href="#DejaVuSans-61"/>
      <use x="2033.251953" xlink:href="#DejaVuSans-6e"/>
      <use x="2096.630859" xlink:href="#DejaVuSans-2e"/>
      <use x="2128.417969" xlink:href="#DejaVuSans-6e"/>
      <use x="2191.796875" xlink:href="#DejaVuSans-65"/>
      <use x="2253.320312" xlink:href="#DejaVuSans-74"/>
      <use x="2292.529297" xlink:href="#DejaVuSans-20"/>
      <use x="2324.316406" xlink:href="#DejaVuSans-28"/>
      <use x="2363.330078" xlink:href="#DejaVuSans-30"/>
      <use x="2426.953125" xlink:href="#DejaVuSans-29"/>
     </g>
    </g>
    <g id="line2d_48">
     <path d="M 58.280988 386.072924 
L 78.280988 386.072924 
" style="fill:none;stroke:#8c564b;stroke-linecap:square;stroke-width:1.5;"/>
    </g>
    <g id="line2d_49"/>
    <g id="text_23">
     <!-- team+python-modules@tracker.debian.org (0) -->
     <g transform="translate(86.280988 389.572924)scale(0.1 -0.1)">
      <use xlink:href="#DejaVuSans-74"/>
      <use x="39.208984" xlink:href="#DejaVuSans-65"/>
      <use x="100.732422" xlink:href="#DejaVuSans-61"/>
      <use x="162.011719" xlink:href="#DejaVuSans-6d"/>
      <use x="259.423828" xlink:href="#DejaVuSans-2b"/>
      <use x="343.212891" xlink:href="#DejaVuSans-70"/>
      <use x="406.689453" xlink:href="#DejaVuSans-79"/>
      <use x="465.869141" xlink:href="#DejaVuSans-74"/>
      <use x="505.078125" xlink:href="#DejaVuSans-68"/>
      <use x="568.457031" xlink:href="#DejaVuSans-6f"/>
      <use x="629.638672" xlink:href="#DejaVuSans-6e"/>
      <use x="693.017578" xlink:href="#DejaVuSans-2d"/>
      <use x="729.101562" xlink:href="#DejaVuSans-6d"/>
      <use x="826.513672" xlink:href="#DejaVuSans-6f"/>
      <use x="887.695312" xlink:href="#DejaVuSans-64"/>
      <use x="951.171875" xlink:href="#DejaVuSans-75"/>
      <use x="1014.550781" xlink:href="#DejaVuSans-6c"/>
      <use x="1042.333984" xlink:href="#DejaVuSans-65"/>
      <use x="1103.857422" xlink:href="#DejaVuSans-73"/>
      <use x="1155.957031" xlink:href="#DejaVuSans-40"/>
      <use x="1255.957031" xlink:href="#DejaVuSans-74"/>
      <use x="1295.166016" xlink:href="#DejaVuSans-72"/>
      <use x="1336.279297" xlink:href="#DejaVuSans-61"/>
      <use x="1397.558594" xlink:href="#DejaVuSans-63"/>
      <use x="1452.539062" xlink:href="#DejaVuSans-6b"/>
      <use x="1506.824219" xlink:href="#DejaVuSans-65"/>
      <use x="1568.347656" xlink:href="#DejaVuSans-72"/>
      <use x="1600.335938" xlink:href="#DejaVuSans-2e"/>
      <use x="1632.123047" xlink:href="#DejaVuSans-64"/>
      <use x="1695.599609" xlink:href="#DejaVuSans-65"/>
      <use x="1757.123047" xlink:href="#DejaVuSans-62"/>
      <use x="1820.599609" xlink:href="#DejaVuSans-69"/>
      <use x="1848.382812" xlink:href="#DejaVuSans-61"/>
      <use x="1909.662109" xlink:href="#DejaVuSans-6e"/>
      <use x="1973.041016" xlink:href="#DejaVuSans-2e"/>
      <use x="2004.828125" xlink:href="#DejaVuSans-6f"/>
      <use x="2066.009766" xlink:href="#DejaVuSans-72"/>
      <use x="2105.373047" xlink:href="#DejaVuSans-67"/>
      <use x="2168.849609" xlink:href="#DejaVuSans-20"/>
      <use x="2200.636719" xlink:href="#DejaVuSans-28"/>
      <use x="2239.650391" xlink:href="#DejaVuSans-30"/>
      <use x="2303.273438" xlink:href="#DejaVuSans-29"/>
     </g>
    </g>
   </g>
  </g>
 </g>
 <defs>
  <clipPath id="pe3a336a92c">
   <rect height="663.958348" width="1091.919012" x="49.280988" y="10.8"/>
  </clipPath>
 </defs>
</svg>
